<svg xmlns:svg="http://www.w3.org/2000/svg" xmlns="http://www.w3.org/2000/svg" xmlns:inkscape="http://www.inkscape.org/namespaces/inkscape" viewBox="0 0 226 226" id="svg5074" version="1.1"
opacity=".05"
width="300" height="300" viewbox="0 0 226 226"
>
 <path id="path4304" fill="#bdb9b2" d="m99 0-1 5 3-4-2-1m41 0 6 1-6-1z"/>
 <path id="path4306" fill="#6f6c6c" d="m99 1 3 2-3-2z"/>
 <path id="path4308" fill="#aaa0a4" d="m138.67 1.3333 0.666 0.33334-0.666-0.33334z"/>
 <path id="path4310" fill="#5a535d" d="m140 1 5 3c1.235-3.2752-2.501-2.9586-5-3z"/>
 <path id="path4312" fill="#aaa0a4" d="m146 1v3-3z"/>
 <path id="path4314" fill="#3e2d25" d="m99 2c2.118 14.409-1.1672 47.669 17 52v3c-51.073 11.122-69.466 75.187-45.324 117 5.2395 9.074 13.35 16.491 22.324 21.667 2.6196 1.511 9.261 6.579 10 1.333 6.436-0.508 10.141-8.118 13.667-13 1.284-1.778 2.552-5.266 5.333-4.667 9.71 2.092-15.559 19.63-7 20.667l-4 4c13.927 2.396 26.701 3 41 3-10.939-15.021 9.135-41.23-15-51 3.7 8.607 10.884 11.511 11 22l-32-4c-0.968 8.693-9.575 13.959-12 22-9.6624-0.738-22.258-13.554-26-22h-5l-7.2191-21c-4.9181-17.332-5.1774-33.316 2.7469-49.91 7.7344-16.197 21.084-26.633 35.147-36.75 5.416-3.8964 15.235-9.6746 22.137-6.2508 5.479 2.7183 7.93 12.616 10.188 17.91 3.223-7.6975-8.849-19.626-1-24l-5-1c8.531-33.437 52.634-16.462 75-16v-2c-19.56-0.839-41-10.565-60-2.19-7.53 3.319-14.32 7.483-16 16.191l-4-3c-4.385 9.3679-11.921 5.1166-16.633-3.0039-7.36-12.67-1.88-27.982-7.37-40.996h-2z"/>
 <path id="path4316" fill="#aaa0a4" d="m102.33 2.6667 0.334 0.66666-0.334-0.66666z"/>
 <path id="path4318" fill="#948f93" d="m135 4 3-1-3 1z"/>
 <path id="path4320" fill="#383136" d="m123 48c9.23-13.506-1.46-39.75 22-44v-2c-21.529 0.19496-22 30.283-22 46z"/>
 <path id="path4322" fill="#6f6c6c" d="m102.33 4.6667 0.334 0.66666-0.334-0.66666z"/>
 <path id="path4324" fill="#bdb9b2" d="m133 4-1 2 1-2z"/>
 <path id="path4326" fill="#5a535d" d="m134.67 4.3333 0.666 0.33334-0.666-0.33334z"/>
 <path id="path4328" fill="#8a827b" d="m141 4 4 1-4-1z"/>
 <path id="path4330" fill="#ddccde" d="m142 5h5-5z"/>
 <path id="path4332" fill="#948f93" d="m99 5v3-3z"/>
 <path id="path4334" fill="#8a827b" d="m133 5 1 1-1-1z"/>
 <path id="path4336" fill="#aaa0a4" d="m139 5 3 1-3-1z"/>
 <path id="path4338" fill="#8a827b" d="m103 6v5-5z"/>
 <path id="path4340" fill="#5a535d" d="m132 6v2l2-2h-2z"/>
 <path id="path4342" fill="#8a827b" d="m136 8 3-2-3 2m-5-1 1 1-1-1z"/>
 <path id="path4344" fill="#ddccde" d="m99 8v5-5z"/>
 <path id="path4346" fill="#8a827b" d="m100 8v5-5z"/>
 <path id="path4348" fill="#aaa0a4" d="m130 8 1 1-1-1z"/>
 <path id="path4350" fill="#948f93" d="m135 8 1 1-1-1z"/>
 <path id="path4352" fill="#bdb9b2" d="m129 9 1 1-1-1z"/>
 <path id="path4354" fill="#948f93" d="m134 9 1 1-1-1z"/>
 <path id="path4356" fill="#5a535d" d="m129.33 10.667 0.334 0.6666-0.334-0.6666z"/>
 <path id="path4358" fill="#8a827b" d="m133 10 1 1-1-1z"/>
 <path id="path4360" fill="#5a535d" d="m103 11v6c0.951-2.2853 0.951-3.7147 0-6z"/>
 <path id="path4362" fill="#bdb9b2" d="m104 11v6c0.951-2.2853 0.951-3.7147 0-6z"/>
 <path id="path4364" fill="#aaa0a4" d="m128 11-1 3 1-3z"/>
 <path id="path4366" fill="#948f93" d="m132 12 1 1-1-1z"/>
 <path id="path4368" fill="#bdb9b2" d="m100 13v9c1.256-2.9941 1.256-6.0059 0-9z"/>
 <path id="path4370" fill="#5a535d" d="m101 13v11c1.431-3.41 1.431-7.59 0-11z"/>
 <path id="path4372" fill="#6f6c6c" d="m131 13 1 1-1-1z"/>
 <path id="path4374" fill="#5a535d" d="m127.33 14.667 0.334 0.6666-0.334-0.6666z"/>
 <path id="path4376" fill="#ddccde" d="m131.33 14.667 0.334 0.6666-0.334-0.6666z"/>
 <path id="path4378" fill="#948f93" d="m126.33 15.667 0.334 0.6666-0.334-0.6666z"/>
 <path id="path4380" fill="#aaa0a4" d="m130.33 15.667 0.334 0.6666-0.334-0.6666z"/>
 <path id="path4382" fill="#ddccde" d="m105 16v11c1.431-3.41 1.431-7.59 0-11z"/>
 <path id="path4384" fill="#948f93" d="m104 17v9c1.256-2.9941 1.256-6.0059 0-9z"/>
 <path id="path4386" fill="#bdb9b2" d="m125 17v3-3z"/>
 <path id="path4388" fill="#948f93" d="m129.33 17.667 0.334 0.6666-0.334-0.6666z"/>
 <path id="path4390" fill="#ddccde" d="m129.33 19.667 0.334 0.6666-0.334-0.6666z"/>
 <path id="path4392" fill="#bdb9b2" d="m124.33 20.667 0.334 0.6666-0.334-0.6666z"/>
 <path id="path4394" fill="#8a827b" d="m128.33 20.667 0.334 0.6666-0.334-0.6666z"/>
 <path id="path4396" fill="#ddccde" d="m100 22v10c1.346-3.207 1.346-6.793 0-10z"/>
 <path id="path4398" fill="#8a827b" d="m124.33 22.667 0.334 0.6666-0.334-0.6666z"/>
 <path id="path4400" fill="#5a535d" d="m127 22v3-3z"/>
 <path id="path4402" fill="#bdb9b2" d="m128.33 22.667 0.334 0.6666-0.334-0.6666z"/>
 <path id="path4404" fill="#8a827b" d="m101 24v7c1.059-2.5343 1.059-4.4657 0-7z"/>
 <path id="path4406" fill="#bdb9b2" d="m123 24v3-3z"/>
 <path id="path4408" fill="#5a535d" d="m124 24v4-4z"/>
 <path id="path4410" fill="#948f93" d="m127.33 25.667 0.334 0.6666-0.334-0.6666z"/>
 <path id="path4412" fill="#5a535d" d="m104 26v7c1.059-2.5343 1.059-4.4657 0-7z"/>
 <path id="path4414" fill="#bdb9b2" d="m105 27v6c0.951-2.2853 0.951-3.7147 0-6z"/>
 <path id="path4416" fill="#6f6c6c" d="m123 27v4-4z"/>
 <path id="path4418" fill="#bdb9b2" d="m127 27v3-3z"/>
 <path id="path4420" fill="#ddccde" d="m152 28 6 1-6-1z"/>
 <path id="path4422" fill="#aaa0a4" d="m158 28 8 1-8-1z"/>
 <path id="path4424" fill="#ddccde" d="m166 28 6 1-6-1m-21 2h5-5z"/>
 <path id="path4426" fill="#aaa0a4" d="m150.67 29.333 0.666 0.3334-0.666-0.3334z"/>
 <path id="path4428" fill="#6f6c6c" d="m152 29 5 1-5-1z"/>
 <path id="path4430" fill="#373e60" d="m157 29 10 1-10-1z"/>
 <path id="path4432" fill="#6f6c6c" d="m167 29 5 1-5-1z"/>
 <path id="path4434" fill="#aaa0a4" d="m172 29 3 1-3-1z"/>
 <path id="path4436" fill="#ddccde" d="m175 29 5 1-5-1z"/>
 <path id="path4438" fill="#8a827b" d="m126 30v5-5z"/>
 <path id="path4440" fill="#ddccde" d="m127 30v5-5z"/>
 <path id="path4442" fill="#8a827b" d="m148.67 30.333 0.666 0.3334-0.666-0.3334z"/>
 <path id="path4444" fill="#6f6c6c" d="m176 30 4 1-4-1z"/>
 <path id="path4446" fill="#bdb9b2" d="m180.67 30.333 0.666 0.3334-0.666-0.3334m-79.67 0.667v5-5z"/>
 <path id="path4448" fill="#ddccde" d="m122 31v4-4z"/>
 <path id="path4450" fill="#5a535d" d="m123 31v5-5z"/>
 <path id="path4452" fill="#948f93" d="m144.67 31.333 0.666 0.3334-0.666-0.3334z"/>
 <path id="path4454" fill="#5a535d" d="m146.67 31.333 0.666 0.3334-0.666-0.3334m34.33-0.333l3 1-3-1z"/>
 <path id="path4456" fill="#948f93" d="m184 31 3 1-3-1z"/>
 <path id="path4458" fill="#bdb9b2" d="m187 31 3 1-3-1z"/>
 <path id="path4460" fill="#aaa0a4" d="m142.67 32.333 0.666 0.3334-0.666-0.3334z"/>
 <path id="path4462" fill="#5a535d" d="m142 33h4-4z"/>
 <path id="path4464" fill="#8a827b" d="m155 32 13 1-13-1z"/>
 <path id="path4466" fill="#5a535d" d="m168 32 5 1-5-1m19 0 3 1-3-1z"/>
 <path id="path4468" fill="#948f93" d="m190 32 3 1-3-1z"/>
 <path id="path4470" fill="#ddccde" d="m193 32 6 1-6-1z"/>
 <path id="path4472" fill="#948f93" d="m105 33v3-3m35.667 0.3333 0.666 0.3334-0.666-0.3334z"/>
 <path id="path4474" fill="#5a535d" d="m148 33 3 1-3-1z"/>
 <path id="path4476" fill="#948f93" d="m151.67 33.333 0.666 0.3334-0.666-0.3334z"/>
 <path id="path4478" fill="#bdb9b2" d="m153 33 3 1-3-1z"/>
 <path id="path4480" fill="#ddccde" d="m156 33 12 1-12-1z"/>
 <path id="path4482" fill="#bdb9b2" d="m168 33 6 1-6-1z"/>
 <path id="path4484" fill="#6f6c6c" d="m174.67 33.333 0.666 0.3334-0.666-0.3334z"/>
 <path id="path4486" fill="#5a535d" d="m176 33 3 1-3-1m16 0 3 1-3-1z"/>
 <path id="path4488" fill="#8a827b" d="m195 33 4 1-4-1z"/>
 <path id="path4490" fill="#bdb9b2" d="m199 33 6 1-6-1z"/>
 <path id="path4492" fill="#aaa0a4" d="m139 34 1 1-1-1z"/>
 <path id="path4494" fill="#8a827b" d="m147.67 34.333 0.666 0.3334-0.666-0.3334z"/>
 <path id="path4496" fill="#bdb9b2" d="m149 34 3 1-3-1m27 0 3 1-3-1z"/>
 <path id="path4498" fill="#8a827b" d="m179 34 3 1-3-1z"/>
 <path id="path4500" fill="#5a535d" d="m199 34 6 1-6-1z"/>
 <path id="path4502" fill="#aaa0a4" d="m205 34 1 1-1-1z"/>
 <path id="path4504" fill="#8a827b" d="m122 35v13c1.591-3.7913 1.591-9.2087 0-13z"/>
 <path id="path4506" fill="#bdb9b2" d="m126 35c0 4.1018-1.853 11.96 3 13l-3-13z"/>
 <path id="path4508" fill="#aaa0a4" d="m138 35 1 1-1-1z"/>
 <path id="path4510" fill="#948f93" d="m145.67 35.333 0.666 0.3334-0.666-0.3334z"/>
 <path id="path4512" fill="#ddccde" d="m179 35 3 1-3-1z"/>
 <path id="path4514" fill="#bdb9b2" d="m182.67 35.333 0.666 0.3334-0.666-0.3334z"/>
 <path id="path4516" fill="#8a827b" d="m184 35 3 1-3-1z"/>
 <path id="path4518" fill="#6f6c6c" d="m205 35-6 2c2.25 1.0853 7.429 1.7912 6-2z"/>
 <path id="path4520" fill="#bdb9b2" d="m206 35v3-3z"/>
 <path id="path4522" fill="#8a827b" d="m102 36v3-3z"/>
 <path id="path4524" fill="#ddccde" d="m106.33 36.667 0.334 0.6666-0.334-0.6666z"/>
 <path id="path4526" fill="#bdb9b2" d="m136 36 1 1-1-1z"/>
 <path id="path4528" fill="#6f6c6c" d="m143 36 1 1-1-1z"/>
 <path id="path4530" fill="#ddccde" d="m144.67 36.333 0.666 0.3334-0.666-0.3334m38.33-0.333l3 1-3-1z"/>
 <path id="path4532" fill="#aaa0a4" d="m186 36 5 1-5-1z"/>
 <path id="path4534" fill="#8a827b" d="m191 36 3 1-3-1z"/>
 <path id="path4536" fill="#383136" d="m194 36 5 1-5-1z"/>
 <path id="path4538" fill="#673530" d="m125 37v11c1.431-3.41 1.431-7.59 0-11z"/>
 <path id="path4540" fill="#8a827b" d="m136 37 1 1-1-1z"/>
 <path id="path4542" fill="#bdb9b2" d="m142.67 37.333 0.666 0.3334-0.666-0.3334z"/>
 <path id="path4544" fill="#ddccde" d="m191 37 7 2-7-2z"/>
 <path id="path4546" fill="#aaa0a4" d="m194 37 5 1-5-1z"/>
 <path id="path4548" fill="#8a827b" d="m106.33 38.667 0.334 0.6666-0.334-0.6666z"/>
 <path id="path4550" fill="#bdb9b2" d="m134 38 1 1-1-1z"/>
 <path id="path4552" fill="#8a827b" d="m135 38 1 1-1-1z"/>
 <path id="path4554" fill="#6f6c6c" d="m140 38 1 1-1-1z"/>
 <path id="path4556" fill="#aaa0a4" d="m141 38 1 1-1-1z"/>
 <path id="path4558" fill="#bdb9b2" d="m198 38 8 1-8-1m-65 1 1 1-1-1z"/>
 <path id="path4560" fill="#8a827b" d="m139 39 1 1-1-1z"/>
 <path id="path4562" fill="#aaa0a4" d="m107.33 40.667 0.334 0.6666-0.334-0.6666z"/>
 <path id="path4564" fill="#bdb9b2" d="m132 40 1 1-1-1z"/>
 <path id="path4566" fill="#8a827b" d="m138 40 1 1-1-1z"/>
 <path id="path4568" fill="#bdb9b2" d="m103.33 41.667 0.334 0.6666-0.334-0.6666z"/>
 <path id="path4570" fill="#aaa0a4" d="m137 41 1 1-1-1z"/>
 <path id="path4572" fill="#948f93" d="m131 42 1 1-1-1m5 0 1 1-1-1z"/>
 <path id="path4574" fill="#aaa0a4" d="m108 43 1 1-1-1z"/>
 <path id="path4576" fill="#bdb9b2" d="m130 43 1 1-1-1z"/>
 <path id="path4578" fill="#8a827b" d="m135 43 1 1-1-1z"/>
 <path id="path4580" fill="#ddccde" d="m104.33 44.667 0.334 0.6666-0.334-0.6666z"/>
 <path id="path4582" fill="#bdb9b2" d="m109 44 1 1-1-1z"/>
 <path id="path4584" fill="#6f6c6c" d="m134 44 1 1-1-1z"/>
 <path id="path4586" fill="#aaa0a4" d="m105 45 3 5-3-5z"/>
 <path id="path4588" fill="#8a827b" d="m109 45 1 1-1-1z"/>
 <path id="path4590" fill="#948f93" d="m129 45 1 1-1-1z"/>
 <path id="path4592" fill="#bdb9b2" d="m134 45 1 1-1-1z"/>
 <path id="path4594" fill="#948f93" d="m110 46 1 1-1-1z"/>
 <path id="path4596" fill="#aaa0a4" d="m133 46 1 1-1-1m-22 1 1 1-1-1m21.333 0.6667 0.334 0.6666-0.334-0.6666z"/>
 <path id="path4598" fill="#948f93" d="m112 48 1 1-1-1z"/>
 <path id="path4600" fill="#bdb9b2" d="m122 48v4-4z"/>
 <path id="path4602" fill="#5a535d" d="m123 48v4-4z"/>
 <path id="path4604" fill="#6f6c6c" d="m126 48 3 1-3-1z"/>
 <path id="path4606" fill="#ddccde" d="m114.67 49.333 0.666 0.3334-0.666-0.3334z"/>
 <path id="path4608" fill="#5a535d" d="m130 49v4-4z"/>
 <path id="path4610" fill="#aaa0a4" d="m131 49v3-3m-23 1 1 1-1-1z"/>
 <path id="path4612" fill="#bdb9b2" d="m115.67 50.333 0.666 0.3334-0.666-0.3334m-6.67 0.667l1 1-1-1z"/>
 <path id="path4614" fill="#8a827b" d="m116 51 7 2-7-2z"/>
 <path id="path4616" fill="#ddccde" d="m119 51 3 1-3-1m13 0 7 1-7-1z"/>
 <path id="path4618" fill="#aaa0a4" d="m139 51 9 1-9-1z"/>
 <path id="path4620" fill="#ddccde" d="m148 51 6 1-6-1z"/>
 <path id="path4622" fill="#948f93" d="m111 52 1 1-1-1z"/>
 <path id="path4624" fill="#6f6c6c" d="m131 52 8 1-8-1z"/>
 <path id="path4626" fill="#5a535d" d="m139 52 10 1-10-1z"/>
 <path id="path4628" fill="#6f6c6c" d="m149 52 6 1-6-1z"/>
 <path id="path4630" fill="#aaa0a4" d="m155 52 3 1-3-1z"/>
 <path id="path4632" fill="#ddccde" d="m158.67 52.333 0.666 0.3334-0.666-0.3334z"/>
 <path id="path4634" fill="#aaa0a4" d="m112 53 1 1-1-1z"/>
 <path id="path4636" fill="#383136" d="m131 57c15.047-1.9017 28.249 1.6939 43 2v4c34.495 7.9118 54.261 49.366 45.443 81.961-3.241 11.98-14.269 22.031-16.443 34.039-7.832 1.289-14.977 9.776-21.285 14.312-7.681 5.523-23.276 10.257-32.715 10.688 5.105 4.339 11.26 0.768 17-0.86 16.461-4.666 29.563-13.28 40.935-26.155 30.98-35.08 18.75-100.07-26.94-116.63-11.51-4.175-22.66-7.35-35-7.35-5.141 0-11.015-0.8791-14 4z"/>
 <path id="path4638" fill="#5a535d" d="m155 53 3 1-3-1z"/>
 <path id="path4640" fill="#6f6c6c" d="m158 53 3 1-3-1z"/>
 <path id="path4642" fill="#aaa0a4" d="m161 53 3 1-3-1z"/>
 <path id="path4644" fill="#948f93" d="m114 54 1 1-1-1z"/>
 <path id="path4646" fill="#6f6c6c" d="m115 54v3-3z"/>
 <path id="path4648" fill="#373e60" d="m159 54 4 1-4-1z"/>
 <path id="path4650" fill="#8a827b" d="m163 54 3 1-3-1z"/>
 <path id="path4652" fill="#bdb9b2" d="m166.67 54.333 0.666 0.3334-0.666-0.3334z"/>
 <path id="path4654" fill="#aaa0a4" d="m114.33 55.667 0.334 0.6666-0.334-0.6666z"/>
 <path id="path4656" fill="#6f6c6c" d="m166.67 55.333 0.666 0.3334-0.666-0.3334z"/>
 <path id="path4658" fill="#948f93" d="m168 55 3 1-3-1z"/>
 <path id="path4660" fill="#5a535d" d="m134 56c7.195 3.0192 20.988 2.6551 29 3-8.695-4.18-19.614-3-29-3z"/>
 <path id="path4662" fill="#373e60" d="m153 56 5 1-5-1z"/>
 <path id="path4664" fill="#5a535d" d="m169 56 11 4-11-4z"/>
 <path id="path4666" fill="#bdb9b2" d="m172.67 56.333 0.666 0.3334-0.666-0.3334z"/>
 <path id="path4668" fill="#ddccde" d="m110 57 3 1-3-1z"/>
 <path id="path4670" fill="#5a535d" d="m131 57v3l2-3h-2z"/>
 <path id="path4672" fill="#52689b" d="m133 57c5.715 2.398 13.831 1 20 1-5.715-2.398-13.831-1-20-1z"/>
 <path id="path4674" fill="#373e60" d="m158 57 16 4c-3.188-3.7046-11.291-3.9023-16-4z"/>
 <path id="path4676" fill="#aaa0a4" d="m174.67 57.333 0.666 0.3334-0.666-0.3334z"/>
 <path id="path4678" fill="#ddccde" d="m52 64 4-5c-3.4544-0.7771-3.7732 2.0602-4 5z"/>
 <path id="path4680" fill="#bdb9b2" d="m105 60 5-1-5 1z"/>
 <path id="path4682" fill="#5a535d" d="m108 59h4-4z"/>
 <path id="path4684" fill="#5882d5" d="m132 58c4.6 16.074 13.25 31.312 10.791 49-1.931 13.887-11.662 25.806-13.791 39 11.126 7.142 18.501 16.539 23 29 8.067-1.109 15.618-5.529 22.17-10.163 1.566-1.108 5.145-4.033 7.078-2.093 3.336 3.347-7.322 9.164-9.418 10.469l-18.227 8.486c-4.16 4.41-3.6 14.68-3.6 20.29 51.68-1.07 86.8-66.1 60.69-110-16.82-28.266-48.65-34-78.69-34z"/>
 <path id="path4686" fill="#bdb9b2" d="m177.67 58.333 0.666 0.3334-0.666-0.3334z"/>
 <path id="path4688" fill="#8a827b" d="m54 59 3 1-3-1z"/>
 <path id="path4690" fill="#673530" d="m113 61 7-1-7 1z"/>
 <path id="path4692" fill="#8f3b3a" d="m116 61 10 1v-3l-10 2z"/>
 <path id="path4694" fill="#52689b" d="m163 59 7 3-7-3z"/>
 <path id="path4696" fill="#ddccde" d="m180 59 4 2-4-2z"/>
 <path id="path4698" fill="#5a535d" d="m53 60v4-4z"/>
 <path id="path4700" fill="#383136" d="m54 60c0.4873 6.5218 6.6079 16.007 13 18-0.365-6.65-6.446-16.065-13-18z"/>
 <path id="path4702" fill="#aaa0a4" d="m57 60 1 1-1-1z"/>
 <path id="path4704" fill="#5a535d" d="m106.67 60.333 0.666 0.3334-0.666-0.3334z"/>
 <path id="path4706" fill="#673530" d="m126 60 4 8c1.091-3.6947-0.715-6.2969-4-8z"/>
 <path id="path4708" fill="#373e60" d="m132.33 60.667 0.334 0.6666-0.334-0.6666z"/>
 <path id="path4710" fill="#5a535d" d="m169 60 5 2-5-2z"/>
 <path id="path4712" fill="#8a827b" d="m180.67 60.333 0.666 0.3334-0.666-0.3334z"/>
 <path id="path4714" fill="#bdb9b2" d="m58 61 1 1-1-1z"/>
 <path id="path4716" fill="#ddccde" d="m101 61 3 1-3-1z"/>
 <path id="path4718" fill="#5a535d" d="m104.67 61.333 0.666 0.3334-0.666-0.3334z"/>
 <path id="path4720" fill="#8a827b" d="m183 61 1 1-1-1z"/>
 <path id="path4722" fill="#bdb9b2" d="m59 62 1 1-1-1z"/>
 <path id="path4724" fill="#948f93" d="m100 62 3 1-3-1z"/>
 <path id="path4726" fill="#673530" d="m105 66 6-3c-3.055-1.0619-4.57 0.2681-6 3z"/>
 <path id="path4728" fill="#8f3b3a" d="m109 63h4-4z"/>
 <path id="path4730" fill="#ce4742" d="m78 94c-6.1148 2.0203-6.2429 8.82-9.0864 13.83-11.738 20.684-4.0236 57.388 13.49 73.445 4.2752 3.919 12.701 12.164 18.518 13.064 6.606 1.022 14.017-15.087 14.079-20.339l32 3c-0.272-12.699-14.303-26.956-27-27 1.185-8.893 9.632-16.198 13.201-24.424 6.854-15.802 5.2-40.743-1.571-56.29-3.77-8.67-12.44-8.753-20.63-5.895-12.745 4.45-30.645 16.23-33 30.605z"/>
 <path id="path4732" fill="#948f93" d="m185 62 1 1-1-1z"/>
 <path id="path4734" fill="#8a827b" d="m59 63 1 1-1-1z"/>
 <path id="path4736" fill="#aaa0a4" d="m96 64h4-4z"/>
 <path id="path4738" fill="#948f93" d="m186.67 63.333 0.666 0.3334-0.666-0.3334z"/>
 <path id="path4740" fill="#6f6c6c" d="m60.333 64.667 0.3334 0.6666-0.3334-0.6666z"/>
 <path id="path4742" fill="#373e60" d="m134 64v3-3z"/>
 <path id="path4744" fill="#aaa0a4" d="m188.67 64.333 0.666 0.3334-0.666-0.3334z"/>
 <path id="path4746" fill="#bdb9b2" d="m61 65 1 1-1-1m34 0 1 1-1-1z"/>
 <path id="path4748" fill="#5a535d" d="m96.667 65.333 0.6666 0.3334-0.6666-0.3334m84 0 0.666 0.3334-0.666-0.3334z"/>
 <path id="path4750" fill="#373e60" d="m182 65 3 2-3-2z"/>
 <path id="path4752" fill="#8a827b" d="m190 65 1 1-1-1z"/>
 <path id="path4754" fill="#bdb9b2" d="m92 66v2l2-2h-2z"/>
 <path id="path4756" fill="#5a535d" d="m93 68 3-2-3 2z"/>
 <path id="path4758" fill="#6f6c6c" d="m191 66 1 1-1-1z"/>
 <path id="path4760" fill="#948f93" d="m56 67 1 1-1-1z"/>
 <path id="path4762" fill="#5a535d" d="m62 67 2 3-2-3z"/>
 <path id="path4764" fill="#8f3b3a" d="m94 73 9-6c-3.662 1.3138-6.9587 2.6151-9 6z"/>
 <path id="path4766" fill="#52689b" d="m136 67 1 5c0.791-2.3073 0.475-3.0648-1-5z"/>
 <path id="path4768" fill="#5a535d" d="m184 67 3 2-3-2z"/>
 <path id="path4770" fill="#948f93" d="m193 67 1 1-1-1z"/>
 <path id="path4772" fill="#ddccde" d="m56 68 3 4-3-4z"/>
 <path id="path4774" fill="#8a827b" d="m57 68 1 1-1-1z"/>
 <path id="path4776" fill="#aaa0a4" d="m91 68 1 1-1-1z"/>
 <path id="path4778" fill="#8a827b" d="m194 68 1 1-1-1z"/>
 <path id="path4780" fill="#948f93" d="m64 69 1 1-1-1z"/>
 <path id="path4782" fill="#ddccde" d="m89 69 1 1-1-1z"/>
 <path id="path4784" fill="#948f93" d="m90 69 1 1-1-1z"/>
 <path id="path4786" fill="#52689b" d="m187 69 3 2-3-2z"/>
 <path id="path4788" fill="#6f6c6c" d="m195 69 1 1-1-1z"/>
 <path id="path4790" fill="#aaa0a4" d="m196 69 1 1-1-1m-131 1 1 1-1-1z"/>
 <path id="path4792" fill="#bdb9b2" d="m88 70 1 1-1-1z"/>
 <path id="path4794" fill="#673530" d="m132 70c2.765 13.281 6 24.144 6 38 4.117-9.811 0.953-30.084-6-38z"/>
 <path id="path4796" fill="#948f93" d="m197 70 1 1-1-1m-138 1 1 1-1-1m7.3333 0.6667 0.3334 0.6666-0.3334-0.6666z"/>
 <path id="path4798" fill="#bdb9b2" d="m87 71 1 1-1-1z"/>
 <path id="path4800" fill="#5a535d" d="m190 71 3 2-3-2z"/>
 <path id="path4802" fill="#948f93" d="m198 71 1 1-1-1z"/>
 <path id="path4804" fill="#bdb9b2" d="m60.333 72.667 0.3334 0.6666-0.3334-0.6666z"/>
 <path id="path4806" fill="#aaa0a4" d="m86 72 1 1-1-1z"/>
 <path id="path4808" fill="#383136" d="m137 72 2 14c1.751-4.2928 0.344-10.112-2-14z"/>
 <path id="path4810" fill="#52689b" d="m190 72c1.739 3.3376 4.584 4.6302 8 6-1.854-3.5455-4.282-4.697-8-6z"/>
 <path id="path4812" fill="#8a827b" d="m199 72 1 1-1-1z"/>
 <path id="path4814" fill="#6f6c6c" d="m61 73 1 1-1-1z"/>
 <path id="path4816" fill="#bdb9b2" d="m67 73 1 1-1-1z"/>
 <path id="path4818" fill="#aaa0a4" d="m85 73 1 1-1-1z"/>
 <path id="path4820" fill="#52689b" d="m169 73 11 1-11-1z"/>
 <path id="path4822" fill="#8a827b" d="m200 73 1 1-1-1z"/>
 <path id="path4824" fill="#ddccde" d="m61.333 74.667 0.3334 0.6666-0.3334-0.6666z"/>
 <path id="path4826" fill="#5a535d" d="m67 74v4-4z"/>
 <path id="path4828" fill="#aaa0a4" d="m68 74v4-4z"/>
 <path id="path4830" fill="#948f93" d="m84 74 1 1-1-1z"/>
 <path id="path4832" fill="#52689b" d="m163 75h5-5z"/>
 <path id="path4834" fill="#373e60" d="m154 110-0.69-12.91c2.1-13.394 14.92-19.578 26.69-18.09-3.603-2.4613-7.757-1.9995-12-2 5.687-2.7361 10.123-1.3433 16 0-11.067-8.8009-26.905 0.407-31.116 12-2.358 6.4923-0.552 14.555 1.116 21z"/>
 <path id="path4836" fill="#6f6c6c" d="m201 74 1 1-1-1z"/>
 <path id="path4838" fill="#948f93" d="m62 75 1 1-1-1m21 0 1 1-1-1z"/>
 <path id="path4840" fill="#383136" d="m168 76c6.842 2.872 12.497 2.3781 18.532 8.0432 10.702 10.045 4.485 26.353-7.532 31.957 3.195-6.382 7.691-11.189 5.566-19-4.74-17.428-22.394-9.3652-27.566 2l-2-5h-2l2.101 14.999c4.831 13.797 22.731 15.306 32.603 6.219 8.727-8.032 9.605-22.1 3.136-31.41-2.658-3.8247-5.319-6.1786-9.841-7.703-4.35-1.468-8.62-1.15-13-0.106z"/>
 <path id="path4842" fill="#6f6c6c" d="m202 75 1 1-1-1z"/>
 <path id="path4844" fill="#aaa0a4" d="m82 76 1 1-1-1z"/>
 <path id="path4846" fill="#6f6c6c" d="m203 76 1 1-1-1z"/>
 <path id="path4848" fill="#8a827b" d="m43 77 3 1-3-1z"/>
 <path id="path4850" fill="#bdb9b2" d="m63 77 1 1-1-1z"/>
 <path id="path4852" fill="#aaa0a4" d="m81 77 1 1-1-1z"/>
 <path id="path4854" fill="#52689b" d="m184.67 77.333 0.666 0.3334-0.666-0.3334z"/>
 <path id="path4856" fill="#8a827b" d="m204 77 1 1-1-1z"/>
 <path id="path4858" fill="#bdb9b2" d="m41 78v3-3z"/>
 <path id="path4860" fill="#6f6c6c" d="m42 78v4-4z"/>
 <path id="path4862" fill="#383136" d="m43 78c0.594 7.7925 8.1466 9.9871 15 11-1.5546-5.1676-9.9497-9.5106-15-11z"/>
 <path id="path4864" fill="#bdb9b2" d="m46 78 1 1-1-1z"/>
 <path id="path4866" fill="#8a827b" d="m64 78 4 1-4-1z"/>
 <path id="path4868" fill="#948f93" d="m80 78 1 1-1-1z"/>
 <path id="path4870" fill="#8f3b3a" d="m134 78 2 13c1.769-4.2548 0.621-9.3207-2-13z"/>
 <path id="path4872" fill="#5a535d" d="m139.33 78.667 0.334 0.6666-0.334-0.6666z"/>
 <path id="path4874" fill="#52689b" d="m158 80 3-1c-1.778-0.9554-2.021-0.7662-3 1z"/>
 <path id="path4876" fill="#6f6c6c" d="m164 82c4.454-2.2387 8.034-2.9858 13-3-4.51-1.8919-10.197-1.2251-13 3z"/>
 <path id="path4878" fill="#373e60" d="m200 78c1.324 2.6866 2.313 3.6759 5 5l-2-5h-3z"/>
 <path id="path4880" fill="#6f6c6c" d="m205 78 1 1-1-1z"/>
 <path id="path4882" fill="#bdb9b2" d="m47 79 1 1-1-1z"/>
 <path id="path4884" fill="#ddccde" d="m65 79 3 1-3-1z"/>
 <path id="path4886" fill="#aaa0a4" d="m79 79 1 1-1-1z"/>
 <path id="path4888" fill="#bdb9b2" d="m165 81 12-1c-4.085-1.7133-8.107-0.8735-12 1z"/>
 <path id="path4890" fill="#948f93" d="m177 79 3 1-3-1m29 0 1 1-1-1z"/>
 <path id="path4892" fill="#8a827b" d="m47 80 3 2-3-2z"/>
 <path id="path4894" fill="#ddccde" d="m48.667 80.333 0.6666 0.3334-0.6666-0.3334z"/>
 <path id="path4896" fill="#aaa0a4" d="m78 80 1 1-1-1z"/>
 <path id="path4898" fill="#ddccde" d="m158 92 10.09-7.2971c16.64-5.185 18.13 15.307 16.91 25.297 22.52-14.157-19.7-48.719-27-18z"/>
 <path id="path4900" fill="#8a827b" d="m180.67 80.333 0.666 0.3334-0.666-0.3334z"/>
 <path id="path4902" fill="#52689b" d="m188.67 80.333 0.666 0.3334-0.666-0.3334z"/>
 <path id="path4904" fill="#948f93" d="m207 80 1 1-1-1z"/>
 <path id="path4906" fill="#ddccde" d="m50.667 81.333 0.6666 0.3334-0.6666-0.3334z"/>
 <path id="path4908" fill="#bdb9b2" d="m77 81 1 1-1-1m104 0 5 5-5-5z"/>
 <path id="path4910" fill="#6f6c6c" d="m182.67 81.333 0.666 0.3334-0.666-0.3334z"/>
 <path id="path4912" fill="#aaa0a4" d="m208 81 1 1-1-1z"/>
 <path id="path4914" fill="#6f6c6c" d="m50.667 82.333 0.6666 0.3334-0.6666-0.3334z"/>
 <path id="path4916" fill="#bdb9b2" d="m52.667 82.333 0.6666 0.3334-0.6666-0.3334z"/>
 <path id="path4918" fill="#948f93" d="m76 82v2l2-2h-2z"/>
 <path id="path4920" fill="#3e2d25" d="m138 82c0.038 13.61 1.652 25.681-2.912 38.985l-14.09 28.02 15 6c-1.761-4.939-4.879-6.656-10-7v-6h3c3.877-18.814 20.04-40.32 9-60z"/>
 <path id="path4922" fill="#948f93" d="m158 89 6-7c-3.376 1.6625-4.78 3.4451-6 7z"/>
 <path id="path4924" fill="#5a535d" d="m184 82 3 2-3-2z"/>
 <path id="path4926" fill="#373e60" d="m190 82 2 3-2-3z"/>
 <path id="path4928" fill="#52689b" d="m191 82 2 5c0.566-2.5087-0.152-3.2198-2-5z"/>
 <path id="path4930" fill="#373e60" d="m208 82 3 4-3-4z"/>
 <path id="path4932" fill="#bdb9b2" d="m209 82 1 1-1-1z"/>
 <path id="path4934" fill="#8a827b" d="m53 83 3 1-3-1z"/>
 <path id="path4936" fill="#5a535d" d="m140 83 1 11c1.546-3.6914 1.042-7.5914-1-11z"/>
 <path id="path4938" fill="#52689b" d="m204 83 2 3-2-3z"/>
 <path id="path4940" fill="#bdb9b2" d="m210 83 1 1-1-1z"/>
 <path id="path4942" fill="#aaa0a4" d="m44 84 1 1-1-1z"/>
 <path id="path4944" fill="#bdb9b2" d="m56.667 84.333 0.6666 0.3334-0.6666-0.3334z"/>
 <path id="path4946" fill="#aaa0a4" d="m74 84v2l2-2h-2z"/>
 <path id="path4948" fill="#8f3b3a" d="m73 97 5-3 5-10c-5.4536 1.6782-8.6047 7.7029-10 13z"/>
 <path id="path4950" fill="#52689b" d="m154 84-1 4c1.303-1.6676 1.553-1.9922 1-4z"/>
 <path id="path4952" fill="#bdb9b2" d="m167 84 17 8c-3.418-6.725-10.012-7.9422-17-8z"/>
 <path id="path4954" fill="#948f93" d="m186 84 3 4-3-4z"/>
 <path id="path4956" fill="#373e60" d="m206 84 4 8c0.982-3.5909-1.317-5.7903-4-8z"/>
 <path id="path4958" fill="#aaa0a4" d="m211.33 84.667 0.334 0.6666-0.334-0.6666z"/>
 <path id="path4960" fill="#6f6c6c" d="m46.667 85.333 0.6666 0.3334-0.6666-0.3334m10.333-0.333l1 1-1-1z"/>
 <path id="path4962" fill="#aaa0a4" d="m58 85 1 1-1-1m107.67 0.3333 0.666 0.3334-0.666-0.3334z"/>
 <path id="path4964" fill="#8a827b" d="m165 86h8-8m-117.33 0.3333 0.6666 0.3334-0.6666-0.3334z"/>
 <path id="path4966" fill="#5a535d" d="m58 86-2 3c2.5767 0.9757 2.9524-0.8611 2-3z"/>
 <path id="path4968" fill="#bdb9b2" d="m59 86v4-4m14 0 1 1-1-1z"/>
 <path id="path4970" fill="#373e60" d="m168 86 6 1-6-1z"/>
 <path id="path4972" fill="#52689b" d="m174 86 4 2-4-2z"/>
 <path id="path4974" fill="#5a535d" d="m189 86 1 5c0.651-2.2341 0.318-3.0739-1-5z"/>
 <path id="path4976" fill="#bdb9b2" d="m212 86 1 1-1-1m-163.33 1.3333 0.6666 0.3334-0.6666-0.3334z"/>
 <path id="path4978" fill="#8a827b" d="m50.667 87.333 0.6666 0.3334-0.6666-0.3334m22.333-0.333l1 1-1-1z"/>
 <path id="path4980" fill="#8f3b3a" d="m111 91 5-3c-2.011 6.0403-14.418 16.011-4 20-3.507-9.177 4.789-10.114 5.172-17.891 0.25-5.088-5.17-1.597-6.17 0.891z"/>
 <path id="path4982" fill="#948f93" d="m162 87v2l2-2h-2z"/>
 <path id="path4984" fill="#52689b" d="m194 87c2.658 21.033-7.679 39.47-31 32 7.58 8.202 18.1 1.532 27 0 2.823-10.391 12.089-21.13 4-32z"/>
 <path id="path4986" fill="#8a827b" d="m212 87 1 1-1-1z"/>
 <path id="path4988" fill="#ddccde" d="m50 88 3 1-3-1z"/>
 <path id="path4990" fill="#6f6c6c" d="m53 88 3 2-3-2z"/>
 <path id="path4992" fill="#5a535d" d="m72 88v2l2-2h-2z"/>
 <path id="path4994" fill="#3e2d25" d="m113 88c-2.364 3.5614-6.114 11.531-11.004 11.658l-17-8.658c1.708 6.0707 7.9198 11.399 14 13l-10 18c5.8672-1.903 8.4702-12.472 14.21-12.978l14.79 7.98c-1.031-6.043-8.919-7.541-9.865-13.1-0.92-5.356 6.78-10.561 7.86-15.9h-3z"/>
 <path id="path4996" fill="#373e60" d="m179 88 4 5-4-5z"/>
 <path id="path4998" fill="#aaa0a4" d="m213 88 1 1-1-1m-142 1 1 1-1-1z"/>
 <path id="path5000" fill="#5a535d" d="m156.33 89.667 0.334 0.6666-0.334-0.6666z"/>
 <path id="path5002" fill="#aaa0a4" d="m157 89c0.168 2.4025 0.197 3.4602 2 5l-2-5z"/>
 <path id="path5004" fill="#5a535d" d="m157 97-1-5v7l7-10c-3.452 1.8516-4.574 4.4173-6 8z"/>
 <path id="path5006" fill="#aaa0a4" d="m55 90 4 1-4-1z"/>
 <path id="path5008" fill="#8f3b3a" d="m84 90v4l1-3 5 1-6-2z"/>
 <path id="path5010" fill="#5a535d" d="m214.33 90.667 0.334 0.6666-0.334-0.6666z"/>
 <path id="path5012" fill="#ddccde" d="m56.667 91.333 0.6666 0.3334-0.6666-0.3334z"/>
 <path id="path5014" fill="#6f6c6c" d="m70.333 91.667 0.3334 0.6666-0.3334-0.6666z"/>
 <path id="path5016" fill="#8f3b3a" d="m137 91v19c2.02-4.813 2.02-14.187 0-19z"/>
 <path id="path5018" fill="#8a827b" d="m156 91v6c1.516-2.3472 1.387-3.56 0-6m34 0v3-3z"/>
 <path id="path5020" fill="#6f6c6c" d="m191 91v12c1.512-3.604 1.512-8.3957 0-12z"/>
 <path id="path5022" fill="#8a827b" d="m215 91v3-3z"/>
 <path id="path5024" fill="#948f93" d="m33 97 4-4c-3.0455-0.6883-3.5486 1.2417-4 4z"/>
 <path id="path5026" fill="#673530" d="m109 92-5 8c2.768-2.1434 5.302-4.3392 5-8z"/>
 <path id="path5028" fill="#6f6c6c" d="m183 92 2 14c1.948-4.642 1.108-10.092-2-14z"/>
 <path id="path5030" fill="#aaa0a4" d="m184 92 1 4c0.553-2.0078 0.303-2.3324-1-4z"/>
 <path id="path5032" fill="#bdb9b2" d="m216.33 92.667 0.334 0.6666-0.334-0.6666z"/>
 <path id="path5034" fill="#6f6c6c" d="m35 93 6 2-6-2z"/>
 <path id="path5036" fill="#bdb9b2" d="m38.667 93.333 0.6666 0.3334-0.6666-0.3334m29.333-0.333v3l2-3h-2z"/>
 <path id="path5038" fill="#383136" d="m34 94c1.9263 5.945 12.362 7.167 18 8-1.2061-6.9469-12.094-7.5332-18-8z"/>
 <path id="path5040" fill="#aaa0a4" d="m41 94 3 1-3-1z"/>
 <path id="path5042" fill="#ddccde" d="m44 94 4 1-4-1z"/>
 <path id="path5044" fill="#383136" d="m141 94c-0.002 17.804-9.957 31.253-12 48 8.199-10.072 17.327-35.304 12-48z"/>
 <path id="path5046" fill="#52689b" d="m142 94-1 18c2.995-4.384 3.035-13.149 1-18z"/>
 <path id="path5048" fill="#5a535d" d="m151 94v6c0.951-2.2853 0.951-3.7147 0-6z"/>
 <path id="path5050" fill="#aaa0a4" d="m190 94-1 12c2.383-3.488 2.631-8.1131 1-12z"/>
 <path id="path5052" fill="#5a535d" d="m212.33 94.667 0.334 0.6666-0.334-0.6666m3.67-0.667l1 4-1-4z"/>
 <path id="path5054" fill="#8a827b" d="m44.667 95.333 0.6666 0.3334-0.6666-0.3334z"/>
 <path id="path5056" fill="#aaa0a4" d="m46 95 3 1-3-1m171 0 1 1-1-1z"/>
 <path id="path5058" fill="#5a535d" d="m45 96 4 1-4-1z"/>
 <path id="path5060" fill="#bdb9b2" d="m49.667 96.333 0.6666 0.3334-0.6666-0.3334z"/>
 <path id="path5062" fill="#8a827b" d="m67.333 96.667 0.3334 0.6666-0.3334-0.6666z"/>
 <path id="path5064" fill="#aaa0a4" d="m34 97 1 1-1-1z"/>
 <path id="path5066" fill="#948f93" d="m50.667 97.333 0.6666 0.3334-0.6666-0.3334z"/>
 <path id="path5068" fill="#8f3b3a" d="m72 97-5 13c3.644-2.59 5.9219-8.625 5-13z"/>
 <path id="path5070" fill="#8a827b" d="m218.33 97.667 0.334 0.6663-0.334-0.6663z"/>
 <path id="path5072" fill="#aaa0a4" d="m35 98 5 2-5-2z"/>
 <path id="path5074" fill="#5a535d" d="m52 98-2 4c3.0535 1.151 3.0301-1.809 2-4z"/>
 <path id="path5076" fill="#8a827b" d="m66.333 98.667 0.3334 0.666-0.3334-0.666z"/>
 <path id="path5078" fill="#aaa0a4" d="m186 98v7c1.059-2.534 1.059-4.466 0-7m33.333 0.667 0.334 0.666-0.334-0.666z"/>
 <path id="path5080" fill="#ddccde" d="m36.667 99.333 0.6666 0.334-0.6666-0.334z"/>
 <path id="path5082" fill="#6f6c6c" d="m40 99 3 1-3-1z"/>
 <path id="path5084" fill="#aaa0a4" d="m53 99v3-3z"/>
 <path id="path5086" fill="#bdb9b2" d="m65.333 99.667 0.3334 0.666-0.3334-0.666z"/>
 <path id="path5088" fill="#8f3b3a" d="m99 99 4 2-4-2z"/>
 <path id="path5090" fill="#5a535d" d="m214 99 1 4c0.553-2.008 0.303-2.332-1-4z"/>
 <path id="path5092" fill="#bdb9b2" d="m41 100 3 1-3-1z"/>
 <path id="path5094" fill="#8a827b" d="m44.667 100.33 0.6666 0.334-0.6666-0.334z"/>
 <path id="path5096" fill="#673530" d="m69 100-2 8c2.0459-2.499 2.9547-4.851 2-8z"/>
 <path id="path5098" fill="#52689b" d="m151 100 1 7c0.965-2.706 0.466-4.55-1-7z"/>
 <path id="path5100" fill="#6f6c6c" d="m219.33 100.67 0.334 0.666-0.334-0.666z"/>
 <path id="path5102" fill="#ddccde" d="m44.667 101.33 0.6666 0.334-0.6666-0.334z"/>
 <path id="path5104" fill="#aaa0a4" d="m46 101 3 1-3-1z"/>
 <path id="path5106" fill="#6f6c6c" d="m65.333 101.67 0.3334 0.666-0.3334-0.666z"/>
 <path id="path5108" fill="#948f93" d="m220.33 101.67 0.334 0.666-0.334-0.666z"/>
 <path id="path5110" fill="#ddccde" d="m47 102 6 2-6-2z"/>
 <path id="path5112" fill="#948f93" d="m64.333 102.67 0.3334 0.666-0.3334-0.666z"/>
 <path id="path5114" fill="#5a535d" d="m220.33 103.67 0.334 0.666-0.334-0.666z"/>
 <path id="path5116" fill="#bdb9b2" d="m221 103 1 5-1-5m-158 1-1 4 1-4z"/>
 <path id="path5118" fill="#673530" d="m98 104-3 6c2.7562-1.513 4.001-2.863 3-6z"/>
 <path id="path5120" fill="#5a535d" d="m190.33 104.67 0.334 0.666-0.334-0.666z"/>
 <path id="path5122" fill="#373e60" d="m193 105-1 5c1.318-1.926 1.651-2.766 1-5z"/>
 <path id="path5124" fill="#6f6c6c" d="m63.333 106.67 0.3334 0.666-0.3334-0.666m125.67-0.67l-2 4c1.63-1.515 2.163-1.855 2-4z"/>
 <path id="path5126" fill="#373e60" d="m217 106c2.071 9.034 4 16.648 4 26 2.76-6.578 1.868-21.278-4-26z"/>
 <path id="path5128" fill="#6f6c6c" d="m221.33 106.67 0.334 0.666-0.334-0.666m-37.33 0.33l-1 4c1.303-1.668 1.553-1.992 1-4z"/>
 <path id="path5130" fill="#ddccde" d="m61.333 108.67 0.3334 0.666-0.3334-0.666z"/>
 <path id="path5132" fill="#8a827b" d="m62.333 108.67 0.3334 0.666-0.3334-0.666z"/>
 <path id="path5134" fill="#673530" d="m100 112c3.974-1.399 6.173-0.454 10 1-3.005-3.791-7.651-6.823-10-1z"/>
 <path id="path5136" fill="#948f93" d="m222.33 108.67 0.334 0.666-0.334-0.666z"/>
 <path id="path5138" fill="#673530" d="m66 109-2 7c1.8558-2.266 2.6534-4.106 2-7z"/>
 <path id="path5140" fill="#aaa0a4" d="m61.333 110.67 0.3334 0.666-0.3334-0.666z"/>
 <path id="path5142" fill="#8f3b3a" d="m93 110-3 8 6-8h-3m20 0 3 2-3-2m23 0v5-5z"/>
 <path id="path5144" fill="#52689b" d="m155.33 110.67 0.334 0.666-0.334-0.666z"/>
 <path id="path5146" fill="#aaa0a4" d="m183 113 4-3-4 3z"/>
 <path id="path5148" fill="#373e60" d="m190 110v3l2-3h-2z"/>
 <path id="path5150" fill="#6f6c6c" d="m222.33 110.67 0.334 0.666-0.334-0.666z"/>
 <path id="path5152" fill="#bdb9b2" d="m223.33 110.67 0.334 0.666-0.334-0.666z"/>
 <path id="path5154" fill="#948f93" d="m182 111 2 3-2-3z"/>
 <path id="path5156" fill="#6f6c6c" d="m61.333 112.67 0.3334 0.666-0.3334-0.666z"/>
 <path id="path5158" fill="#8f3b3a" d="m98 112-6 10c3.566-2.717 6.913-6.019 9-10h-3z"/>
 <path id="path5160" fill="#52689b" d="m156.33 112.67 0.334 0.666-0.334-0.666z"/>
 <path id="path5162" fill="#6f6c6c" d="m181 112 2 3-2-3z"/>
 <path id="path5164" fill="#aaa0a4" d="m223 112v3-3z"/>
 <path id="path5166" fill="#bdb9b2" d="m60 113-1 8c1.2782-2.661 1.8706-5.165 1-8z"/>
 <path id="path5168" fill="#673530" d="m110 113 3 2-3-2z"/>
 <path id="path5170" fill="#52689b" d="m140 113v5-5z"/>
 <path id="path5172" fill="#5a535d" d="m179 113c0.482 2.364 0.636 2.518 3 3l-3-3z"/>
 <path id="path5174" fill="#673530" d="m118 114-1 3-4-2c3.009 3.58 6.119 4.258 7-1h-2z"/>
 <path id="path5176" fill="#52689b" d="m219 115v22c2.219-5.287 2.219-16.713 0-22z"/>
 <path id="path5178" fill="#ddccde" d="m224 115v3-3z"/>
 <path id="path5180" fill="#6f6c6c" d="m60 116v4-4z"/>
 <path id="path5182" fill="#52689b" d="m158 116 3 2-3-2z"/>
 <path id="path5184" fill="#373e60" d="m160 116 4 3-4-3m22 2h4-4z"/>
 <path id="path5186" fill="#673530" d="m62 118v24c2.662-6.344 1.6999-17.011 2-24h-2z"/>
 <path id="path5188" fill="#8f3b3a" d="m88 118v5h4l-3-1-1-4z"/>
 <path id="path5190" fill="#673530" d="m135 118-1 5c1.318-1.926 1.651-2.766 1-5z"/>
 <path id="path5192" fill="#5a535d" d="m220 118v19c2.02-4.813 2.02-14.187 0-19z"/>
 <path id="path5194" fill="#948f93" d="m224 118v3-3z"/>
 <path id="path5196" fill="#aaa0a4" d="m225 120v14c1.667-3.972 1.667-10.028 0-14z"/>
 <path id="path5198" fill="#948f93" d="m59.333 121.67 0.3334 0.666-0.3334-0.666z"/>
 <path id="path5200" fill="#373e60" d="m170 121 7 1-7-1z"/>
 <path id="path5202" fill="#5a535d" d="m224 121v13c1.591-3.791 1.591-9.209 0-13z"/>
 <path id="path5204" fill="#373e60" d="m138 122-1 4 1-4z"/>
 <path id="path5206" fill="#ddccde" d="m58 123v6c0.9511-2.285 0.9511-3.715 0-6z"/>
 <path id="path5208" fill="#6f6c6c" d="m59 123v6c0.9511-2.285 0.9511-3.715 0-6z"/>
 <path id="path5210" fill="#8f3b3a" d="m63 123v19c2.0196-4.813 2.0196-14.187 0-19z"/>
 <path id="path5212" fill="#373e60" d="m136 126v3-3z"/>
 <path id="path5214" fill="#948f93" d="m58 129v8c1.1614-2.77 1.1614-5.23 0-8z"/>
 <path id="path5216" fill="#5a535d" d="m59 129v8c1.1614-2.77 1.1614-5.23 0-8z"/>
 <path id="path5218" fill="#373e60" d="m135 129-1 5 1-5z"/>
 <path id="path5220" fill="#bdb9b2" d="m19 130 9 1-9-1z"/>
 <path id="path5222" fill="#ddccde" d="m13 132h6-6z"/>
 <path id="path5224" fill="#5a535d" d="m19 131 9 1-9-1z"/>
 <path id="path5226" fill="#948f93" d="m28.667 131.33 0.6666 0.334-0.6666-0.334z"/>
 <path id="path5228" fill="#ddccde" d="m30 131 4 2-4-2z"/>
 <path id="path5230" fill="#6f6c6c" d="m14 133h4-4z"/>
 <path id="path5232" fill="#383136" d="m32 182c5.829 4.851 6.4344 14.656 11.054 20.957 11.557 15.76 25.791 11.1 41.946 11.04v-3c-10.192-0.805-15.924-7.199-25-10 1.8065 4.621 4.5009 7.004 9 9v2c-22.022 3.04-25.092-21.83-34-35l-12 5.562c-30.216 0.53-17.388-65.58 11.961-42.98l9.039 9.42c2.006-6.16-6.792-13.81-12-15.85-10.11-3.96-20.96 0.55-25.954 9.85-5.7609 10.73-5.6468 25.98 1.7542 35.96 4.7838 6.45 18.882 11.06 24.2 3.04z"/>
 <path id="path5234" fill="#8a827b" d="m30.667 132.33 0.6666 0.334-0.6666-0.334z"/>
 <path id="path5236" fill="#bdb9b2" d="m12 133v2l2-2h-2z"/>
 <path id="path5238" fill="#8a827b" d="m33 133 1 1-1-1z"/>
 <path id="path5240" fill="#5a535d" d="m23 134 13 7c-3.4866-4.72-7.133-6.826-13-7z"/>
 <path id="path5242" fill="#aaa0a4" d="m35 134 1 1-1-1z"/>
 <path id="path5244" fill="#6f6c6c" d="m224 134v3-3z"/>
 <path id="path5246" fill="#ddccde" d="m225 134v3-3z"/>
 <path id="path5248" fill="#948f93" d="m11 135 1 1-1-1z"/>
 <path id="path5250" fill="#8a827b" d="m21 135 9 2c-2.8496-1.947-5.5903-1.97-9-2z"/>
 <path id="path5252" fill="#aaa0a4" d="m36 135 1 1-1-1z"/>
 <path id="path5254" fill="#5a535d" d="m132 135-1 5 3-5h-2z"/>
 <path id="path5256" fill="#948f93" d="m10 136 1 1-1-1z"/>
 <path id="path5258" fill="#8a827b" d="m9 146 11-9c-5.4392-1.057-9.3942 4.368-11 9z"/>
 <path id="path5260" fill="#bdb9b2" d="m20 136 8 1-8-1z"/>
 <path id="path5262" fill="#8a827b" d="m37 136 1 1-1-1z"/>
 <path id="path5264" fill="#948f93" d="m9 137 1 1-1-1z"/>
 <path id="path5266" fill="#ddccde" d="m63 210-12.352-19c-5.524-15.25-3.322-61.32-31.648-53.57-17.991 4.922-15.571 38.702 1.0394 43.909 8.7965 2.758 19.596-11.715 12.218-18.581-3.2146-2.992-9.0714 3.629-11.005-0.124-2.9364-5.698 7.5527-9.482 11.458-6.934 10.466 6.828 4.4243 13.652 5.838 23.011 2.135 14.14 10.664 26.58 24.452 31.29z"/>
 <path id="path5268" fill="#aaa0a4" d="m28 137 3 1-3-1z"/>
 <path id="path5270" fill="#948f93" d="m38 137 1 1-1-1z"/>
 <path id="path5272" fill="#ddccde" d="m58 137v7c1.0595-2.534 1.0595-4.466 0-7z"/>
 <path id="path5274" fill="#6f6c6c" d="m59 137v5-5z"/>
 <path id="path5276" fill="#373e60" d="m219 137-1 12c2.167-3.618 2.64-8.091 1-12z"/>
 <path id="path5278" fill="#948f93" d="m224 137v3-3z"/>
 <path id="path5280" fill="#aaa0a4" d="m8 138 1 1-1-1z"/>
 <path id="path5282" fill="#948f93" d="m39 138 1 1-1-1z"/>
 <path id="path5284" fill="#52689b" d="m218 138-5 20c3.847-4.629 7.286-14.144 5-20z"/>
 <path id="path5286" fill="#8a827b" d="m7 139v2l2-2h-2z"/>
 <path id="path5288" fill="#948f93" d="m40 139 1 1-1-1z"/>
 <path id="path5290" fill="#8f3b3a" d="m124 139v3l2-3h-2z"/>
 <path id="path5292" fill="#6f6c6c" d="m41.333 140.67 0.3334 0.666-0.3334-0.666m181.67-0.67v3-3z"/>
 <path id="path5294" fill="#ddccde" d="m224 140v3-3z"/>
 <path id="path5296" fill="#aaa0a4" d="m5 141-1 4 3-4h-2z"/>
 <path id="path5298" fill="#bdb9b2" d="m35 141 6 10c0.7142-4.395-2.6858-7.537-6-10z"/>
 <path id="path5300" fill="#373e60" d="m36 141c5.1958 7.954 9.5454 14.519 11.485 24l2.8897 22c2.1931 5.789 4.2654 14.279 11.625 14v-2c-13.092-12.14-11.409-35.91-16-52l-2 2c-1.913-3.734-3.9193-6.685-8-8z"/>
 <path id="path5302" fill="#aaa0a4" d="m42 141 1 1-1-1z"/>
 <path id="path5304" fill="#948f93" d="m59.333 142.67 0.3334 0.666-0.3334-0.666z"/>
 <path id="path5306" fill="#8f3b3a" d="m64 142v5-5m58 0-2 8h6l-5-1 3-7h-2z"/>
 <path id="path5308" fill="#383136" d="m126 142v6h4l-2-6h-2z"/>
 <path id="path5310" fill="#52689b" d="m128 142v4l2-4h-2z"/>
 <path id="path5312" fill="#aaa0a4" d="m43 143 1 1-1-1m180 0v3-3m-179 1 1 1-1-1m15.333 0.667 0.3334 0.666-0.3334-0.666z"/>
 <path id="path5314" fill="#bdb9b2" d="m3 145-1 5 1-5z"/>
 <path id="path5316" fill="#5a535d" d="m4.3333 145.67 0.33334 0.666-0.33334-0.666z"/>
 <path id="path5318" fill="#6f6c6c" d="m8 145-1 5c1.3182-1.926 1.6513-2.766 1-5z"/>
 <path id="path5320" fill="#948f93" d="m45.333 145.67 0.3334 0.666-0.3334-0.666z"/>
 <path id="path5322" fill="#ddccde" d="m59.333 146.67 0.3334 0.666-0.3334-0.666z"/>
 <path id="path5324" fill="#6f6c6c" d="m60.333 146.67 0.3334 0.666-0.3334-0.666z"/>
 <path id="path5326" fill="#5a535d" d="m129 146 5 4-5-4z"/>
 <path id="path5328" fill="#8a827b" d="m222 146v3-3z"/>
 <path id="path5330" fill="#6f6c6c" d="m3 147v3-3m43.333 1.667 0.3334 0.666-0.3334-0.666z"/>
 <path id="path5332" fill="#bdb9b2" d="m47.333 148.67 0.3334 0.666-0.3334-0.666z"/>
 <path id="path5334" fill="#948f93" d="m60 148v3-3z"/>
 <path id="path5336" fill="#8f3b3a" d="m65 148c0.1842 4.02 0.5288 7.622 4 10l-4-10z"/>
 <path id="path5338" fill="#6f6c6c" d="m221 149v3-3z"/>
 <path id="path5340" fill="#ddccde" d="m1.3333 150.67 0.33334 0.666-0.33334-0.666z"/>
 <path id="path5342" fill="#5a535d" d="m2 150v4-4z"/>
 <path id="path5344" fill="#aaa0a4" d="m42.333 150.67 0.3334 0.666-0.3334-0.666z"/>
 <path id="path5346" fill="#8a827b" d="m47.333 150.67 0.3334 0.666-0.3334-0.666z"/>
 <path id="path5348" fill="#52689b" d="m134 150 8 6c-2.26-3.007-4.337-5.003-8-6z"/>
 <path id="path5350" fill="#8a827b" d="m6 151v3-3m37.333 0.667 0.3334 0.666-0.3334-0.666z"/>
 <path id="path5352" fill="#ddccde" d="m60.333 151.67 0.3334 0.666-0.3334-0.666z"/>
 <path id="path5354" fill="#6f6c6c" d="m61 151 1 6c0.7355-2.433 0.3054-3.819-1-6z"/>
 <path id="path5356" fill="#383136" d="m135 151c1.148 4.113 3.022 5.588 7 7l-7-7z"/>
 <path id="path5358" fill="#bdb9b2" d="m1 152v3-3z"/>
 <path id="path5360" fill="#6f6c6c" d="m5 152v12c1.5124-3.604 1.5124-8.396 0-12z"/>
 <path id="path5362" fill="#948f93" d="m48.333 152.67 0.3334 0.666-0.3334-0.666z"/>
 <path id="path5364" fill="#673530" d="m130 152 7 6c-1.677-3.277-3.583-4.663-7-6z"/>
 <path id="path5366" fill="#8a827b" d="m220.33 152.67 0.334 0.666-0.334-0.666z"/>
 <path id="path5368" fill="#aaa0a4" d="m43.333 153.67 0.3334 0.666-0.3334-0.666z"/>
 <path id="path5370" fill="#6f6c6c" d="m44 153v3-3z"/>
 <path id="path5372" fill="#ddccde" d="m49 153 1 5-1-5z"/>
 <path id="path5374" fill="#aaa0a4" d="m6 154v9c1.2561-2.994 1.2561-6.006 0-9z"/>
 <path id="path5376" fill="#948f93" d="m24 155h8c-2.8519-1.188-5.0604-0.864-8 0z"/>
 <path id="path5378" fill="#ddccde" d="m61.333 154.67 0.3334 0.666-0.3334-0.666z"/>
 <path id="path5380" fill="#6f6c6c" d="m219 154v3-3z"/>
 <path id="path5382" fill="#bdb9b2" d="m220.33 154.67 0.334 0.666-0.334-0.666z"/>
 <path id="path5384" fill="#8a827b" d="m1 155v6c0.9511-2.285 0.95111-3.715 0-6z"/>
 <path id="path5386" fill="#5a535d" d="m26 155 6 1-6-1z"/>
 <path id="path5388" fill="#aaa0a4" d="m32.667 155.33 0.6666 0.334-0.6666-0.334z"/>
 <path id="path5390" fill="#ddccde" d="m0 156v6c0.9511-2.285 0.9511-3.715 0-6z"/>
 <path id="path5392" fill="#8a827b" d="m23 156-1 4 4-3-3-1z"/>
 <path id="path5394" fill="#373e60" d="m23 163c11.525-9.462 12.756 7.234 10 15 1.6611-0.208 1.5399-0.495 2 1 3.3828-5.126 5.1595-15.679 0.4861-20.682-4.96-5.31-11.79-1.42-12.486 4.68z"/>
 <path id="path5396" fill="#aaa0a4" d="m44.333 156.67 0.3334 0.666-0.3334-0.666z"/>
 <path id="path5398" fill="#8a827b" d="m49.333 156.67 0.3334 0.666-0.3334-0.666m-4.333 0.33v3-3z"/>
 <path id="path5400" fill="#ddccde" d="m62.333 157.67 0.3334 0.666-0.3334-0.666z"/>
 <path id="path5402" fill="#8a827b" d="m218 157-1 4c1.303-1.668 1.553-1.992 1-4z"/>
 <path id="path5404" fill="#ddccde" d="m219.33 157.67 0.334 0.666-0.334-0.666z"/>
 <path id="path5406" fill="#bdb9b2" d="m21 158-1 6c1.3054-2.181 1.7355-3.567 1-6m29.333 0.667 0.3334 0.666-0.3334-0.666z"/>
 <path id="path5408" fill="#6f6c6c" d="m63 158 1 4-1-4z"/>
 <path id="path5410" fill="#673530" d="m68 158 2 8c0.6282-2.986-0.3903-5.438-2-8z"/>
 <path id="path5412" fill="#8f3b3a" d="m137 158 3 4-3-4z"/>
 <path id="path5414" fill="#373e60" d="m142 158 5 6-5-6z"/>
 <path id="path5416" fill="#52689b" d="m212 158-8 15c4.051-3.135 9.444-9.578 8-15z"/>
 <path id="path5418" fill="#8a827b" d="m25 162 6-2c-2.8804-1.098-4.3502-0.555-6 2z"/>
 <path id="path5420" fill="#bdb9b2" d="m37 159 2 14c1.9517-4.651 1.2915-10.184-2-14z"/>
 <path id="path5422" fill="#5a535d" d="m22 160-1 4c2.7386-0.211 3.422-0.303 4-3l-1 2-2-3z"/>
 <path id="path5424" fill="#bdb9b2" d="m25 164 7-2c-2.6849-3.01-5.3442-1.005-7 2z"/>
 <path id="path5426" fill="#8a827b" d="m50.333 160.67 0.3334 0.666-0.3334-0.666z"/>
 <path id="path5428" fill="#bdb9b2" d="m1 161v5-5z"/>
 <path id="path5430" fill="#8a827b" d="m46 161v3-3z"/>
 <path id="path5432" fill="#373e60" d="m166 171 16-9c-5.086-1.611-13.109 4.982-16 9z"/>
 <path id="path5434" fill="#ddccde" d="m217.33 161.67 0.334 0.666-0.334-0.666z"/>
 <path id="path5436" fill="#948f93" d="m33.333 162.67 0.3334 0.666-0.3334-0.666z"/>
 <path id="path5438" fill="#5a535d" d="m50 162v5-5z"/>
 <path id="path5440" fill="#bdb9b2" d="m64.333 162.67 0.3334 0.666-0.3334-0.666z"/>
 <path id="path5442" fill="#383136" d="m151 176-1-7c-1.524 3.905 0.178 8.014 1 12 9.525-3.551 27.782-8.034 31-19-10.915 2.845-18.742 13.641-31 14z"/>
 <path id="path5444" fill="#52689b" d="m182 162c-1.829 3.753-4.489 5.797-8 8 4.463 0.948 9.451-3.413 8-8z"/>
 <path id="path5446" fill="#bdb9b2" d="m216.33 162.67 0.334 0.666-0.334-0.666z"/>
 <path id="path5448" fill="#8a827b" d="m6 163v3-3z"/>
 <path id="path5450" fill="#6f6c6c" d="m38 163v11c1.4309-3.41 1.4309-7.59 0-11z"/>
 <path id="path5452" fill="#bdb9b2" d="m51 163v3-3z"/>
 <path id="path5454" fill="#948f93" d="m65.333 163.67 0.3334 0.666-0.3334-0.666z"/>
 <path id="path5456" fill="#8a827b" d="m21 164 4 1-4-1z"/>
 <path id="path5458" fill="#aaa0a4" d="m34 164v9c1.2561-2.994 1.2561-6.006 0-9z"/>
 <path id="path5460" fill="#bdb9b2" d="m46 164v8c1.1614-2.77 1.1614-5.23 0-8z"/>
 <path id="path5462" fill="#6f6c6c" d="m47 164v7c1.0595-2.534 1.0595-4.466 0-7z"/>
 <path id="path5464" fill="#673530" d="m142 164 4 4c-0.97-2.492-1.475-3.146-4-4z"/>
 <path id="path5466" fill="#948f93" d="m215 164 1 1-1-1z"/>
 <path id="path5468" fill="#ddccde" d="m65.333 165.67 0.3334 0.666-0.3334-0.666z"/>
 <path id="path5470" fill="#8f3b3a" d="m71 165 2 3-2-3z"/>
 <path id="path5472" fill="#ddccde" d="m1 166 1 5-1-5z"/>
 <path id="path5474" fill="#8a827b" d="m2 166v3-3z"/>
 <path id="path5476" fill="#aaa0a4" d="m7 166 1 6c0.7355-2.433 0.3054-3.819-1-6z"/>
 <path id="path5478" fill="#948f93" d="m51 166v3-3z"/>
 <path id="path5480" fill="#ddccde" d="m52 166v4-4z"/>
 <path id="path5482" fill="#bdb9b2" d="m66.333 166.67 0.3334 0.666-0.3334-0.666z"/>
 <path id="path5484" fill="#373e60" d="m148 166 2 3-2-3z"/>
 <path id="path5486" fill="#aaa0a4" d="m214 166 1 1-1-1z"/>
 <path id="path5488" fill="#5a535d" d="m35 167v6c0.9511-2.285 0.9511-3.715 0-6z"/>
 <path id="path5490" fill="#948f93" d="m67 167 1 4-1-4z"/>
 <path id="path5492" fill="#6f6c6c" d="m213 167 1 1-1-1z"/>
 <path id="path5494" fill="#673530" d="m72 168c0.44 3.206 0.7836 5.059 4 6l-4-6z"/>
 <path id="path5496" fill="#6f6c6c" d="m3 169 1 5-1-5z"/>
 <path id="path5498" fill="#5a535d" d="m7.3333 169.67 0.33334 0.666-0.33334-0.666m43.667-0.67v8c1.1614-2.77 1.1614-5.23 0-8z"/>
 <path id="path5500" fill="#ddccde" d="m67.333 169.67 0.3334 0.666-0.3334-0.666z"/>
 <path id="path5502" fill="#673530" d="m146 169 1 8h-13l14 1c-0.011-3.466 0.125-6.196-2-9z"/>
 <path id="path5504" fill="#8a827b" d="m212 169 1 1-1-1z"/>
 <path id="path5506" fill="#bdb9b2" d="m52 170v6c0.9511-2.285 0.9511-3.715 0-6z"/>
 <path id="path5508" fill="#8f3b3a" d="m75 170 1 4-1-4z"/>
 <path id="path5510" fill="#52689b" d="m164.67 170.33 0.666 0.334-0.666-0.334z"/>
 <path id="path5512" fill="#6f6c6c" d="m211 170 1 1-1-1z"/>
 <path id="path5514" fill="#948f93" d="m47 171v9c1.2561-2.994 1.2561-6.006 0-9z"/>
 <path id="path5516" fill="#ddccde" d="m68 171 2 3-2-3z"/>
 <path id="path5518" fill="#6f6c6c" d="m69 171 1 1-1-1z"/>
 <path id="path5520" fill="#5a535d" d="m159 173 5-1-5 1z"/>
 <path id="path5522" fill="#52689b" d="m171 174 3-3-3 3z"/>
 <path id="path5524" fill="#ddccde" d="m3.3333 172.67 0.33334 0.666-0.33334-0.666z"/>
 <path id="path5526" fill="#8a827b" d="m9.3333 172.67 0.3334 0.666-0.3334-0.666z"/>
 <path id="path5528" fill="#52689b" d="m151 172c0.211 2.739 0.303 3.422 3 4l-3-4z"/>
 <path id="path5530" fill="#373e60" d="m168 174 3-2-3 2z"/>
 <path id="path5532" fill="#8a827b" d="m210 172 1 1-1-1z"/>
 <path id="path5534" fill="#6f6c6c" d="m34 173-4 7c2.4196-2.023 4.2715-3.759 4-7z"/>
 <path id="path5536" fill="#373e60" d="m194 184 9-5 2-6c-4.698 1.76-8.606 6.664-11 11z"/>
 <path id="path5538" fill="#bdb9b2" d="m4.3333 174.67 0.33334 0.666-0.33334-0.666z"/>
 <path id="path5540" fill="#6f6c6c" d="m10.333 174.67 0.3334 0.666-0.3334-0.666z"/>
 <path id="path5542" fill="#5a535d" d="m37 174-1 5c1.3182-1.926 1.6513-2.766 1-5z"/>
 <path id="path5544" fill="#aaa0a4" d="m38.333 174.67 0.3334 0.666-0.3334-0.666z"/>
 <path id="path5546" fill="#8f3b3a" d="m115 174v5-5m4 0 4 1-4-1z"/>
 <path id="path5548" fill="#373e60" d="m154 175c2.046 0.751 2.596 0.656 4-1l-4 1z"/>
 <path id="path5550" fill="#52689b" d="m166 175h4-4z"/>
 <path id="path5552" fill="#ddccde" d="m209.33 174.67 0.334 0.666-0.334-0.666z"/>
 <path id="path5554" fill="#6f6c6c" d="m5 175 1 1-1-1z"/>
 <path id="path5556" fill="#bdb9b2" d="m11 175 5 4-5-4z"/>
 <path id="path5558" fill="#aaa0a4" d="m71 175 1 1-1-1z"/>
 <path id="path5560" fill="#948f93" d="m208 175 1 1-1-1z"/>
 <path id="path5562" fill="#ddccde" d="m5.3333 176.67 0.33334 0.666-0.33334-0.666z"/>
 <path id="path5564" fill="#5a535d" d="m11 176 3 3-3-3z"/>
 <path id="path5566" fill="#8a827b" d="m52 176v4-4z"/>
 <path id="path5568" fill="#ddccde" d="m53 176v4-4z"/>
 <path id="path5570" fill="#bdb9b2" d="m72.333 176.67 0.3334 0.666-0.3334-0.666z"/>
 <path id="path5572" fill="#8f3b3a" d="m126 176 8 1-8-1z"/>
 <path id="path5574" fill="#52689b" d="m161 177h5-5z"/>
 <path id="path5576" fill="#948f93" d="m207 176 1 1-1-1z"/>
 <path id="path5578" fill="#8a827b" d="m6 177 1 1-1-1z"/>
 <path id="path5580" fill="#aaa0a4" d="m37 177v3-3z"/>
 <path id="path5582" fill="#8a827b" d="m48 177v7c1.0595-2.534 1.0595-4.466 0-7z"/>
 <path id="path5584" fill="#948f93" d="m206 177 1 1-1-1z"/>
 <path id="path5586" fill="#8a827b" d="m7 178 1 1-1-1z"/>
 <path id="path5588" fill="#aaa0a4" d="m73 178 1 1-1-1z"/>
 <path id="path5590" fill="#5a535d" d="m158.67 178.33 0.666 0.334-0.666-0.334z"/>
 <path id="path5592" fill="#6f6c6c" d="m205 178-1 2 1-2z"/>
 <path id="path5594" fill="#ddccde" d="m7.3333 179.67 0.33334 0.666-0.33334-0.666z"/>
 <path id="path5596" fill="#8a827b" d="m14.667 179.33 0.6666 0.334-0.6666-0.334z"/>
 <path id="path5598" fill="#948f93" d="m28 179v2l2-2h-2m46 0 1 1-1-1z"/>
 <path id="path5600" fill="#5a535d" d="m119 181 4-1c-2.046-0.751-2.596-0.656-4 1m32 2 7-3c-3.334-1.147-5.284 0.06-7 3z"/>
 <path id="path5602" fill="#bdb9b2" d="m205 179 1 1-1-1z"/>
 <path id="path5604" fill="#aaa0a4" d="m8 180 1 1-1-1z"/>
 <path id="path5606" fill="#948f93" d="m16.667 180.33 0.6666 0.334-0.6666-0.334z"/>
 <path id="path5608" fill="#8a827b" d="m38.333 180.67 0.3334 0.666-0.3334-0.666z"/>
 <path id="path5610" fill="#bdb9b2" d="m39 180v3-3m14 0v3-3z"/>
 <path id="path5612" fill="#948f93" d="m75 180 1 1-1-1z"/>
 <path id="path5614" fill="#aaa0a4" d="m120 180 3 3c0.951-2.507-0.652-2.706-3-3z"/>
 <path id="path5616" fill="#8a827b" d="m124 180v3-3z"/>
 <path id="path5618" fill="#6f6c6c" d="m203 180 1 1-1-1z"/>
 <path id="path5620" fill="#bdb9b2" d="m9 181 1 1-1-1z"/>
 <path id="path5622" fill="#8a827b" d="m18.667 181.33 0.6666 0.334-0.6666-0.334z"/>
 <path id="path5624" fill="#6f6c6c" d="m26.667 181.33 0.6666 0.334-0.6666-0.334z"/>
 <path id="path5626" fill="#ddccde" d="m75 181 3 3-3-3z"/>
 <path id="path5628" fill="#6f6c6c" d="m117 184 3-3-3 3z"/>
 <path id="path5630" fill="#ddccde" d="m98 212c8.517-2.597 22.714-22.609 25-31-8.623 2.531-22.771 22.428-25 31z"/>
 <path id="path5632" fill="#8f3b3a" d="m129 181-11 17 14.09-13.93 12.91-0.07l-2 19-24-1c7.04 3.743 17.226 2 25 2l3-23h-18z"/>
 <path id="path5634" fill="#aaa0a4" d="m203 181 1 1-1-1z"/>
 <path id="path5636" fill="#6f6c6c" d="m20 182 6 1-6-1m12.667 0.333 0.6666 0.334-0.6666-0.334z"/>
 <path id="path5638" fill="#5a535d" d="m38 182v4-4z"/>
 <path id="path5640" fill="#6f6c6c" d="m77 182 1 1-1-1z"/>
 <path id="path5642" fill="#673530" d="m83 182 3 3-3-3z"/>
 <path id="path5644" fill="#6f6c6c" d="m201 182-5 6c2.408-1.737 4.303-3.095 5-6z"/>
 <path id="path5646" fill="#ddccde" d="m201 185 3-3-3 3z"/>
 <path id="path5648" fill="#aaa0a4" d="m12 183 1 1-1-1m20 0 2 3c1.1178-2.14 0.2508-2.527-2-3z"/>
 <path id="path5650" fill="#948f93" d="m39 183v3-3z"/>
 <path id="path5652" fill="#6f6c6c" d="m53.333 183.67 0.3334 0.666-0.3334-0.666z"/>
 <path id="path5654" fill="#ddccde" d="m54 183v3-3z"/>
 <path id="path5656" fill="#6f6c6c" d="m98 213c3.967 0.82 6.301-3.074 8.525-6.001l18.48-24c-12.28 5.848-15.43 23.504-27 30z"/>
 <path id="path5658" fill="#673530" d="m127 183-1 4 3-4h-2z"/>
 <path id="path5660" fill="#ce4742" d="m117 201c8.612 2.074 17.202 2 26 2l2-19-12.907-0.382c-4.99 1.86-12.87 12.72-15.09 17.38z"/>
 <path id="path5662" fill="#52689b" d="m151 183v7c1.059-2.534 1.059-4.466 0-7z"/>
 <path id="path5664" fill="#8a827b" d="m13.667 184.33 0.6666 0.334-0.6666-0.334z"/>
 <path id="path5666" fill="#6f6c6c" d="m30 184 1 1-1-1z"/>
 <path id="path5668" fill="#aaa0a4" d="m31 184 1 1-1-1z"/>
 <path id="path5670" fill="#5a535d" d="m35.333 184.67 0.3334 0.666-0.3334-0.666z"/>
 <path id="path5672" fill="#8a827b" d="m49 184v3-3z"/>
 <path id="path5674" fill="#bdb9b2" d="m78 184 1 1-1-1z"/>
 <path id="path5676" fill="#948f93" d="m108 196 10-12c-4.773 2.424-7.941 7.13-10 12z"/>
 <path id="path5678" fill="#373e60" d="m150 184c-0.962 7.448-6.116 19.635 5 20l-6-1c0.123-5.961 3.276-13.42 1-19z"/>
 <path id="path5680" fill="#52689b" d="m190 185h4-4z"/>
 <path id="path5682" fill="#aaa0a4" d="m200 184 1 1-1-1m-185.33 1.333 0.6666 0.334-0.6666-0.334z"/>
 <path id="path5684" fill="#5a535d" d="m16.667 185.33 0.6666 0.334-0.6666-0.334z"/>
 <path id="path5686" fill="#8a827b" d="m28.667 185.33 0.6666 0.334-0.6666-0.334z"/>
 <path id="path5688" fill="#ddccde" d="m28 186h4-4z"/>
 <path id="path5690" fill="#bdb9b2" d="m79 185 1 1-1-1z"/>
 <path id="path5692" fill="#8f3b3a" d="m86.667 185.33 0.6666 0.334-0.6666-0.334z"/>
 <path id="path5694" fill="#aaa0a4" d="m199 185 1 1-1-1z"/>
 <path id="path5696" fill="#ddccde" d="m15 186 3 1-3-1z"/>
 <path id="path5698" fill="#8a827b" d="m18.667 186.33 0.6666 0.334-0.6666-0.334z"/>
 <path id="path5700" fill="#6f6c6c" d="m20 186 8 1-8-1z"/>
 <path id="path5702" fill="#948f93" d="m35 186v3-3z"/>
 <path id="path5704" fill="#6f6c6c" d="m54 186v3-3z"/>
 <path id="path5706" fill="#aaa0a4" d="m80 186 1 1-1-1z"/>
 <path id="path5708" fill="#8f3b3a" d="m88 186 5 4-5-4z"/>
 <path id="path5710" fill="#673530" d="m109 186-3 6c2.153-1.885 3.41-3.112 3-6z"/>
 <path id="path5712" fill="#52689b" d="m187 189 3-3-3 3z"/>
 <path id="path5714" fill="#ddccde" d="m196 189 4-3-4 3z"/>
 <path id="path5716" fill="#bdb9b2" d="m18 187 10 1-10-1z"/>
 <path id="path5718" fill="#8a827b" d="m40.333 187.67 0.3334 0.666-0.3334-0.666z"/>
 <path id="path5720" fill="#bdb9b2" d="m55 187v3-3m26 0 1 1-1-1m-40 1 1 5c0.6513-2.234 0.3182-3.074-1-5z"/>
 <path id="path5722" fill="#948f93" d="m50.333 188.67 0.3334 0.666-0.3334-0.666z"/>
 <path id="path5724" fill="#8a827b" d="m195 188 1 1-1-1z"/>
 <path id="path5726" fill="#ddccde" d="m35 189 1 5-1-5z"/>
 <path id="path5728" fill="#5a535d" d="m40 189 1 4-1-4m11 0 1 4c0.553-2.008 0.303-2.332-1-4z"/>
 <path id="path5730" fill="#8a827b" d="m193 189v2l2-2h-2z"/>
 <path id="path5732" fill="#aaa0a4" d="m36.333 190.67 0.3334 0.666-0.3334-0.666z"/>
 <path id="path5734" fill="#bdb9b2" d="m50.333 190.67 0.3334 0.666-0.3334-0.666z"/>
 <path id="path5736" fill="#aaa0a4" d="m56.333 190.67 0.3334 0.666-0.3334-0.666z"/>
 <path id="path5738" fill="#948f93" d="m85 190 1 1-1-1z"/>
 <path id="path5740" fill="#8f3b3a" d="m94 190v2h2v-2h-2z"/>
 <path id="path5742" fill="#373e60" d="m176 196c4.181-1.014 6.639-2.359 9-6-3.332 1.308-6.853 3.107-9 6z"/>
 <path id="path5744" fill="#aaa0a4" d="m86 191 1 1-1-1z"/>
 <path id="path5746" fill="#8a827b" d="m191 191 1 1-1-1z"/>
 <path id="path5748" fill="#aaa0a4" d="m37.333 192.67 0.3334 0.666-0.3334-0.666z"/>
 <path id="path5750" fill="#948f93" d="m51 192 2 3-2-3m6.3333 0.667 0.3334 0.666-0.3334-0.666z"/>
 <path id="path5752" fill="#aaa0a4" d="m87 192 1 1-1-1z"/>
 <path id="path5754" fill="#8a827b" d="m190 192 1 1-1-1m-148 1 2 3-2-3z"/>
 <path id="path5756" fill="#673530" d="m97 193c1.961 2.723 3.699 2.893 7 3l-7-3z"/>
 <path id="path5758" fill="#8a827b" d="m187 195 3-2-3 2m-128.67-0.333 0.3334 0.666-0.3334-0.666z"/>
 <path id="path5760" fill="#948f93" d="m90 194 1 1-1-1z"/>
 <path id="path5762" fill="#bdb9b2" d="m38.333 195.67 0.3334 0.666-0.3334-0.666z"/>
 <path id="path5764" fill="#aaa0a4" d="m53 195 4 6-4-6m38 0 1 1-1-1z"/>
 <path id="path5766" fill="#5a535d" d="m92 195 3 2-3-2z"/>
 <path id="path5768" fill="#52689b" d="m174.67 195.33 0.666 0.334-0.666-0.334z"/>
 <path id="path5770" fill="#aaa0a4" d="m185.67 195.33 0.666 0.334-0.666-0.334z"/>
 <path id="path5772" fill="#948f93" d="m39.333 196.67 0.3334 0.666-0.3334-0.666z"/>
 <path id="path5774" fill="#8a827b" d="m44 196 2 3-2-3z"/>
 <path id="path5776" fill="#6f6c6c" d="m59.333 196.67 0.3334 0.666-0.3334-0.666m46.667-0.67v2l2-2h-2z"/>
 <path id="path5778" fill="#52689b" d="m149 196v7h7l-6-1-1-6z"/>
 <path id="path5780" fill="#373e60" d="m181 198 3-1c-1.778-0.955-2.021-0.766-3 1z"/>
 <path id="path5782" fill="#bdb9b2" d="m184.67 196.33 0.666 0.334-0.666-0.334m-124.67 0.67l1 1-1-1z"/>
 <path id="path5784" fill="#6f6c6c" d="m94.667 197.33 0.6666 0.334-0.6666-0.334z"/>
 <path id="path5786" fill="#383136" d="m103 197c0 2.795-1.48 2.265-4 2l-6.0154 9-3.5602 5.83c-2.5791 3.98-3.4409 12.14 3.9961 8.846l21.58-17.68-4-1 4-3c-6.862-2.171-8.979 8.436-14.076 11.118-6.4005 3.369-1.253-7.198 0.372-8.862l4.7-6.26h-3z"/>
 <path id="path5788" fill="#673530" d="m117 197c-1.02 2.899-1.228 4.308 2 5l-2-5z"/>
 <path id="path5790" fill="#bdb9b2" d="m182.67 197.33 0.666 0.334-0.666-0.334z"/>
 <path id="path5792" fill="#ddccde" d="m39.333 198.67 0.3334 0.666-0.3334-0.666z"/>
 <path id="path5794" fill="#6f6c6c" d="m96 198 2 3c0.699-1.993-0.0057-2.153-2-3z"/>
 <path id="path5796" fill="#aaa0a4" d="m105 198-3 6 5-6h-2z"/>
 <path id="path5798" fill="#52689b" d="m166.67 198.33 0.666 0.334-0.666-0.334z"/>
 <path id="path5800" fill="#ddccde" d="m179 200 3-2-3 2z"/>
 <path id="path5802" fill="#948f93" d="m40 199 1 1-1-1z"/>
 <path id="path5804" fill="#bdb9b2" d="m46 199c3.7797 5.321 8.6158 9.351 15 11l-15-11m51 0v3-3z"/>
 <path id="path5806" fill="#948f93" d="m175 200h4-4z"/>
 <path id="path5808" fill="#bdb9b2" d="m41.333 200.67 0.3334 0.666-0.3334-0.666z"/>
 <path id="path5810" fill="#8a827b" d="m62 200 1 1-1-1z"/>
 <path id="path5812" fill="#5a535d" d="m156 203 10-2c-3.382-1.32-7.614-0.836-10 2m-109-2c1.7911 4.514 4.3762 6.615 9 8l-9-8m10 0 5 4-5-4m6 0 4 4-4-4z"/>
 <path id="path5814" fill="#8a827b" d="m171 201 3 1-3-1z"/>
 <path id="path5816" fill="#ddccde" d="m174.67 201.33 0.666 0.334-0.666-0.334z"/>
 <path id="path5818" fill="#948f93" d="m42 202 1 1-1-1z"/>
 <path id="path5820" fill="#bdb9b2" d="m57 202 3 4-3-4z"/>
 <path id="path5822" fill="#6f6c6c" d="m96 202v2l2-2h-2m72 0 3 1-3-1z"/>
 <path id="path5824" fill="#ddccde" d="m171.67 202.33 0.666 0.334-0.666-0.334z"/>
 <path id="path5826" fill="#948f93" d="m43 203 1 1-1-1m52.333 0.667 0.3334 0.666-0.3334-0.666z"/>
 <path id="path5828" fill="#5a535d" d="m100 203-2 5 4-5h-2m61 1h5-5z"/>
 <path id="path5830" fill="#8a827b" d="m166.67 203.33 0.666 0.334-0.666-0.334z"/>
 <path id="path5832" fill="#bdb9b2" d="m168.67 203.33 0.666 0.334-0.666-0.334z"/>
 <path id="path5834" fill="#673530" d="m129 204 15 1-15-1z"/>
 <path id="path5836" fill="#aaa0a4" d="m164.67 204.33 0.666 0.334-0.666-0.334z"/>
 <path id="path5838" fill="#ddccde" d="m166.67 204.33 0.666 0.334-0.666-0.334m-122.67 0.67l3 3-3-3z"/>
 <path id="path5840" fill="#6f6c6c" d="m60 205 8 7c0.0934-3.793-4.8701-5.7-8-7z"/>
 <path id="path5842" fill="#aaa0a4" d="m68 205 3 2-3-2m26 0 1 1-1-1z"/>
 <path id="path5844" fill="#6f6c6c" d="m112 205 8 2-8-2z"/>
 <path id="path5846" fill="#5a535d" d="m157 205 3 1-3-1z"/>
 <path id="path5848" fill="#948f93" d="m160 205 3 1-3-1m-61 1v2l2-2h-2z"/>
 <path id="path5850" fill="#bdb9b2" d="m111 208 6-1c-2.529-1.039-4.176-1.093-6 1z"/>
 <path id="path5852" fill="#8a827b" d="m155 206 3 1-3-1z"/>
 <path id="path5854" fill="#bdb9b2" d="m158.67 206.33 0.666 0.334-0.666-0.334z"/>
 <path id="path5856" fill="#8a827b" d="m47 207 1 1-1-1z"/>
 <path id="path5858" fill="#aaa0a4" d="m71.667 207.33 0.6666 0.334-0.6666-0.334z"/>
 <path id="path5860" fill="#6f6c6c" d="m93 207 1 1-1-1z"/>
 <path id="path5862" fill="#948f93" d="m110 207 1 1-1-1z"/>
 <path id="path5864" fill="#8a827b" d="m120.67 207.33 0.666 0.334-0.666-0.334z"/>
 <path id="path5866" fill="#6f6c6c" d="m122 207 6 1-6-1z"/>
 <path id="path5868" fill="#5a535d" d="m128 207c5.715 2.398 13.831 1 20 1-5.715-2.398-13.831-1-20-1z"/>
 <path id="path5870" fill="#8a827b" d="m148 207 5 1-5-1z"/>
 <path id="path5872" fill="#bdb9b2" d="m153.67 207.33 0.666 0.334-0.666-0.334z"/>
 <path id="path5874" fill="#ddccde" d="m155 207 3 1-3-1z"/>
 <path id="path5876" fill="#5a535d" d="m48.667 208.33 0.6666 0.334-0.6666-0.334z"/>
 <path id="path5878" fill="#bdb9b2" d="m63 208-1 3h4l-3-3z"/>
 <path id="path5880" fill="#aaa0a4" d="m73.667 208.33 0.6666 0.334-0.6666-0.334z"/>
 <path id="path5882" fill="#ddccde" d="m75 208 5 1-5-1z"/>
 <path id="path5884" fill="#948f93" d="m92 208 1 1-1-1z"/>
 <path id="path5886" fill="#6f6c6c" d="m97 208-1 4 3-4h-2z"/>
 <path id="path5888" fill="#948f93" d="m109 208 1 1-1-1z"/>
 <path id="path5890" fill="#bdb9b2" d="m123 208 5 1-5-1z"/>
 <path id="path5892" fill="#8a827b" d="m128 208c4.974 2.087 11.638 1 17 1-4.974-2.087-11.638-1-17-1z"/>
 <path id="path5894" fill="#bdb9b2" d="m145 208 5 1-5-1z"/>
 <path id="path5896" fill="#948f93" d="m49 209 1 1-1-1z"/>
 <path id="path5898" fill="#8a827b" d="m57.667 209.33 0.6666 0.334-0.6666-0.334z"/>
 <path id="path5900" fill="#5a535d" d="m74 209 3 1-3-1z"/>
 <path id="path5902" fill="#948f93" d="m77 209 3 1-3-1z"/>
 <path id="path5904" fill="#bdb9b2" d="m80 209 6 1-6-1z"/>
 <path id="path5906" fill="#948f93" d="m91 209 1 1-1-1z"/>
 <path id="path5908" fill="#6f6c6c" d="m108 209 1 1-1-1z"/>
 <path id="path5910" fill="#ddccde" d="m128 209c4.974 2.087 11.638 1 17 1-4.974-2.087-11.638-1-17-1z"/>
 <path id="path5912" fill="#6f6c6c" d="m50.667 210.33 0.6666 0.334-0.6666-0.334m8.333-0.33l3 1-3-1z"/>
 <path id="path5914" fill="#948f93" d="m64 211c2.0464 0.751 2.5957 0.656 4-1l-4 1z"/>
 <path id="path5916" fill="#5a535d" d="m80 210 5 4 1-4h-6z"/>
 <path id="path5918" fill="#948f93" d="m90 210v3-3z"/>
 <path id="path5920" fill="#aaa0a4" d="m97.333 210.67 0.3334 0.666-0.3334-0.666m10.667-0.67l1 1-1-1z"/>
 <path id="path5922" fill="#bdb9b2" d="m51 211 1 1-1-1z"/>
 <path id="path5924" fill="#6f6c6c" d="m62.667 211.33 0.6666 0.334-0.6666-0.334z"/>
 <path id="path5926" fill="#aaa0a4" d="m86 211v3-3z"/>
 <path id="path5928" fill="#948f93" d="m107 211 1 1-1-1z"/>
 <path id="path5930" fill="#aaa0a4" d="m52.667 212.33 0.6666 0.334-0.6666-0.334z"/>
 <path id="path5932" fill="#5a535d" d="m54.667 212.33 0.6666 0.334-0.6666-0.334m9.333-0.33l4 1-4-1z"/>
 <path id="path5934" fill="#ddccde" d="m85 215 3 1 2-4-5 3z"/>
 <path id="path5936" fill="#aaa0a4" d="m98 212 3 1-3-1z"/>
 <path id="path5938" fill="#8a827b" d="m106 212 1 1-1-1z"/>
 <path id="path5940" fill="#aaa0a4" d="m55 213 1 1-1-1z"/>
 <path id="path5942" fill="#8a827b" d="m89 213 1 1-1-1z"/>
 <path id="path5944" fill="#6f6c6c" d="m105 213 1 1-1-1z"/>
 <path id="path5946" fill="#aaa0a4" d="m56.667 214.33 0.6666 0.334-0.6666-0.334z"/>
 <path id="path5948" fill="#5a535d" d="m58.667 214.33 0.6666 0.334-0.6666-0.334z"/>
 <path id="path5950" fill="#6f6c6c" d="m76 216 9-1c-3.0891-1.296-6.6925-1.641-9 1z"/>
 <path id="path5952" fill="#5a535d" d="m88 214v2l2-2h-2z"/>
 <path id="path5954" fill="#bdb9b2" d="m58.667 215.33 0.6666 0.334-0.6666-0.334z"/>
 <path id="path5956" fill="#8a827b" d="m60.667 215.33 0.6666 0.334-0.6666-0.334z"/>
 <path id="path5958" fill="#bdb9b2" d="m77 215 8 1-8-1z"/>
 <path id="path5960" fill="#948f93" d="m104 215 1 1-1-1z"/>
 <path id="path5962" fill="#8a827b" d="m62 216 5 1-5-1z"/>
 <path id="path5964" fill="#5a535d" d="m67 216 8 1-8-1z"/>
 <path id="path5966" fill="#ddccde" d="m73 217h4-4z"/>
 <path id="path5968" fill="#bdb9b2" d="m103 216v2l2-2h-2z"/>
 <path id="path5970" fill="#ddccde" d="m63 217 4 1-4-1z"/>
 <path id="path5972" fill="#bdb9b2" d="m67 217 6 1-6-1z"/>
 <path id="path5974" fill="#948f93" d="m85 217c0.2206 3.007 0.4547 4.365 3 6l-1-6h-2z"/>
 <path id="path5976" fill="#8a827b" d="m102 217 1 1-1-1z"/>
 <path id="path5978" fill="#6f6c6c" d="m99 220 3-1c-1.778-0.955-2.021-0.766-3 1z"/>
 <path id="path5980" fill="#ddccde" d="m100 219h4-4z"/>
 <path id="path5982" fill="#bdb9b2" d="m98 220v2l2-2h-2z"/>
 <path id="path5984" fill="#5a535d" d="m89 224c3.4313 1.324 5.8107-0.647 9-2-3.271-1.07-5.8076 1.14-9 2z"/>
 <path id="path5986" fill="#aaa0a4" d="m95 222 3 1-3-1z"/>
 <path id="path5988" fill="#948f93" d="m88 223 1 1-1-1z"/>
 <path id="path5990" fill="#ddccde" d="m94.333 223.67 0.3334 0.666-0.3334-0.666z"/>
 <path id="path5992" fill="#aaa0a4" d="m90 225 4 1-4-1z"/>
</svg>
