<svg xmlns:svg="http://www.w3.org/2000/svg" xmlns="http://www.w3.org/2000/svg" xmlns:inkscape="http://www.inkscape.org/namespaces/inkscape" width="278.33884" height="278.33884" id="svg5074" version="1.1">
 <g id="layer4" transform="translate(22.927 21.2)">
  <circle id="path21991" fill-rule="evenodd" cx="116.24" stroke="#000" cy="117.97" r="137.55" stroke-width="3.2337" fill="#fff"/>
 </g>
 <path id="path5078" fill="#bdb9b2" d="m124.23 23.2-1 5 3-4-2-1m41 0 6 1-6-1z"/>
 <path id="path5080" fill="#6f6c6c" d="m124.23 24.2 3 2-3-2z"/>
 <path id="path5082" fill="#aaa0a4" d="m163.89 24.533 0.666 0.33334-0.666-0.33334z"/>
 <path id="path5084" fill="#5a535d" d="m165.23 24.2 5 3c1.235-3.2752-2.501-2.9586-5-3z"/>
 <path id="path5086" fill="#aaa0a4" d="m171.23 24.2v3-3z"/>
 <path id="path5088" fill="#3e2d25" d="m124.23 25.2c2.118 14.409-1.1672 47.669 17 52v3c-51.073 11.122-69.466 75.187-45.324 117 5.2395 9.074 13.35 16.491 22.324 21.667 2.6196 1.511 9.261 6.579 10 1.333 6.436-0.508 10.141-8.118 13.667-13 1.284-1.778 2.552-5.266 5.333-4.667 9.71 2.092-15.559 19.63-7 20.667l-4 4c13.927 2.396 26.701 3 41 3-10.939-15.021 9.135-41.23-15-51 3.7 8.607 10.884 11.511 11 22l-32-4c-0.968 8.693-9.575 13.959-12 22-9.6624-0.738-22.258-13.554-26-22h-5l-7.2191-21c-4.9181-17.332-5.1774-33.316 2.7469-49.91 7.7344-16.197 21.084-26.633 35.147-36.75 5.416-3.8964 15.235-9.6746 22.137-6.2508 5.479 2.7183 7.93 12.616 10.188 17.911 3.223-7.6975-8.849-19.626-1-24l-5-1c8.531-33.437 52.634-16.462 75-16v-2c-19.555-0.8396-40.996-10.566-60-2.1906-7.53 3.3187-14.315 7.4827-16 16.191l-4-3c-4.385 9.3679-11.921 5.1166-16.633-3.0039-7.353-12.67-1.876-27.982-7.367-40.996h-2z"/>
 <path id="path5090" fill="#aaa0a4" d="m127.56 25.867 0.334 0.66666-0.334-0.66666z"/>
 <path id="path5092" fill="#948f93" d="m160.23 27.2 3-1-3 1z"/>
 <path id="path5094" fill="#383136" d="m148.23 71.2c9.227-13.506-1.463-39.75 22-44v-2c-21.529 0.19496-22 30.283-22 46z"/>
 <path id="path5096" fill="#6f6c6c" d="m127.56 27.867 0.334 0.66666-0.334-0.66666z"/>
 <path id="path5098" fill="#bdb9b2" d="m158.23 27.2-1 2 1-2z"/>
 <path id="path5100" fill="#5a535d" d="m159.89 27.533 0.666 0.33334-0.666-0.33334z"/>
 <path id="path5102" fill="#8a827b" d="m166.23 27.2 4 1-4-1z"/>
 <path id="path5104" fill="#ddccde" d="m167.23 28.2h5-5z"/>
 <path id="path5106" fill="#948f93" d="m124.23 28.2v3-3z"/>
 <path id="path5108" fill="#8a827b" d="m158.23 28.2 1 1-1-1z"/>
 <path id="path5110" fill="#aaa0a4" d="m164.23 28.2 3 1-3-1z"/>
 <path id="path5112" fill="#8a827b" d="m128.23 29.2v5-5z"/>
 <path id="path5114" fill="#5a535d" d="m157.23 29.2v2l2-2h-2z"/>
 <path id="path5116" fill="#8a827b" d="m161.23 31.2 3-2-3 2m-5-1 1 1-1-1z"/>
 <path id="path5118" fill="#ddccde" d="m124.23 31.2v5-5z"/>
 <path id="path5120" fill="#8a827b" d="m125.23 31.2v5-5z"/>
 <path id="path5122" fill="#aaa0a4" d="m155.23 31.2 1 1-1-1z"/>
 <path id="path5124" fill="#948f93" d="m160.23 31.2 1 1-1-1z"/>
 <path id="path5126" fill="#bdb9b2" d="m154.23 32.2 1 1-1-1z"/>
 <path id="path5128" fill="#948f93" d="m159.23 32.2 1 1-1-1z"/>
 <path id="path5130" fill="#5a535d" d="m154.56 33.867 0.334 0.6666-0.334-0.6666z"/>
 <path id="path5132" fill="#8a827b" d="m158.23 33.2 1 1-1-1z"/>
 <path id="path5134" fill="#5a535d" d="m128.23 34.2v6c0.951-2.2853 0.951-3.7147 0-6z"/>
 <path id="path5136" fill="#bdb9b2" d="m129.23 34.2v6c0.951-2.2853 0.951-3.7147 0-6z"/>
 <path id="path5138" fill="#aaa0a4" d="m153.23 34.2-1 3 1-3z"/>
 <path id="path5140" fill="#948f93" d="m157.23 35.2 1 1-1-1z"/>
 <path id="path5142" fill="#bdb9b2" d="m125.23 36.2v9c1.256-2.9941 1.256-6.0059 0-9z"/>
 <path id="path5144" fill="#5a535d" d="m126.23 36.2v11c1.431-3.41 1.431-7.59 0-11z"/>
 <path id="path5146" fill="#6f6c6c" d="m156.23 36.2 1 1-1-1z"/>
 <path id="path5148" fill="#5a535d" d="m152.56 37.867 0.334 0.6666-0.334-0.6666z"/>
 <path id="path5150" fill="#ddccde" d="m156.56 37.867 0.334 0.6666-0.334-0.6666z"/>
 <path id="path5152" fill="#948f93" d="m151.56 38.867 0.334 0.6666-0.334-0.6666z"/>
 <path id="path5154" fill="#aaa0a4" d="m155.56 38.867 0.334 0.6666-0.334-0.6666z"/>
 <path id="path5156" fill="#ddccde" d="m130.23 39.2v11c1.431-3.41 1.431-7.59 0-11z"/>
 <path id="path5158" fill="#948f93" d="m129.23 40.2v9c1.256-2.9941 1.256-6.0059 0-9z"/>
 <path id="path5160" fill="#bdb9b2" d="m150.23 40.2v3-3z"/>
 <path id="path5162" fill="#948f93" d="m154.56 40.867 0.334 0.6666-0.334-0.6666z"/>
 <path id="path5164" fill="#ddccde" d="m154.56 42.867 0.334 0.6666-0.334-0.6666z"/>
 <path id="path5166" fill="#bdb9b2" d="m149.56 43.867 0.334 0.6666-0.334-0.6666z"/>
 <path id="path5168" fill="#8a827b" d="m153.56 43.867 0.334 0.6666-0.334-0.6666z"/>
 <path id="path5170" fill="#ddccde" d="m125.23 45.2v10c1.346-3.207 1.346-6.793 0-10z"/>
 <path id="path5172" fill="#8a827b" d="m149.56 45.867 0.334 0.6666-0.334-0.6666z"/>
 <path id="path5174" fill="#5a535d" d="m152.23 45.2v3-3z"/>
 <path id="path5176" fill="#bdb9b2" d="m153.56 45.867 0.334 0.6666-0.334-0.6666z"/>
 <path id="path5178" fill="#8a827b" d="m126.23 47.2v7c1.059-2.5343 1.059-4.4657 0-7z"/>
 <path id="path5180" fill="#bdb9b2" d="m148.23 47.2v3-3z"/>
 <path id="path5182" fill="#5a535d" d="m149.23 47.2v4-4z"/>
 <path id="path5184" fill="#948f93" d="m152.56 48.867 0.334 0.6666-0.334-0.6666z"/>
 <path id="path5186" fill="#5a535d" d="m129.23 49.2v7c1.059-2.5343 1.059-4.4657 0-7z"/>
 <path id="path5188" fill="#bdb9b2" d="m130.23 50.2v6c0.951-2.2853 0.951-3.7147 0-6z"/>
 <path id="path5190" fill="#6f6c6c" d="m148.23 50.2v4-4z"/>
 <path id="path5192" fill="#bdb9b2" d="m152.23 50.2v3-3z"/>
 <path id="path5194" fill="#ddccde" d="m177.23 51.2 6 1-6-1z"/>
 <path id="path5196" fill="#aaa0a4" d="m183.23 51.2 8 1-8-1z"/>
 <path id="path5198" fill="#ddccde" d="m191.23 51.2 6 1-6-1m-21 2h5-5z"/>
 <path id="path5200" fill="#aaa0a4" d="m175.89 52.533 0.666 0.3334-0.666-0.3334z"/>
 <path id="path5202" fill="#6f6c6c" d="m177.23 52.2 5 1-5-1z"/>
 <path id="path5204" fill="#373e60" d="m182.23 52.2 10 1-10-1z"/>
 <path id="path5206" fill="#6f6c6c" d="m192.23 52.2 5 1-5-1z"/>
 <path id="path5208" fill="#aaa0a4" d="m197.23 52.2 3 1-3-1z"/>
 <path id="path5210" fill="#ddccde" d="m200.23 52.2 5 1-5-1z"/>
 <path id="path5212" fill="#8a827b" d="m151.23 53.2v5-5z"/>
 <path id="path5214" fill="#ddccde" d="m152.23 53.2v5-5z"/>
 <path id="path5216" fill="#8a827b" d="m173.89 53.533 0.666 0.3334-0.666-0.3334z"/>
 <path id="path5218" fill="#6f6c6c" d="m201.23 53.2 4 1-4-1z"/>
 <path id="path5220" fill="#bdb9b2" d="m205.89 53.533 0.666 0.3334-0.666-0.3334m-79.667 0.6667v5-5z"/>
 <path id="path5222" fill="#ddccde" d="m147.23 54.2v4-4z"/>
 <path id="path5224" fill="#5a535d" d="m148.23 54.2v5-5z"/>
 <path id="path5226" fill="#948f93" d="m169.89 54.533 0.666 0.3334-0.666-0.3334z"/>
 <path id="path5228" fill="#5a535d" d="m171.89 54.533 0.666 0.3334-0.666-0.3334m34.333-0.3333 3 1-3-1z"/>
 <path id="path5230" fill="#948f93" d="m209.23 54.2 3 1-3-1z"/>
 <path id="path5232" fill="#bdb9b2" d="m212.23 54.2 3 1-3-1z"/>
 <path id="path5234" fill="#aaa0a4" d="m167.89 55.533 0.666 0.3334-0.666-0.3334z"/>
 <path id="path5236" fill="#5a535d" d="m167.23 56.2h4-4z"/>
 <path id="path5238" fill="#8a827b" d="m180.23 55.2 13 1-13-1z"/>
 <path id="path5240" fill="#5a535d" d="m193.23 55.2 5 1-5-1m19 0 3 1-3-1z"/>
 <path id="path5242" fill="#948f93" d="m215.23 55.2 3 1-3-1z"/>
 <path id="path5244" fill="#ddccde" d="m218.23 55.2 6 1-6-1z"/>
 <path id="path5246" fill="#948f93" d="m130.23 56.2v3-3m35.667 0.3333 0.666 0.3334-0.666-0.3334z"/>
 <path id="path5248" fill="#5a535d" d="m173.23 56.2 3 1-3-1z"/>
 <path id="path5250" fill="#948f93" d="m176.89 56.533 0.666 0.3334-0.666-0.3334z"/>
 <path id="path5252" fill="#bdb9b2" d="m178.23 56.2 3 1-3-1z"/>
 <path id="path5254" fill="#ddccde" d="m181.23 56.2 12 1-12-1z"/>
 <path id="path5256" fill="#bdb9b2" d="m193.23 56.2 6 1-6-1z"/>
 <path id="path5258" fill="#6f6c6c" d="m199.89 56.533 0.666 0.3334-0.666-0.3334z"/>
 <path id="path5260" fill="#5a535d" d="m201.23 56.2 3 1-3-1m16 0 3 1-3-1z"/>
 <path id="path5262" fill="#8a827b" d="m220.23 56.2 4 1-4-1z"/>
 <path id="path5264" fill="#bdb9b2" d="m224.23 56.2 6 1-6-1z"/>
 <path id="path5266" fill="#aaa0a4" d="m164.23 57.2 1 1-1-1z"/>
 <path id="path5268" fill="#8a827b" d="m172.89 57.533 0.666 0.3334-0.666-0.3334z"/>
 <path id="path5270" fill="#bdb9b2" d="m174.23 57.2 3 1-3-1m27 0 3 1-3-1z"/>
 <path id="path5272" fill="#8a827b" d="m204.23 57.2 3 1-3-1z"/>
 <path id="path5274" fill="#5a535d" d="m224.23 57.2 6 1-6-1z"/>
 <path id="path5276" fill="#aaa0a4" d="m230.23 57.2 1 1-1-1z"/>
 <path id="path5278" fill="#8a827b" d="m147.23 58.2v13c1.591-3.7913 1.591-9.2087 0-13z"/>
 <path id="path5280" fill="#bdb9b2" d="m151.23 58.2c0 4.1018-1.853 11.96 3 13l-3-13z"/>
 <path id="path5282" fill="#aaa0a4" d="m163.23 58.2 1 1-1-1z"/>
 <path id="path5284" fill="#948f93" d="m170.89 58.533 0.666 0.3334-0.666-0.3334z"/>
 <path id="path5286" fill="#ddccde" d="m204.23 58.2 3 1-3-1z"/>
 <path id="path5288" fill="#bdb9b2" d="m207.89 58.533 0.666 0.3334-0.666-0.3334z"/>
 <path id="path5290" fill="#8a827b" d="m209.23 58.2 3 1-3-1z"/>
 <path id="path5292" fill="#6f6c6c" d="m230.23 58.2-6 2c2.25 1.0853 7.429 1.7912 6-2z"/>
 <path id="path5294" fill="#bdb9b2" d="m231.23 58.2v3-3z"/>
 <path id="path5296" fill="#8a827b" d="m127.23 59.2v3-3z"/>
 <path id="path5298" fill="#ddccde" d="m131.56 59.867 0.334 0.6666-0.334-0.6666z"/>
 <path id="path5300" fill="#bdb9b2" d="m161.23 59.2 1 1-1-1z"/>
 <path id="path5302" fill="#6f6c6c" d="m168.23 59.2 1 1-1-1z"/>
 <path id="path5304" fill="#ddccde" d="m169.89 59.533 0.666 0.3334-0.666-0.3334m38.333-0.3333 3 1-3-1z"/>
 <path id="path5306" fill="#aaa0a4" d="m211.23 59.2 5 1-5-1z"/>
 <path id="path5308" fill="#8a827b" d="m216.23 59.2 3 1-3-1z"/>
 <path id="path5310" fill="#383136" d="m219.23 59.2 5 1-5-1z"/>
 <path id="path5312" fill="#673530" d="m150.23 60.2v11c1.431-3.41 1.431-7.59 0-11z"/>
 <path id="path5314" fill="#8a827b" d="m161.23 60.2 1 1-1-1z"/>
 <path id="path5316" fill="#bdb9b2" d="m167.89 60.533 0.666 0.3334-0.666-0.3334z"/>
 <path id="path5318" fill="#ddccde" d="m216.23 60.2 7 2-7-2z"/>
 <path id="path5320" fill="#aaa0a4" d="m219.23 60.2 5 1-5-1z"/>
 <path id="path5322" fill="#8a827b" d="m131.56 61.867 0.334 0.6666-0.334-0.6666z"/>
 <path id="path5324" fill="#bdb9b2" d="m159.23 61.2 1 1-1-1z"/>
 <path id="path5326" fill="#8a827b" d="m160.23 61.2 1 1-1-1z"/>
 <path id="path5328" fill="#6f6c6c" d="m165.23 61.2 1 1-1-1z"/>
 <path id="path5330" fill="#aaa0a4" d="m166.23 61.2 1 1-1-1z"/>
 <path id="path5332" fill="#bdb9b2" d="m223.23 61.2 8 1-8-1m-65 1 1 1-1-1z"/>
 <path id="path5334" fill="#8a827b" d="m164.23 62.2 1 1-1-1z"/>
 <path id="path5336" fill="#aaa0a4" d="m132.56 63.867 0.334 0.6666-0.334-0.6666z"/>
 <path id="path5338" fill="#bdb9b2" d="m157.23 63.2 1 1-1-1z"/>
 <path id="path5340" fill="#8a827b" d="m163.23 63.2 1 1-1-1z"/>
 <path id="path5342" fill="#bdb9b2" d="m128.56 64.867 0.334 0.6666-0.334-0.6666z"/>
 <path id="path5344" fill="#aaa0a4" d="m162.23 64.2 1 1-1-1z"/>
 <path id="path5346" fill="#948f93" d="m156.23 65.2 1 1-1-1m5 0 1 1-1-1z"/>
 <path id="path5348" fill="#aaa0a4" d="m133.23 66.2 1 1-1-1z"/>
 <path id="path5350" fill="#bdb9b2" d="m155.23 66.2 1 1-1-1z"/>
 <path id="path5352" fill="#8a827b" d="m160.23 66.2 1 1-1-1z"/>
 <path id="path5354" fill="#ddccde" d="m129.56 67.867 0.334 0.6666-0.334-0.6666z"/>
 <path id="path5356" fill="#bdb9b2" d="m134.23 67.2 1 1-1-1z"/>
 <path id="path5358" fill="#6f6c6c" d="m159.23 67.2 1 1-1-1z"/>
 <path id="path5360" fill="#aaa0a4" d="m130.23 68.2 3 5-3-5z"/>
 <path id="path5362" fill="#8a827b" d="m134.23 68.2 1 1-1-1z"/>
 <path id="path5364" fill="#948f93" d="m154.23 68.2 1 1-1-1z"/>
 <path id="path5366" fill="#bdb9b2" d="m159.23 68.2 1 1-1-1z"/>
 <path id="path5368" fill="#948f93" d="m135.23 69.2 1 1-1-1z"/>
 <path id="path5370" fill="#aaa0a4" d="m158.23 69.2 1 1-1-1m-22 1 1 1-1-1m21.333 0.6667 0.334 0.6666-0.334-0.6666z"/>
 <path id="path5372" fill="#948f93" d="m137.23 71.2 1 1-1-1z"/>
 <path id="path5374" fill="#bdb9b2" d="m147.23 71.2v4-4z"/>
 <path id="path5376" fill="#5a535d" d="m148.23 71.2v4-4z"/>
 <path id="path5378" fill="#6f6c6c" d="m151.23 71.2 3 1-3-1z"/>
 <path id="path5380" fill="#ddccde" d="m139.89 72.533 0.666 0.3334-0.666-0.3334z"/>
 <path id="path5382" fill="#5a535d" d="m155.23 72.2v4-4z"/>
 <path id="path5384" fill="#aaa0a4" d="m156.23 72.2v3-3m-23 1 1 1-1-1z"/>
 <path id="path5386" fill="#bdb9b2" d="m140.89 73.533 0.666 0.3334-0.666-0.3334m-6.667 0.6667 1 1-1-1z"/>
 <path id="path5388" fill="#8a827b" d="m141.23 74.2 7 2-7-2z"/>
 <path id="path5390" fill="#ddccde" d="m144.23 74.2 3 1-3-1m13 0 7 1-7-1z"/>
 <path id="path5392" fill="#aaa0a4" d="m164.23 74.2 9 1-9-1z"/>
 <path id="path5394" fill="#ddccde" d="m173.23 74.2 6 1-6-1z"/>
 <path id="path5396" fill="#948f93" d="m136.23 75.2 1 1-1-1z"/>
 <path id="path5398" fill="#6f6c6c" d="m156.23 75.2 8 1-8-1z"/>
 <path id="path5400" fill="#5a535d" d="m164.23 75.2 10 1-10-1z"/>
 <path id="path5402" fill="#6f6c6c" d="m174.23 75.2 6 1-6-1z"/>
 <path id="path5404" fill="#aaa0a4" d="m180.23 75.2 3 1-3-1z"/>
 <path id="path5406" fill="#ddccde" d="m183.89 75.533 0.666 0.3334-0.666-0.3334z"/>
 <path id="path5408" fill="#aaa0a4" d="m137.23 76.2 1 1-1-1z"/>
 <path id="path5410" fill="#383136" d="m156.23 80.2c15.047-1.9017 28.249 1.6939 43 2v4c34.495 7.9118 54.261 49.366 45.443 81.961-3.241 11.98-14.269 22.031-16.443 34.039-7.832 1.289-14.977 9.776-21.285 14.312-7.681 5.523-23.276 10.257-32.715 10.688 5.105 4.339 11.26 0.768 17-0.86 16.461-4.666 29.563-13.28 40.935-26.155 30.99-35.085 18.758-100.08-26.935-116.64-11.512-4.1718-22.659-7.3472-35-7.3472-5.141 0-11.015-0.8791-14 4z"/>
 <path id="path5412" fill="#5a535d" d="m180.23 76.2 3 1-3-1z"/>
 <path id="path5414" fill="#6f6c6c" d="m183.23 76.2 3 1-3-1z"/>
 <path id="path5416" fill="#aaa0a4" d="m186.23 76.2 3 1-3-1z"/>
 <path id="path5418" fill="#948f93" d="m139.23 77.2 1 1-1-1z"/>
 <path id="path5420" fill="#6f6c6c" d="m140.23 77.2v3-3z"/>
 <path id="path5422" fill="#373e60" d="m184.23 77.2 4 1-4-1z"/>
 <path id="path5424" fill="#8a827b" d="m188.23 77.2 3 1-3-1z"/>
 <path id="path5426" fill="#bdb9b2" d="m191.89 77.533 0.666 0.3334-0.666-0.3334z"/>
 <path id="path5428" fill="#aaa0a4" d="m139.56 78.867 0.334 0.6666-0.334-0.6666z"/>
 <path id="path5430" fill="#6f6c6c" d="m191.89 78.533 0.666 0.3334-0.666-0.3334z"/>
 <path id="path5432" fill="#948f93" d="m193.23 78.2 3 1-3-1z"/>
 <path id="path5434" fill="#5a535d" d="m159.23 79.2c7.195 3.0192 20.988 2.6551 29 3-8.695-4.18-19.614-3-29-3z"/>
 <path id="path5436" fill="#373e60" d="m178.23 79.2 5 1-5-1z"/>
 <path id="path5438" fill="#5a535d" d="m194.23 79.2 11 4-11-4z"/>
 <path id="path5440" fill="#bdb9b2" d="m197.89 79.533 0.666 0.3334-0.666-0.3334z"/>
 <path id="path5442" fill="#ddccde" d="m135.23 80.2 3 1-3-1z"/>
 <path id="path5444" fill="#5a535d" d="m156.23 80.2v3l2-3h-2z"/>
 <path id="path5446" fill="#52689b" d="m158.23 80.2c5.715 2.398 13.831 1 20 1-5.715-2.398-13.831-1-20-1z"/>
 <path id="path5448" fill="#373e60" d="m183.23 80.2 16 4c-3.188-3.7046-11.291-3.9023-16-4z"/>
 <path id="path5450" fill="#aaa0a4" d="m199.89 80.533 0.666 0.3334-0.666-0.3334z"/>
 <path id="path5452" fill="#ddccde" d="m77.228 87.2 4-5c-3.4544-0.7771-3.7732 2.0602-4 5z"/>
 <path id="path5454" fill="#bdb9b2" d="m130.23 83.2 5-1-5 1z"/>
 <path id="path5456" fill="#5a535d" d="m133.23 82.2h4-4z"/>
 <path id="path5458" fill="#5882d5" d="m157.23 81.2c4.6 16.074 13.25 31.312 10.791 49-1.931 13.887-11.662 25.806-13.791 39 11.126 7.142 18.501 16.539 23 29 8.067-1.109 15.618-5.529 22.17-10.163 1.566-1.108 5.145-4.033 7.078-2.093 3.336 3.347-7.322 9.164-9.418 10.469l-18.227 8.486c-4.16 4.424-3.603 14.692-3.603 20.301 51.68-1.067 86.801-66.1 60.687-110-16.818-28.27-48.648-34.004-78.687-34.004z"/>
 <path id="path5460" fill="#bdb9b2" d="m202.89 81.533 0.666 0.3334-0.666-0.3334z"/>
 <path id="path5462" fill="#8a827b" d="m79.228 82.2 3 1-3-1z"/>
 <path id="path5464" fill="#673530" d="m138.23 84.2 7-1-7 1z"/>
 <path id="path5466" fill="#8f3b3a" d="m141.23 84.2 10 1v-3l-10 2z"/>
 <path id="path5468" fill="#52689b" d="m188.23 82.2 7 3-7-3z"/>
 <path id="path5470" fill="#ddccde" d="m205.23 82.2 4 2-4-2z"/>
 <path id="path5472" fill="#5a535d" d="m78.228 83.2v4-4z"/>
 <path id="path5474" fill="#383136" d="m79.228 83.2c0.4873 6.5218 6.6079 16.007 13 18-0.3651-6.6501-6.4461-16.065-13-18z"/>
 <path id="path5476" fill="#aaa0a4" d="m82.228 83.2 1 1-1-1z"/>
 <path id="path5478" fill="#5a535d" d="m131.89 83.533 0.666 0.3334-0.666-0.3334z"/>
 <path id="path5480" fill="#673530" d="m151.23 83.2 4 8c1.091-3.6947-0.715-6.2969-4-8z"/>
 <path id="path5482" fill="#373e60" d="m157.56 83.867 0.334 0.6666-0.334-0.6666z"/>
 <path id="path5484" fill="#5a535d" d="m194.23 83.2 5 2-5-2z"/>
 <path id="path5486" fill="#8a827b" d="m205.89 83.533 0.666 0.3334-0.666-0.3334z"/>
 <path id="path5488" fill="#bdb9b2" d="m83.228 84.2 1 1-1-1z"/>
 <path id="path5490" fill="#ddccde" d="m126.23 84.2 3 1-3-1z"/>
 <path id="path5492" fill="#5a535d" d="m129.89 84.533 0.666 0.3334-0.666-0.3334z"/>
 <path id="path5494" fill="#8a827b" d="m208.23 84.2 1 1-1-1z"/>
 <path id="path5496" fill="#bdb9b2" d="m84.228 85.2 1 1-1-1z"/>
 <path id="path5498" fill="#948f93" d="m125.23 85.2 3 1-3-1z"/>
 <path id="path5500" fill="#673530" d="m130.23 89.2 6-3c-3.055-1.0619-4.57 0.2681-6 3z"/>
 <path id="path5502" fill="#8f3b3a" d="m134.23 86.2h4-4z"/>
 <path id="path5504" fill="#ce4742" d="m103.23 117.2c-6.1148 2.0203-6.2429 8.82-9.0864 13.83-11.738 20.684-4.0236 57.388 13.49 73.445 4.2752 3.919 12.701 12.164 18.518 13.064 6.606 1.022 14.017-15.087 14.079-20.339l32 3c-0.272-12.699-14.303-26.956-27-27 1.185-8.893 9.632-16.198 13.201-24.424 6.854-15.802 5.2-40.743-1.571-56.291-3.773-8.6652-12.444-8.7486-20.63-5.8904-12.745 4.4497-30.645 16.23-33 30.605z"/>
 <path id="path5506" fill="#948f93" d="m210.23 85.2 1 1-1-1z"/>
 <path id="path5508" fill="#8a827b" d="m84.228 86.2 1 1-1-1z"/>
 <path id="path5510" fill="#aaa0a4" d="m121.23 87.2h4-4z"/>
 <path id="path5512" fill="#948f93" d="m211.89 86.533 0.666 0.3334-0.666-0.3334z"/>
 <path id="path5514" fill="#6f6c6c" d="m85.561 87.867 0.3334 0.6666-0.3334-0.6666z"/>
 <path id="path5516" fill="#373e60" d="m159.23 87.2v3-3z"/>
 <path id="path5518" fill="#aaa0a4" d="m213.89 87.533 0.666 0.3334-0.666-0.3334z"/>
 <path id="path5520" fill="#bdb9b2" d="m86.228 88.2 1 1-1-1m34 0 1 1-1-1z"/>
 <path id="path5522" fill="#5a535d" d="m121.89 88.533 0.66661 0.3334-0.66661-0.3334m84 0 0.666 0.3334-0.666-0.3334z"/>
 <path id="path5524" fill="#373e60" d="m207.23 88.2 3 2-3-2z"/>
 <path id="path5526" fill="#8a827b" d="m215.23 88.2 1 1-1-1z"/>
 <path id="path5528" fill="#bdb9b2" d="m117.23 89.2v2l2-2h-2z"/>
 <path id="path5530" fill="#5a535d" d="m118.23 91.2 3-2-3 2z"/>
 <path id="path5532" fill="#6f6c6c" d="m216.23 89.2 1 1-1-1z"/>
 <path id="path5534" fill="#948f93" d="m81.228 90.2 1 1-1-1z"/>
 <path id="path5536" fill="#5a535d" d="m87.228 90.2 2 3-2-3z"/>
 <path id="path5538" fill="#8f3b3a" d="m119.23 96.2 9-6c-3.662 1.3138-6.9587 2.6151-9 6z"/>
 <path id="path5540" fill="#52689b" d="m161.23 90.2 1 5c0.791-2.3073 0.475-3.0648-1-5z"/>
 <path id="path5542" fill="#5a535d" d="m209.23 90.2 3 2-3-2z"/>
 <path id="path5544" fill="#948f93" d="m218.23 90.2 1 1-1-1z"/>
 <path id="path5546" fill="#ddccde" d="m81.228 91.2 3 4-3-4z"/>
 <path id="path5548" fill="#8a827b" d="m82.228 91.2 1 1-1-1z"/>
 <path id="path5550" fill="#aaa0a4" d="m116.23 91.2 1 1-1-1z"/>
 <path id="path5552" fill="#8a827b" d="m219.23 91.2 1 1-1-1z"/>
 <path id="path5554" fill="#948f93" d="m89.228 92.2 1 1-1-1z"/>
 <path id="path5556" fill="#ddccde" d="m114.23 92.2 1 1-1-1z"/>
 <path id="path5558" fill="#948f93" d="m115.23 92.2 1 1-1-1z"/>
 <path id="path5560" fill="#52689b" d="m212.23 92.2 3 2-3-2z"/>
 <path id="path5562" fill="#6f6c6c" d="m220.23 92.2 1 1-1-1z"/>
 <path id="path5564" fill="#aaa0a4" d="m221.23 92.2 1 1-1-1m-131 1 1 1-1-1z"/>
 <path id="path5566" fill="#bdb9b2" d="m113.23 93.2 1 1-1-1z"/>
 <path id="path5568" fill="#673530" d="m157.23 93.2c2.765 13.281 6 24.144 6 38 4.117-9.811 0.953-30.084-6-38z"/>
 <path id="path5570" fill="#948f93" d="m222.23 93.2 1 1-1-1m-138 1 1 1-1-1m7.3333 0.6667 0.3334 0.6666-0.3334-0.6666z"/>
 <path id="path5572" fill="#bdb9b2" d="m112.23 94.2 1 1-1-1z"/>
 <path id="path5574" fill="#5a535d" d="m215.23 94.2 3 2-3-2z"/>
 <path id="path5576" fill="#948f93" d="m223.23 94.2 1 1-1-1z"/>
 <path id="path5578" fill="#bdb9b2" d="m85.561 95.867 0.3334 0.6666-0.3334-0.6666z"/>
 <path id="path5580" fill="#aaa0a4" d="m111.23 95.2 1 1-1-1z"/>
 <path id="path5582" fill="#383136" d="m162.23 95.2 2 14c1.751-4.2928 0.344-10.112-2-14z"/>
 <path id="path5584" fill="#52689b" d="m215.23 95.2c1.739 3.3376 4.584 4.6302 8 6-1.854-3.5455-4.282-4.697-8-6z"/>
 <path id="path5586" fill="#8a827b" d="m224.23 95.2 1 1-1-1z"/>
 <path id="path5588" fill="#6f6c6c" d="m86.228 96.2 1 1-1-1z"/>
 <path id="path5590" fill="#bdb9b2" d="m92.228 96.2 1 1-1-1z"/>
 <path id="path5592" fill="#aaa0a4" d="m110.23 96.2 1 1-1-1z"/>
 <path id="path5594" fill="#52689b" d="m194.23 96.2 11 1-11-1z"/>
 <path id="path5596" fill="#8a827b" d="m225.23 96.2 1 1-1-1z"/>
 <path id="path5598" fill="#ddccde" d="m86.561 97.867 0.3334 0.6666-0.3334-0.6666z"/>
 <path id="path5600" fill="#5a535d" d="m92.228 97.2v4-4z"/>
 <path id="path5602" fill="#aaa0a4" d="m93.228 97.2v4-4z"/>
 <path id="path5604" fill="#948f93" d="m109.23 97.2 1 1-1-1z"/>
 <path id="path5606" fill="#52689b" d="m188.23 98.2h5-5z"/>
 <path id="path5608" fill="#373e60" d="m179.23 133.2-0.687-12.91c2.1-13.394 14.913-19.578 26.687-18.09-3.603-2.4613-7.757-1.9995-12-2 5.687-2.7361 10.123-1.3433 16 0-11.067-8.8009-26.905 0.407-31.116 12-2.358 6.4923-0.552 14.555 1.116 21z"/>
 <path id="path5610" fill="#6f6c6c" d="m226.23 97.2 1 1-1-1z"/>
 <path id="path5612" fill="#948f93" d="m87.228 98.2 1 1-1-1m21 0 1 1-1-1z"/>
 <path id="path5614" fill="#383136" d="m193.23 99.2c6.842 2.872 12.497 2.3781 18.532 8.0432 10.702 10.045 4.485 26.353-7.532 31.957 3.195-6.382 7.691-11.189 5.566-19-4.74-17.428-22.394-9.3652-27.566 2l-2-5h-2l2.101 14.999c4.831 13.797 22.731 15.306 32.603 6.219 8.727-8.032 9.605-22.1 3.136-31.41-2.658-3.8247-5.319-6.1786-9.841-7.703-4.352-1.4671-8.614-1.149-12.999-0.1049z"/>
 <path id="path5616" fill="#6f6c6c" d="m227.23 98.2 1 1-1-1z"/>
 <path id="path5618" fill="#aaa0a4" d="m107.23 99.2 1 1-1-1z"/>
 <path id="path5620" fill="#6f6c6c" d="m228.23 99.2 1 1-1-1z"/>
 <path id="path5622" fill="#8a827b" d="m68.228 100.2 3 1-3-1z"/>
 <path id="path5624" fill="#bdb9b2" d="m88.228 100.2 1 1-1-1z"/>
 <path id="path5626" fill="#aaa0a4" d="m106.23 100.2 1 1-1-1z"/>
 <path id="path5628" fill="#52689b" d="m209.89 100.53 0.666 0.3334-0.666-0.3334z"/>
 <path id="path5630" fill="#8a827b" d="m229.23 100.2 1 1-1-1z"/>
 <path id="path5632" fill="#bdb9b2" d="m66.228 101.2v3-3z"/>
 <path id="path5634" fill="#6f6c6c" d="m67.228 101.2v4-4z"/>
 <path id="path5636" fill="#383136" d="m68.228 101.2c0.594 7.7925 8.1466 9.9871 15 11-1.5546-5.1676-9.9497-9.5106-15-11z"/>
 <path id="path5638" fill="#bdb9b2" d="m71.228 101.2 1 1-1-1z"/>
 <path id="path5640" fill="#8a827b" d="m89.228 101.2 4 1-4-1z"/>
 <path id="path5642" fill="#948f93" d="m105.23 101.2 1 1-1-1z"/>
 <path id="path5644" fill="#8f3b3a" d="m159.23 101.2 2 13c1.769-4.2548 0.621-9.3207-2-13z"/>
 <path id="path5646" fill="#5a535d" d="m164.56 101.87 0.334 0.6666-0.334-0.6666z"/>
 <path id="path5648" fill="#52689b" d="m183.23 103.2 3-1c-1.778-0.9554-2.021-0.7662-3 1z"/>
 <path id="path5650" fill="#6f6c6c" d="m189.23 105.2c4.454-2.2387 8.034-2.9858 13-3-4.51-1.8919-10.197-1.2251-13 3z"/>
 <path id="path5652" fill="#373e60" d="m225.23 101.2c1.324 2.6866 2.313 3.6759 5 5l-2-5h-3z"/>
 <path id="path5654" fill="#6f6c6c" d="m230.23 101.2 1 1-1-1z"/>
 <path id="path5656" fill="#bdb9b2" d="m72.228 102.2 1 1-1-1z"/>
 <path id="path5658" fill="#ddccde" d="m90.228 102.2 3 1-3-1z"/>
 <path id="path5660" fill="#aaa0a4" d="m104.23 102.2 1 1-1-1z"/>
 <path id="path5662" fill="#bdb9b2" d="m190.23 104.2 12-1c-4.085-1.7133-8.107-0.8735-12 1z"/>
 <path id="path5664" fill="#948f93" d="m202.23 102.2 3 1-3-1m29 0 1 1-1-1z"/>
 <path id="path5666" fill="#8a827b" d="m72.228 103.2 3 2-3-2z"/>
 <path id="path5668" fill="#ddccde" d="m73.894 103.53 0.6666 0.3334-0.6666-0.3334z"/>
 <path id="path5670" fill="#aaa0a4" d="m103.23 103.2 1 1-1-1z"/>
 <path id="path5672" fill="#ddccde" d="m183.23 115.2 10.09-7.2971c16.637-5.1844 18.127 15.307 16.91 25.297 22.517-14.157-19.696-48.719-27-18z"/>
 <path id="path5674" fill="#8a827b" d="m205.89 103.53 0.666 0.3334-0.666-0.3334z"/>
 <path id="path5676" fill="#52689b" d="m213.89 103.53 0.666 0.3334-0.666-0.3334z"/>
 <path id="path5678" fill="#948f93" d="m232.23 103.2 1 1-1-1z"/>
 <path id="path5680" fill="#ddccde" d="m75.894 104.53 0.6666 0.3334-0.6666-0.3334z"/>
 <path id="path5682" fill="#bdb9b2" d="m102.23 104.2 1 1-1-1m104 0 5 5-5-5z"/>
 <path id="path5684" fill="#6f6c6c" d="m207.89 104.53 0.666 0.3334-0.666-0.3334z"/>
 <path id="path5686" fill="#aaa0a4" d="m233.23 104.2 1 1-1-1z"/>
 <path id="path5688" fill="#6f6c6c" d="m75.894 105.53 0.6666 0.3334-0.6666-0.3334z"/>
 <path id="path5690" fill="#bdb9b2" d="m77.894 105.53 0.6666 0.3334-0.6666-0.3334z"/>
 <path id="path5692" fill="#948f93" d="m101.23 105.2v2l2-2h-2z"/>
 <path id="path5694" fill="#3e2d25" d="m163.23 105.2c0.038 13.61 1.652 25.681-2.912 38.985l-14.088 28.015 15 6c-1.761-4.939-4.879-6.656-10-7v-6h3c3.877-18.814 20.04-40.32 9-60z"/>
 <path id="path5696" fill="#948f93" d="m183.23 112.2 6-7c-3.376 1.6625-4.78 3.4451-6 7z"/>
 <path id="path5698" fill="#5a535d" d="m209.23 105.2 3 2-3-2z"/>
 <path id="path5700" fill="#373e60" d="m215.23 105.2 2 3-2-3z"/>
 <path id="path5702" fill="#52689b" d="m216.23 105.2 2 5c0.566-2.5087-0.152-3.2198-2-5z"/>
 <path id="path5704" fill="#373e60" d="m233.23 105.2 3 4-3-4z"/>
 <path id="path5706" fill="#bdb9b2" d="m234.23 105.2 1 1-1-1z"/>
 <path id="path5708" fill="#8a827b" d="m78.228 106.2 3 1-3-1z"/>
 <path id="path5710" fill="#5a535d" d="m165.23 106.2 1 11c1.546-3.6914 1.042-7.5914-1-11z"/>
 <path id="path5712" fill="#52689b" d="m229.23 106.2 2 3-2-3z"/>
 <path id="path5714" fill="#bdb9b2" d="m235.23 106.2 1 1-1-1z"/>
 <path id="path5716" fill="#aaa0a4" d="m69.228 107.2 1 1-1-1z"/>
 <path id="path5718" fill="#bdb9b2" d="m81.894 107.53 0.6666 0.3334-0.6666-0.3334z"/>
 <path id="path5720" fill="#aaa0a4" d="m99.228 107.2v2l2-2h-2z"/>
 <path id="path5722" fill="#8f3b3a" d="m98.228 120.2 5-3 5-10c-5.4536 1.6782-8.6047 7.7029-10 13z"/>
 <path id="path5724" fill="#52689b" d="m179.23 107.2-1 4c1.303-1.6676 1.553-1.9922 1-4z"/>
 <path id="path5726" fill="#bdb9b2" d="m192.23 107.2 17 8c-3.418-6.725-10.012-7.9422-17-8z"/>
 <path id="path5728" fill="#948f93" d="m211.23 107.2 3 4-3-4z"/>
 <path id="path5730" fill="#373e60" d="m231.23 107.2 4 8c0.982-3.5909-1.317-5.7903-4-8z"/>
 <path id="path5732" fill="#aaa0a4" d="m236.56 107.87 0.334 0.6666-0.334-0.6666z"/>
 <path id="path5734" fill="#6f6c6c" d="m71.894 108.53 0.6666 0.3334-0.6666-0.3334m10.333-0.3333 1 1-1-1z"/>
 <path id="path5736" fill="#aaa0a4" d="m83.228 108.2 1 1-1-1m107.67 0.3333 0.666 0.3334-0.666-0.3334z"/>
 <path id="path5738" fill="#8a827b" d="m190.23 109.2h8-8m-117.33 0.3333 0.6666 0.3334-0.6666-0.3334z"/>
 <path id="path5740" fill="#5a535d" d="m83.228 109.2-2 3c2.5767 0.9757 2.9524-0.8611 2-3z"/>
 <path id="path5742" fill="#bdb9b2" d="m84.228 109.2v4-4m14 0 1 1-1-1z"/>
 <path id="path5744" fill="#373e60" d="m193.23 109.2 6 1-6-1z"/>
 <path id="path5746" fill="#52689b" d="m199.23 109.2 4 2-4-2z"/>
 <path id="path5748" fill="#5a535d" d="m214.23 109.2 1 5c0.651-2.2341 0.318-3.0739-1-5z"/>
 <path id="path5750" fill="#bdb9b2" d="m237.23 109.2 1 1-1-1m-163.33 1.3333 0.6666 0.3334-0.6666-0.3334z"/>
 <path id="path5752" fill="#8a827b" d="m75.894 110.53 0.6666 0.3334-0.6666-0.3334m22.333-0.3333 1 1-1-1z"/>
 <path id="path5754" fill="#8f3b3a" d="m136.23 114.2 5-3c-2.011 6.0403-14.418 16.011-4 20-3.507-9.177 4.789-10.114 5.172-17.891 0.25-5.0882-5.171-1.5965-6.172 0.8912z"/>
 <path id="path5756" fill="#948f93" d="m187.23 110.2v2l2-2h-2z"/>
 <path id="path5758" fill="#52689b" d="m219.23 110.2c2.658 21.033-7.679 39.47-31 32 7.58 8.202 18.1 1.532 27 0 2.823-10.391 12.089-21.13 4-32z"/>
 <path id="path5760" fill="#8a827b" d="m237.23 110.2 1 1-1-1z"/>
 <path id="path5762" fill="#ddccde" d="m75.228 111.2 3 1-3-1z"/>
 <path id="path5764" fill="#6f6c6c" d="m78.228 111.2 3 2-3-2z"/>
 <path id="path5766" fill="#5a535d" d="m97.228 111.2v2l2-2h-2z"/>
 <path id="path5768" fill="#3e2d25" d="m138.23 111.2c-2.364 3.5614-6.114 11.531-11.004 11.658l-16.996-8.658c1.708 6.0707 7.9198 11.399 14 13l-10 18c5.8672-1.903 8.4702-12.472 14.21-12.978l14.79 7.978c-1.031-6.043-8.919-7.541-9.865-13.1-0.911-5.356 6.786-10.561 7.865-15.9h-3z"/>
 <path id="path5770" fill="#373e60" d="m204.23 111.2 4 5-4-5z"/>
 <path id="path5772" fill="#aaa0a4" d="m238.23 111.2 1 1-1-1m-142 1 1 1-1-1z"/>
 <path id="path5774" fill="#5a535d" d="m181.56 112.87 0.334 0.6666-0.334-0.6666z"/>
 <path id="path5776" fill="#aaa0a4" d="m182.23 112.2c0.168 2.4025 0.197 3.4602 2 5l-2-5z"/>
 <path id="path5778" fill="#5a535d" d="m182.23 120.2-1-5v7l7-10c-3.452 1.8516-4.574 4.4173-6 8z"/>
 <path id="path5780" fill="#aaa0a4" d="m80.228 113.2 4 1-4-1z"/>
 <path id="path5782" fill="#8f3b3a" d="m109.23 113.2v4l1-3 5 1-6-2z"/>
 <path id="path5784" fill="#5a535d" d="m239.56 113.87 0.334 0.6666-0.334-0.6666z"/>
 <path id="path5786" fill="#ddccde" d="m81.894 114.53 0.6666 0.3334-0.6666-0.3334z"/>
 <path id="path5788" fill="#6f6c6c" d="m95.561 114.87 0.3334 0.6666-0.3334-0.6666z"/>
 <path id="path5790" fill="#8f3b3a" d="m162.23 114.2v19c2.02-4.813 2.02-14.187 0-19z"/>
 <path id="path5792" fill="#8a827b" d="m181.23 114.2v6c1.516-2.3472 1.387-3.56 0-6m34 0v3-3z"/>
 <path id="path5794" fill="#6f6c6c" d="m216.23 114.2v12c1.512-3.604 1.512-8.3957 0-12z"/>
 <path id="path5796" fill="#8a827b" d="m240.23 114.2v3-3z"/>
 <path id="path5798" fill="#948f93" d="m58.228 120.2 4-4c-3.0455-0.6883-3.5486 1.2417-4 4z"/>
 <path id="path5800" fill="#673530" d="m134.23 115.2-5 8c2.768-2.1434 5.302-4.3392 5-8z"/>
 <path id="path5802" fill="#6f6c6c" d="m208.23 115.2 2 14c1.948-4.642 1.108-10.092-2-14z"/>
 <path id="path5804" fill="#aaa0a4" d="m209.23 115.2 1 4c0.553-2.0078 0.303-2.3324-1-4z"/>
 <path id="path5806" fill="#bdb9b2" d="m241.56 115.87 0.334 0.6666-0.334-0.6666z"/>
 <path id="path5808" fill="#6f6c6c" d="m60.228 116.2 6 2-6-2z"/>
 <path id="path5810" fill="#bdb9b2" d="m63.894 116.53 0.6666 0.3334-0.6666-0.3334m29.333-0.3333v3l2-3h-2z"/>
 <path id="path5812" fill="#383136" d="m59.228 117.2c1.9263 5.945 12.362 7.167 18 8-1.2061-6.9469-12.094-7.5332-18-8z"/>
 <path id="path5814" fill="#aaa0a4" d="m66.228 117.2 3 1-3-1z"/>
 <path id="path5816" fill="#ddccde" d="m69.228 117.2 4 1-4-1z"/>
 <path id="path5818" fill="#383136" d="m166.23 117.2c-0.002 17.804-9.957 31.253-12 48 8.199-10.072 17.327-35.304 12-48z"/>
 <path id="path5820" fill="#52689b" d="m167.23 117.2-1 18c2.995-4.384 3.035-13.149 1-18z"/>
 <path id="path5822" fill="#5a535d" d="m176.23 117.2v6c0.951-2.2853 0.951-3.7147 0-6z"/>
 <path id="path5824" fill="#aaa0a4" d="m215.23 117.2-1 12c2.383-3.488 2.631-8.1131 1-12z"/>
 <path id="path5826" fill="#5a535d" d="m237.56 117.87 0.334 0.6666-0.334-0.6666m3.667-0.6667 1 4-1-4z"/>
 <path id="path5828" fill="#8a827b" d="m69.894 118.53 0.6666 0.3334-0.6666-0.3334z"/>
 <path id="path5830" fill="#aaa0a4" d="m71.228 118.2 3 1-3-1m171 0 1 1-1-1z"/>
 <path id="path5832" fill="#5a535d" d="m70.228 119.2 4 1-4-1z"/>
 <path id="path5834" fill="#bdb9b2" d="m74.894 119.53 0.6666 0.3334-0.6666-0.3334z"/>
 <path id="path5836" fill="#8a827b" d="m92.561 119.87 0.3334 0.6666-0.3334-0.6666z"/>
 <path id="path5838" fill="#aaa0a4" d="m59.228 120.2 1 1-1-1z"/>
 <path id="path5840" fill="#948f93" d="m75.894 120.53 0.6666 0.3334-0.6666-0.3334z"/>
 <path id="path5842" fill="#8f3b3a" d="m97.228 120.2-5 13c3.644-2.59 5.9219-8.625 5-13z"/>
 <path id="path5844" fill="#8a827b" d="m243.56 120.87 0.334 0.6663-0.334-0.6663z"/>
 <path id="path5846" fill="#aaa0a4" d="m60.228 121.2 5 2-5-2z"/>
 <path id="path5848" fill="#5a535d" d="m77.228 121.2-2 4c3.0535 1.151 3.0301-1.809 2-4z"/>
 <path id="path5850" fill="#8a827b" d="m91.561 121.87 0.3334 0.666-0.3334-0.666z"/>
 <path id="path5852" fill="#aaa0a4" d="m211.23 121.2v7c1.059-2.534 1.059-4.466 0-7m33.333 0.667 0.334 0.666-0.334-0.666z"/>
 <path id="path5854" fill="#ddccde" d="m61.894 122.53 0.6666 0.334-0.6666-0.334z"/>
 <path id="path5856" fill="#6f6c6c" d="m65.228 122.2 3 1-3-1z"/>
 <path id="path5858" fill="#aaa0a4" d="m78.228 122.2v3-3z"/>
 <path id="path5860" fill="#bdb9b2" d="m90.561 122.87 0.3334 0.666-0.3334-0.666z"/>
 <path id="path5862" fill="#8f3b3a" d="m124.23 122.2 4 2-4-2z"/>
 <path id="path5864" fill="#5a535d" d="m239.23 122.2 1 4c0.553-2.008 0.303-2.332-1-4z"/>
 <path id="path5866" fill="#bdb9b2" d="m66.228 123.2 3 1-3-1z"/>
 <path id="path5868" fill="#8a827b" d="m69.894 123.53 0.6666 0.334-0.6666-0.334z"/>
 <path id="path5870" fill="#673530" d="m94.228 123.2-2 8c2.0459-2.499 2.9547-4.851 2-8z"/>
 <path id="path5872" fill="#52689b" d="m176.23 123.2 1 7c0.965-2.706 0.466-4.55-1-7z"/>
 <path id="path5874" fill="#6f6c6c" d="m244.56 123.87 0.334 0.666-0.334-0.666z"/>
 <path id="path5876" fill="#ddccde" d="m69.894 124.53 0.6666 0.334-0.6666-0.334z"/>
 <path id="path5878" fill="#aaa0a4" d="m71.228 124.2 3 1-3-1z"/>
 <path id="path5880" fill="#6f6c6c" d="m90.561 124.87 0.3334 0.666-0.3334-0.666z"/>
 <path id="path5882" fill="#948f93" d="m245.56 124.87 0.334 0.666-0.334-0.666z"/>
 <path id="path5884" fill="#ddccde" d="m72.228 125.2 6 2-6-2z"/>
 <path id="path5886" fill="#948f93" d="m89.561 125.87 0.3334 0.666-0.3334-0.666z"/>
 <path id="path5888" fill="#5a535d" d="m245.56 126.87 0.334 0.666-0.334-0.666z"/>
 <path id="path5890" fill="#bdb9b2" d="m246.23 126.2 1 5-1-5m-158 1-1 4 1-4z"/>
 <path id="path5892" fill="#673530" d="m123.23 127.2-3 6c2.7562-1.513 4.001-2.863 3-6z"/>
 <path id="path5894" fill="#5a535d" d="m215.56 127.87 0.334 0.666-0.334-0.666z"/>
 <path id="path5896" fill="#373e60" d="m218.23 128.2-1 5c1.318-1.926 1.651-2.766 1-5z"/>
 <path id="path5898" fill="#6f6c6c" d="m88.561 129.87 0.3334 0.666-0.3334-0.666m125.67-0.667-2 4c1.63-1.515 2.163-1.855 2-4z"/>
 <path id="path5900" fill="#373e60" d="m242.23 129.2c2.071 9.034 4 16.648 4 26 2.76-6.578 1.868-21.278-4-26z"/>
 <path id="path5902" fill="#6f6c6c" d="m246.56 129.87 0.334 0.666-0.334-0.666m-37.333 0.333-1 4c1.303-1.668 1.553-1.992 1-4z"/>
 <path id="path5904" fill="#ddccde" d="m86.561 131.87 0.3334 0.666-0.3334-0.666z"/>
 <path id="path5906" fill="#8a827b" d="m87.561 131.87 0.3334 0.666-0.3334-0.666z"/>
 <path id="path5908" fill="#673530" d="m125.23 135.2c3.974-1.399 6.173-0.454 10 1-3.005-3.791-7.651-6.823-10-1z"/>
 <path id="path5910" fill="#948f93" d="m247.56 131.87 0.334 0.666-0.334-0.666z"/>
 <path id="path5912" fill="#673530" d="m91.228 132.2-2 7c1.8558-2.266 2.6534-4.106 2-7z"/>
 <path id="path5914" fill="#aaa0a4" d="m86.561 133.87 0.3334 0.666-0.3334-0.666z"/>
 <path id="path5916" fill="#8f3b3a" d="m118.23 133.2-3 8 6-8h-3m20 0 3 2-3-2m23 0v5-5z"/>
 <path id="path5918" fill="#52689b" d="m180.56 133.87 0.334 0.666-0.334-0.666z"/>
 <path id="path5920" fill="#aaa0a4" d="m208.23 136.2 4-3-4 3z"/>
 <path id="path5922" fill="#373e60" d="m215.23 133.2v3l2-3h-2z"/>
 <path id="path5924" fill="#6f6c6c" d="m247.56 133.87 0.334 0.666-0.334-0.666z"/>
 <path id="path5926" fill="#bdb9b2" d="m248.56 133.87 0.334 0.666-0.334-0.666z"/>
 <path id="path5928" fill="#948f93" d="m207.23 134.2 2 3-2-3z"/>
 <path id="path5930" fill="#6f6c6c" d="m86.561 135.87 0.3334 0.666-0.3334-0.666z"/>
 <path id="path5932" fill="#8f3b3a" d="m123.23 135.2-6 10c3.566-2.717 6.913-6.019 9-10h-3z"/>
 <path id="path5934" fill="#52689b" d="m181.56 135.87 0.334 0.666-0.334-0.666z"/>
 <path id="path5936" fill="#6f6c6c" d="m206.23 135.2 2 3-2-3z"/>
 <path id="path5938" fill="#aaa0a4" d="m248.23 135.2v3-3z"/>
 <path id="path5940" fill="#bdb9b2" d="m85.228 136.2-1 8c1.2782-2.661 1.8706-5.165 1-8z"/>
 <path id="path5942" fill="#673530" d="m135.23 136.2 3 2-3-2z"/>
 <path id="path5944" fill="#52689b" d="m165.23 136.2v5-5z"/>
 <path id="path5946" fill="#5a535d" d="m204.23 136.2c0.482 2.364 0.636 2.518 3 3l-3-3z"/>
 <path id="path5948" fill="#673530" d="m143.23 137.2-1 3-4-2c3.009 3.58 6.119 4.258 7-1h-2z"/>
 <path id="path5950" fill="#52689b" d="m244.23 138.2v22c2.219-5.287 2.219-16.713 0-22z"/>
 <path id="path5952" fill="#ddccde" d="m249.23 138.2v3-3z"/>
 <path id="path5954" fill="#6f6c6c" d="m85.228 139.2v4-4z"/>
 <path id="path5956" fill="#52689b" d="m183.23 139.2 3 2-3-2z"/>
 <path id="path5958" fill="#373e60" d="m185.23 139.2 4 3-4-3m22 2h4-4z"/>
 <path id="path5960" fill="#673530" d="m87.228 141.2v24c2.662-6.344 1.6999-17.011 2-24h-2z"/>
 <path id="path5962" fill="#8f3b3a" d="m113.23 141.2v5h4l-3-1-1-4z"/>
 <path id="path5964" fill="#673530" d="m160.23 141.2-1 5c1.318-1.926 1.651-2.766 1-5z"/>
 <path id="path5966" fill="#5a535d" d="m245.23 141.2v19c2.02-4.813 2.02-14.187 0-19z"/>
 <path id="path5968" fill="#948f93" d="m249.23 141.2v3-3z"/>
 <path id="path5970" fill="#aaa0a4" d="m250.23 143.2v14c1.667-3.972 1.667-10.028 0-14z"/>
 <path id="path5972" fill="#948f93" d="m84.561 144.87 0.3334 0.666-0.3334-0.666z"/>
 <path id="path5974" fill="#373e60" d="m195.23 144.2 7 1-7-1z"/>
 <path id="path5976" fill="#5a535d" d="m249.23 144.2v13c1.591-3.791 1.591-9.209 0-13z"/>
 <path id="path5978" fill="#373e60" d="m163.23 145.2-1 4 1-4z"/>
 <path id="path5980" fill="#ddccde" d="m83.228 146.2v6c0.9511-2.285 0.9511-3.715 0-6z"/>
 <path id="path5982" fill="#6f6c6c" d="m84.228 146.2v6c0.9511-2.285 0.9511-3.715 0-6z"/>
 <path id="path5984" fill="#8f3b3a" d="m88.228 146.2v19c2.0196-4.813 2.0196-14.187 0-19z"/>
 <path id="path5986" fill="#373e60" d="m161.23 149.2v3-3z"/>
 <path id="path5988" fill="#948f93" d="m83.228 152.2v8c1.1614-2.77 1.1614-5.23 0-8z"/>
 <path id="path5990" fill="#5a535d" d="m84.228 152.2v8c1.1614-2.77 1.1614-5.23 0-8z"/>
 <path id="path5992" fill="#373e60" d="m160.23 152.2-1 5 1-5z"/>
 <path id="path5994" fill="#bdb9b2" d="m44.228 153.2 9 1-9-1z"/>
 <path id="path5996" fill="#ddccde" d="m38.228 155.2h6-6z"/>
 <path id="path5998" fill="#5a535d" d="m44.228 154.2 9 1-9-1z"/>
 <path id="path6000" fill="#948f93" d="m53.894 154.53 0.6666 0.334-0.6666-0.334z"/>
 <path id="path6002" fill="#ddccde" d="m55.228 154.2 4 2-4-2z"/>
 <path id="path6004" fill="#6f6c6c" d="m39.228 156.2h4-4z"/>
 <path id="path6006" fill="#383136" d="m57.228 205.2c5.829 4.851 6.4344 14.656 11.054 20.957 11.557 15.761 25.791 11.098 41.946 11.043v-3c-10.192-0.805-15.924-7.199-25-10 1.8065 4.621 4.5009 7.004 9 9v2c-22.022 3.036-25.092-21.834-34-35l-12 5.562c-30.216 0.527-17.388-65.582 11.961-42.977l9.0394 9.415c2.0055-6.156-6.7917-13.812-12-15.852-10.11-3.96-20.96 0.551-25.954 9.852-5.7612 10.731-5.6471 25.976 1.7538 35.957 4.7841 6.452 18.882 11.06 24.2 3.043z"/>
 <path id="path6008" fill="#8a827b" d="m55.894 155.53 0.6666 0.334-0.6666-0.334z"/>
 <path id="path6010" fill="#bdb9b2" d="m37.228 156.2v2l2-2h-2z"/>
 <path id="path6012" fill="#8a827b" d="m58.228 156.2 1 1-1-1z"/>
 <path id="path6014" fill="#5a535d" d="m48.228 157.2 13 7c-3.4866-4.72-7.133-6.826-13-7z"/>
 <path id="path6016" fill="#aaa0a4" d="m60.228 157.2 1 1-1-1z"/>
 <path id="path6018" fill="#6f6c6c" d="m249.23 157.2v3-3z"/>
 <path id="path6020" fill="#ddccde" d="m250.23 157.2v3-3z"/>
 <path id="path6022" fill="#948f93" d="m36.228 158.2 1 1-1-1z"/>
 <path id="path6024" fill="#8a827b" d="m46.228 158.2 9 2c-2.8496-1.947-5.5903-1.97-9-2z"/>
 <path id="path6026" fill="#aaa0a4" d="m61.228 158.2 1 1-1-1z"/>
 <path id="path6028" fill="#5a535d" d="m157.23 158.2-1 5 3-5h-2z"/>
 <path id="path6030" fill="#948f93" d="m35.228 159.2 1 1-1-1z"/>
 <path id="path6032" fill="#8a827b" d="m34.228 169.2 11-9c-5.4392-1.057-9.3942 4.368-11 9z"/>
 <path id="path6034" fill="#bdb9b2" d="m45.228 159.2 8 1-8-1z"/>
 <path id="path6036" fill="#8a827b" d="m62.228 159.2 1 1-1-1z"/>
 <path id="path6038" fill="#948f93" d="m34.228 160.2 1 1-1-1z"/>
 <path id="path6040" fill="#ddccde" d="m88.228 233.2-12.352-19c-5.524-15.248-3.3217-61.316-31.648-53.566-17.991 4.922-15.571 38.702 1.0394 43.909 8.7965 2.758 19.596-11.715 12.218-18.581-3.2146-2.992-9.0714 3.629-11.005-0.124-2.9364-5.698 7.5527-9.482 11.458-6.934 10.466 6.828 4.4243 13.652 5.838 23.011 2.1348 14.132 10.663 26.573 24.451 31.285z"/>
 <path id="path6042" fill="#aaa0a4" d="m53.228 160.2 3 1-3-1z"/>
 <path id="path6044" fill="#948f93" d="m63.228 160.2 1 1-1-1z"/>
 <path id="path6046" fill="#ddccde" d="m83.228 160.2v7c1.0595-2.534 1.0595-4.466 0-7z"/>
 <path id="path6048" fill="#6f6c6c" d="m84.228 160.2v5-5z"/>
 <path id="path6050" fill="#373e60" d="m244.23 160.2-1 12c2.167-3.618 2.64-8.091 1-12z"/>
 <path id="path6052" fill="#948f93" d="m249.23 160.2v3-3z"/>
 <path id="path6054" fill="#aaa0a4" d="m33.228 161.2 1 1-1-1z"/>
 <path id="path6056" fill="#948f93" d="m64.228 161.2 1 1-1-1z"/>
 <path id="path6058" fill="#52689b" d="m243.23 161.2-5 20c3.847-4.629 7.286-14.144 5-20z"/>
 <path id="path6060" fill="#8a827b" d="m32.228 162.2v2l2-2h-2z"/>
 <path id="path6062" fill="#948f93" d="m65.228 162.2 1 1-1-1z"/>
 <path id="path6064" fill="#8f3b3a" d="m149.23 162.2v3l2-3h-2z"/>
 <path id="path6066" fill="#6f6c6c" d="m66.561 163.87 0.3334 0.666-0.3334-0.666m181.67-0.667v3-3z"/>
 <path id="path6068" fill="#ddccde" d="m249.23 163.2v3-3z"/>
 <path id="path6070" fill="#aaa0a4" d="m30.228 164.2-1 4 3-4h-2z"/>
 <path id="path6072" fill="#bdb9b2" d="m60.228 164.2 6 10c0.7142-4.395-2.6858-7.537-6-10z"/>
 <path id="path6074" fill="#373e60" d="m61.228 164.2c5.1958 7.954 9.5454 14.519 11.485 24l2.8897 22c2.1931 5.789 4.2654 14.279 11.625 14v-2c-13.092-12.139-11.409-35.911-16-52l-2 2c-1.913-3.734-3.9193-6.685-8-8z"/>
 <path id="path6076" fill="#aaa0a4" d="m67.228 164.2 1 1-1-1z"/>
 <path id="path6078" fill="#948f93" d="m84.561 165.87 0.3334 0.666-0.3334-0.666z"/>
 <path id="path6080" fill="#8f3b3a" d="m89.228 165.2v5-5m58 0-2 8h6l-5-1 3-7h-2z"/>
 <path id="path6082" fill="#383136" d="m151.23 165.2v6h4l-2-6h-2z"/>
 <path id="path6084" fill="#52689b" d="m153.23 165.2v4l2-4h-2z"/>
 <path id="path6086" fill="#aaa0a4" d="m68.228 166.2 1 1-1-1m180 0v3-3m-179 1 1 1-1-1m15.333 0.667 0.3334 0.666-0.3334-0.666z"/>
 <path id="path6088" fill="#bdb9b2" d="m28.228 168.2-1 5 1-5z"/>
 <path id="path6090" fill="#5a535d" d="m29.561 168.87 0.33334 0.666-0.33334-0.666z"/>
 <path id="path6092" fill="#6f6c6c" d="m33.228 168.2-1 5c1.3182-1.926 1.6513-2.766 1-5z"/>
 <path id="path6094" fill="#948f93" d="m70.561 168.87 0.3334 0.666-0.3334-0.666z"/>
 <path id="path6096" fill="#ddccde" d="m84.561 169.87 0.3334 0.666-0.3334-0.666z"/>
 <path id="path6098" fill="#6f6c6c" d="m85.561 169.87 0.3334 0.666-0.3334-0.666z"/>
 <path id="path6100" fill="#5a535d" d="m154.23 169.2 5 4-5-4z"/>
 <path id="path6102" fill="#8a827b" d="m247.23 169.2v3-3z"/>
 <path id="path6104" fill="#6f6c6c" d="m28.228 170.2v3-3m43.333 1.667 0.3334 0.666-0.3334-0.666z"/>
 <path id="path6106" fill="#bdb9b2" d="m72.561 171.87 0.3334 0.666-0.3334-0.666z"/>
 <path id="path6108" fill="#948f93" d="m85.228 171.2v3-3z"/>
 <path id="path6110" fill="#8f3b3a" d="m90.228 171.2c0.1842 4.02 0.5288 7.622 4 10l-4-10z"/>
 <path id="path6112" fill="#6f6c6c" d="m246.23 172.2v3-3z"/>
 <path id="path6114" fill="#ddccde" d="m26.561 173.87 0.33334 0.666-0.33334-0.666z"/>
 <path id="path6116" fill="#5a535d" d="m27.228 173.2v4-4z"/>
 <path id="path6118" fill="#aaa0a4" d="m67.561 173.87 0.3334 0.666-0.3334-0.666z"/>
 <path id="path6120" fill="#8a827b" d="m72.561 173.87 0.3334 0.666-0.3334-0.666z"/>
 <path id="path6122" fill="#52689b" d="m159.23 173.2 8 6c-2.26-3.007-4.337-5.003-8-6z"/>
 <path id="path6124" fill="#8a827b" d="m31.228 174.2v3-3m37.333 0.667 0.3334 0.666-0.3334-0.666z"/>
 <path id="path6126" fill="#ddccde" d="m85.561 174.87 0.3334 0.666-0.3334-0.666z"/>
 <path id="path6128" fill="#6f6c6c" d="m86.228 174.2 1 6c0.7355-2.433 0.3054-3.819-1-6z"/>
 <path id="path6130" fill="#383136" d="m160.23 174.2c1.148 4.113 3.022 5.588 7 7l-7-7z"/>
 <path id="path6132" fill="#bdb9b2" d="m26.228 175.2v3-3z"/>
 <path id="path6134" fill="#6f6c6c" d="m30.228 175.2v12c1.5124-3.604 1.5124-8.396 0-12z"/>
 <path id="path6136" fill="#948f93" d="m73.561 175.87 0.3334 0.666-0.3334-0.666z"/>
 <path id="path6138" fill="#673530" d="m155.23 175.2 7 6c-1.677-3.277-3.583-4.663-7-6z"/>
 <path id="path6140" fill="#8a827b" d="m245.56 175.87 0.334 0.666-0.334-0.666z"/>
 <path id="path6142" fill="#aaa0a4" d="m68.561 176.87 0.3334 0.666-0.3334-0.666z"/>
 <path id="path6144" fill="#6f6c6c" d="m69.228 176.2v3-3z"/>
 <path id="path6146" fill="#ddccde" d="m74.228 176.2 1 5-1-5z"/>
 <path id="path6148" fill="#aaa0a4" d="m31.228 177.2v9c1.2561-2.994 1.2561-6.006 0-9z"/>
 <path id="path6150" fill="#948f93" d="m49.228 178.2h8c-2.8519-1.188-5.0604-0.864-8 0z"/>
 <path id="path6152" fill="#ddccde" d="m86.561 177.87 0.3334 0.666-0.3334-0.666z"/>
 <path id="path6154" fill="#6f6c6c" d="m244.23 177.2v3-3z"/>
 <path id="path6156" fill="#bdb9b2" d="m245.56 177.87 0.334 0.666-0.334-0.666z"/>
 <path id="path6158" fill="#8a827b" d="m26.228 178.2v6c0.9511-2.285 0.95111-3.715 0-6z"/>
 <path id="path6160" fill="#5a535d" d="m51.228 178.2 6 1-6-1z"/>
 <path id="path6162" fill="#aaa0a4" d="m57.894 178.53 0.6666 0.334-0.6666-0.334z"/>
 <path id="path6164" fill="#ddccde" d="m25.228 179.2v6c0.9511-2.285 0.9511-3.715 0-6z"/>
 <path id="path6166" fill="#8a827b" d="m48.228 179.2-1 4 4-3-3-1z"/>
 <path id="path6168" fill="#373e60" d="m48.228 186.2c11.525-9.462 12.756 7.234 10 15 1.6611-0.208 1.5399-0.495 2 1 3.3828-5.126 5.1595-15.679 0.4861-20.682-4.9599-5.31-11.79-1.413-12.486 4.682z"/>
 <path id="path6170" fill="#aaa0a4" d="m69.561 179.87 0.3334 0.666-0.3334-0.666z"/>
 <path id="path6172" fill="#8a827b" d="m74.561 179.87 0.3334 0.666-0.3334-0.666m-4.3333 0.333v3-3z"/>
 <path id="path6174" fill="#ddccde" d="m87.561 180.87 0.3334 0.666-0.3334-0.666z"/>
 <path id="path6176" fill="#8a827b" d="m243.23 180.2-1 4c1.303-1.668 1.553-1.992 1-4z"/>
 <path id="path6178" fill="#ddccde" d="m244.56 180.87 0.334 0.666-0.334-0.666z"/>
 <path id="path6180" fill="#bdb9b2" d="m46.228 181.2-1 6c1.3054-2.181 1.7355-3.567 1-6m29.333 0.667 0.3334 0.666-0.3334-0.666z"/>
 <path id="path6182" fill="#6f6c6c" d="m88.228 181.2 1 4-1-4z"/>
 <path id="path6184" fill="#673530" d="m93.228 181.2 2 8c0.6282-2.986-0.3903-5.438-2-8z"/>
 <path id="path6186" fill="#8f3b3a" d="m162.23 181.2 3 4-3-4z"/>
 <path id="path6188" fill="#373e60" d="m167.23 181.2 5 6-5-6z"/>
 <path id="path6190" fill="#52689b" d="m237.23 181.2-8 15c4.051-3.135 9.444-9.578 8-15z"/>
 <path id="path6192" fill="#8a827b" d="m50.228 185.2 6-2c-2.8804-1.098-4.3502-0.555-6 2z"/>
 <path id="path6194" fill="#bdb9b2" d="m62.228 182.2 2 14c1.9517-4.651 1.2915-10.184-2-14z"/>
 <path id="path6196" fill="#5a535d" d="m47.228 183.2-1 4c2.7386-0.211 3.422-0.303 4-3l-1 2-2-3z"/>
 <path id="path6198" fill="#bdb9b2" d="m50.228 187.2 7-2c-2.6849-3.01-5.3442-1.005-7 2z"/>
 <path id="path6200" fill="#8a827b" d="m75.561 183.87 0.3334 0.666-0.3334-0.666z"/>
 <path id="path6202" fill="#bdb9b2" d="m26.228 184.2v5-5z"/>
 <path id="path6204" fill="#8a827b" d="m71.228 184.2v3-3z"/>
 <path id="path6206" fill="#373e60" d="m191.23 194.2 16-9c-5.086-1.611-13.109 4.982-16 9z"/>
 <path id="path6208" fill="#ddccde" d="m242.56 184.87 0.334 0.666-0.334-0.666z"/>
 <path id="path6210" fill="#948f93" d="m58.561 185.87 0.3334 0.666-0.3334-0.666z"/>
 <path id="path6212" fill="#5a535d" d="m75.228 185.2v5-5z"/>
 <path id="path6214" fill="#bdb9b2" d="m89.561 185.87 0.3334 0.666-0.3334-0.666z"/>
 <path id="path6216" fill="#383136" d="m176.23 199.2-1-7c-1.524 3.905 0.178 8.014 1 12 9.525-3.551 27.782-8.034 31-19-10.915 2.845-18.742 13.641-31 14z"/>
 <path id="path6218" fill="#52689b" d="m207.23 185.2c-1.829 3.753-4.489 5.797-8 8 4.463 0.948 9.451-3.413 8-8z"/>
 <path id="path6220" fill="#bdb9b2" d="m241.56 185.87 0.334 0.666-0.334-0.666z"/>
 <path id="path6222" fill="#8a827b" d="m31.228 186.2v3-3z"/>
 <path id="path6224" fill="#6f6c6c" d="m63.228 186.2v11c1.4309-3.41 1.4309-7.59 0-11z"/>
 <path id="path6226" fill="#bdb9b2" d="m76.228 186.2v3-3z"/>
 <path id="path6228" fill="#948f93" d="m90.561 186.87 0.3334 0.666-0.3334-0.666z"/>
 <path id="path6230" fill="#8a827b" d="m46.228 187.2 4 1-4-1z"/>
 <path id="path6232" fill="#aaa0a4" d="m59.228 187.2v9c1.2561-2.994 1.2561-6.006 0-9z"/>
 <path id="path6234" fill="#bdb9b2" d="m71.228 187.2v8c1.1614-2.77 1.1614-5.23 0-8z"/>
 <path id="path6236" fill="#6f6c6c" d="m72.228 187.2v7c1.0595-2.534 1.0595-4.466 0-7z"/>
 <path id="path6238" fill="#673530" d="m167.23 187.2 4 4c-0.97-2.492-1.475-3.146-4-4z"/>
 <path id="path6240" fill="#948f93" d="m240.23 187.2 1 1-1-1z"/>
 <path id="path6242" fill="#ddccde" d="m90.561 188.87 0.3334 0.666-0.3334-0.666z"/>
 <path id="path6244" fill="#8f3b3a" d="m96.228 188.2 2 3-2-3z"/>
 <path id="path6246" fill="#ddccde" d="m26.228 189.2 1 5-1-5z"/>
 <path id="path6248" fill="#8a827b" d="m27.228 189.2v3-3z"/>
 <path id="path6250" fill="#aaa0a4" d="m32.228 189.2 1 6c0.7355-2.433 0.3054-3.819-1-6z"/>
 <path id="path6252" fill="#948f93" d="m76.228 189.2v3-3z"/>
 <path id="path6254" fill="#ddccde" d="m77.228 189.2v4-4z"/>
 <path id="path6256" fill="#bdb9b2" d="m91.561 189.87 0.3334 0.666-0.3334-0.666z"/>
 <path id="path6258" fill="#373e60" d="m173.23 189.2 2 3-2-3z"/>
 <path id="path6260" fill="#aaa0a4" d="m239.23 189.2 1 1-1-1z"/>
 <path id="path6262" fill="#5a535d" d="m60.228 190.2v6c0.9511-2.285 0.9511-3.715 0-6z"/>
 <path id="path6264" fill="#948f93" d="m92.228 190.2 1 4-1-4z"/>
 <path id="path6266" fill="#6f6c6c" d="m238.23 190.2 1 1-1-1z"/>
 <path id="path6268" fill="#673530" d="m97.228 191.2c0.44 3.206 0.7836 5.059 4 6l-4-6z"/>
 <path id="path6270" fill="#6f6c6c" d="m28.228 192.2 1 5-1-5z"/>
 <path id="path6272" fill="#5a535d" d="m32.561 192.87 0.33334 0.666-0.33334-0.666m43.667-0.667v8c1.1614-2.77 1.1614-5.23 0-8z"/>
 <path id="path6274" fill="#ddccde" d="m92.561 192.87 0.3334 0.666-0.3334-0.666z"/>
 <path id="path6276" fill="#673530" d="m171.23 192.2 1 8h-13l14 1c-0.011-3.466 0.125-6.196-2-9z"/>
 <path id="path6278" fill="#8a827b" d="m237.23 192.2 1 1-1-1z"/>
 <path id="path6280" fill="#bdb9b2" d="m77.228 193.2v6c0.9511-2.285 0.9511-3.715 0-6z"/>
 <path id="path6282" fill="#8f3b3a" d="m100.23 193.2 1 4-1-4z"/>
 <path id="path6284" fill="#52689b" d="m189.89 193.53 0.666 0.334-0.666-0.334z"/>
 <path id="path6286" fill="#6f6c6c" d="m236.23 193.2 1 1-1-1z"/>
 <path id="path6288" fill="#948f93" d="m72.228 194.2v9c1.2561-2.994 1.2561-6.006 0-9z"/>
 <path id="path6290" fill="#ddccde" d="m93.228 194.2 2 3-2-3z"/>
 <path id="path6292" fill="#6f6c6c" d="m94.228 194.2 1 1-1-1z"/>
 <path id="path6294" fill="#5a535d" d="m184.23 196.2 5-1-5 1z"/>
 <path id="path6296" fill="#52689b" d="m196.23 197.2 3-3-3 3z"/>
 <path id="path6298" fill="#ddccde" d="m28.561 195.87 0.33334 0.666-0.33334-0.666z"/>
 <path id="path6300" fill="#8a827b" d="m34.561 195.87 0.3334 0.666-0.3334-0.666z"/>
 <path id="path6302" fill="#52689b" d="m176.23 195.2c0.211 2.739 0.303 3.422 3 4l-3-4z"/>
 <path id="path6304" fill="#373e60" d="m193.23 197.2 3-2-3 2z"/>
 <path id="path6306" fill="#8a827b" d="m235.23 195.2 1 1-1-1z"/>
 <path id="path6308" fill="#6f6c6c" d="m59.228 196.2-4 7c2.4196-2.023 4.2715-3.759 4-7z"/>
 <path id="path6310" fill="#373e60" d="m219.23 207.2 9-5 2-6c-4.698 1.76-8.606 6.664-11 11z"/>
 <path id="path6312" fill="#bdb9b2" d="m29.561 197.87 0.33334 0.666-0.33334-0.666z"/>
 <path id="path6314" fill="#6f6c6c" d="m35.561 197.87 0.3334 0.666-0.3334-0.666z"/>
 <path id="path6316" fill="#5a535d" d="m62.228 197.2-1 5c1.3182-1.926 1.6513-2.766 1-5z"/>
 <path id="path6318" fill="#aaa0a4" d="m63.561 197.87 0.3334 0.666-0.3334-0.666z"/>
 <path id="path6320" fill="#8f3b3a" d="m140.23 197.2v5-5m4 0 4 1-4-1z"/>
 <path id="path6322" fill="#373e60" d="m179.23 198.2c2.046 0.751 2.596 0.656 4-1l-4 1z"/>
 <path id="path6324" fill="#52689b" d="m191.23 198.2h4-4z"/>
 <path id="path6326" fill="#ddccde" d="m234.56 197.87 0.334 0.666-0.334-0.666z"/>
 <path id="path6328" fill="#6f6c6c" d="m30.228 198.2 1 1-1-1z"/>
 <path id="path6330" fill="#bdb9b2" d="m36.228 198.2 5 4-5-4z"/>
 <path id="path6332" fill="#aaa0a4" d="m96.228 198.2 1 1-1-1z"/>
 <path id="path6334" fill="#948f93" d="m233.23 198.2 1 1-1-1z"/>
 <path id="path6336" fill="#ddccde" d="m30.561 199.87 0.33334 0.666-0.33334-0.666z"/>
 <path id="path6338" fill="#5a535d" d="m36.228 199.2 3 3-3-3z"/>
 <path id="path6340" fill="#8a827b" d="m77.228 199.2v4-4z"/>
 <path id="path6342" fill="#ddccde" d="m78.228 199.2v4-4z"/>
 <path id="path6344" fill="#bdb9b2" d="m97.561 199.87 0.3334 0.666-0.3334-0.666z"/>
 <path id="path6346" fill="#8f3b3a" d="m151.23 199.2 8 1-8-1z"/>
 <path id="path6348" fill="#52689b" d="m186.23 200.2h5-5z"/>
 <path id="path6350" fill="#948f93" d="m232.23 199.2 1 1-1-1z"/>
 <path id="path6352" fill="#8a827b" d="m31.228 200.2 1 1-1-1z"/>
 <path id="path6354" fill="#aaa0a4" d="m62.228 200.2v3-3z"/>
 <path id="path6356" fill="#8a827b" d="m73.228 200.2v7c1.0595-2.534 1.0595-4.466 0-7z"/>
 <path id="path6358" fill="#948f93" d="m231.23 200.2 1 1-1-1z"/>
 <path id="path6360" fill="#8a827b" d="m32.228 201.2 1 1-1-1z"/>
 <path id="path6362" fill="#aaa0a4" d="m98.228 201.2 1 1-1-1z"/>
 <path id="path6364" fill="#5a535d" d="m183.89 201.53 0.666 0.334-0.666-0.334z"/>
 <path id="path6366" fill="#6f6c6c" d="m230.23 201.2-1 2 1-2z"/>
 <path id="path6368" fill="#ddccde" d="m32.561 202.87 0.33334 0.666-0.33334-0.666z"/>
 <path id="path6370" fill="#8a827b" d="m39.894 202.53 0.6666 0.334-0.6666-0.334z"/>
 <path id="path6372" fill="#948f93" d="m53.228 202.2v2l2-2h-2m46 0 1 1-1-1z"/>
 <path id="path6374" fill="#5a535d" d="m144.23 204.2 4-1c-2.046-0.751-2.596-0.656-4 1m32 2 7-3c-3.334-1.147-5.284 0.06-7 3z"/>
 <path id="path6376" fill="#bdb9b2" d="m230.23 202.2 1 1-1-1z"/>
 <path id="path6378" fill="#aaa0a4" d="m33.228 203.2 1 1-1-1z"/>
 <path id="path6380" fill="#948f93" d="m41.894 203.53 0.6666 0.334-0.6666-0.334z"/>
 <path id="path6382" fill="#8a827b" d="m63.561 203.87 0.3334 0.666-0.3334-0.666z"/>
 <path id="path6384" fill="#bdb9b2" d="m64.228 203.2v3-3m14 0v3-3z"/>
 <path id="path6386" fill="#948f93" d="m100.23 203.2 1 1-1-1z"/>
 <path id="path6388" fill="#aaa0a4" d="m145.23 203.2 3 3c0.951-2.507-0.652-2.706-3-3z"/>
 <path id="path6390" fill="#8a827b" d="m149.23 203.2v3-3z"/>
 <path id="path6392" fill="#6f6c6c" d="m228.23 203.2 1 1-1-1z"/>
 <path id="path6394" fill="#bdb9b2" d="m34.228 204.2 1 1-1-1z"/>
 <path id="path6396" fill="#8a827b" d="m43.894 204.53 0.6666 0.334-0.6666-0.334z"/>
 <path id="path6398" fill="#6f6c6c" d="m51.894 204.53 0.6666 0.334-0.6666-0.334z"/>
 <path id="path6400" fill="#ddccde" d="m100.23 204.2 3 3-3-3z"/>
 <path id="path6402" fill="#6f6c6c" d="m142.23 207.2 3-3-3 3z"/>
 <path id="path6404" fill="#ddccde" d="m123.23 235.2c8.517-2.597 22.714-22.609 25-31-8.623 2.531-22.771 22.428-25 31z"/>
 <path id="path6406" fill="#8f3b3a" d="m154.23 204.2-11 17 14.093-13.934 12.907-0.066-2 19-24-1c7.04 3.743 17.226 2 25 2l3-23h-18z"/>
 <path id="path6408" fill="#aaa0a4" d="m228.23 204.2 1 1-1-1z"/>
 <path id="path6410" fill="#6f6c6c" d="m45.228 205.2 6 1-6-1m12.667 0.333 0.6666 0.334-0.6666-0.334z"/>
 <path id="path6412" fill="#5a535d" d="m63.228 205.2v4-4z"/>
 <path id="path6414" fill="#6f6c6c" d="m102.23 205.2 1 1-1-1z"/>
 <path id="path6416" fill="#673530" d="m108.23 205.2 3 3-3-3z"/>
 <path id="path6418" fill="#6f6c6c" d="m226.23 205.2-5 6c2.408-1.737 4.303-3.095 5-6z"/>
 <path id="path6420" fill="#ddccde" d="m226.23 208.2 3-3-3 3z"/>
 <path id="path6422" fill="#aaa0a4" d="m37.228 206.2 1 1-1-1m20 0 2 3c1.1178-2.14 0.2508-2.527-2-3z"/>
 <path id="path6424" fill="#948f93" d="m64.228 206.2v3-3z"/>
 <path id="path6426" fill="#6f6c6c" d="m78.561 206.87 0.3334 0.666-0.3334-0.666z"/>
 <path id="path6428" fill="#ddccde" d="m79.228 206.2v3-3z"/>
 <path id="path6430" fill="#6f6c6c" d="m123.23 236.2c3.967 0.82 6.301-3.074 8.525-6.001l18.475-23.999c-12.28 5.848-15.43 23.504-27 30z"/>
 <path id="path6432" fill="#673530" d="m152.23 206.2-1 4 3-4h-2z"/>
 <path id="path6434" fill="#ce4742" d="m142.23 224.2c8.612 2.074 17.202 2 26 2l2-19-12.907-0.382c-4.994 1.862-12.876 12.72-15.093 17.382z"/>
 <path id="path6436" fill="#52689b" d="m176.23 206.2v7c1.059-2.534 1.059-4.466 0-7z"/>
 <path id="path6438" fill="#8a827b" d="m38.894 207.53 0.6666 0.334-0.6666-0.334z"/>
 <path id="path6440" fill="#6f6c6c" d="m55.228 207.2 1 1-1-1z"/>
 <path id="path6442" fill="#aaa0a4" d="m56.228 207.2 1 1-1-1z"/>
 <path id="path6444" fill="#5a535d" d="m60.561 207.87 0.3334 0.666-0.3334-0.666z"/>
 <path id="path6446" fill="#8a827b" d="m74.228 207.2v3-3z"/>
 <path id="path6448" fill="#bdb9b2" d="m103.23 207.2 1 1-1-1z"/>
 <path id="path6450" fill="#948f93" d="m133.23 219.2 10-12c-4.773 2.424-7.941 7.13-10 12z"/>
 <path id="path6452" fill="#373e60" d="m175.23 207.2c-0.962 7.448-6.116 19.635 5 20l-6-1c0.123-5.961 3.276-13.42 1-19z"/>
 <path id="path6454" fill="#52689b" d="m215.23 208.2h4-4z"/>
 <path id="path6456" fill="#aaa0a4" d="m225.23 207.2 1 1-1-1m-185.33 1.333 0.6666 0.334-0.6666-0.334z"/>
 <path id="path6458" fill="#5a535d" d="m41.894 208.53 0.6666 0.334-0.6666-0.334z"/>
 <path id="path6460" fill="#8a827b" d="m53.894 208.53 0.6666 0.334-0.6666-0.334z"/>
 <path id="path6462" fill="#ddccde" d="m53.228 209.2h4-4z"/>
 <path id="path6464" fill="#bdb9b2" d="m104.23 208.2 1 1-1-1z"/>
 <path id="path6466" fill="#8f3b3a" d="m111.89 208.53 0.6666 0.334-0.6666-0.334z"/>
 <path id="path6468" fill="#aaa0a4" d="m224.23 208.2 1 1-1-1z"/>
 <path id="path6470" fill="#ddccde" d="m40.228 209.2 3 1-3-1z"/>
 <path id="path6472" fill="#8a827b" d="m43.894 209.53 0.6666 0.334-0.6666-0.334z"/>
 <path id="path6474" fill="#6f6c6c" d="m45.228 209.2 8 1-8-1z"/>
 <path id="path6476" fill="#948f93" d="m60.228 209.2v3-3z"/>
 <path id="path6478" fill="#6f6c6c" d="m79.228 209.2v3-3z"/>
 <path id="path6480" fill="#aaa0a4" d="m105.23 209.2 1 1-1-1z"/>
 <path id="path6482" fill="#8f3b3a" d="m113.23 209.2 5 4-5-4z"/>
 <path id="path6484" fill="#673530" d="m134.23 209.2-3 6c2.153-1.885 3.41-3.112 3-6z"/>
 <path id="path6486" fill="#52689b" d="m212.23 212.2 3-3-3 3z"/>
 <path id="path6488" fill="#ddccde" d="m221.23 212.2 4-3-4 3z"/>
 <path id="path6490" fill="#bdb9b2" d="m43.228 210.2 10 1-10-1z"/>
 <path id="path6492" fill="#8a827b" d="m65.561 210.87 0.3334 0.666-0.3334-0.666z"/>
 <path id="path6494" fill="#bdb9b2" d="m80.228 210.2v3-3m26 0 1 1-1-1m-40 1 1 5c0.6513-2.234 0.3182-3.074-1-5z"/>
 <path id="path6496" fill="#948f93" d="m75.561 211.87 0.3334 0.666-0.3334-0.666z"/>
 <path id="path6498" fill="#8a827b" d="m220.23 211.2 1 1-1-1z"/>
 <path id="path6500" fill="#ddccde" d="m60.228 212.2 1 5-1-5z"/>
 <path id="path6502" fill="#5a535d" d="m65.228 212.2 1 4-1-4m11 0 1 4c0.553-2.008 0.303-2.332-1-4z"/>
 <path id="path6504" fill="#8a827b" d="m218.23 212.2v2l2-2h-2z"/>
 <path id="path6506" fill="#aaa0a4" d="m61.561 213.87 0.3334 0.666-0.3334-0.666z"/>
 <path id="path6508" fill="#bdb9b2" d="m75.561 213.87 0.3334 0.666-0.3334-0.666z"/>
 <path id="path6510" fill="#aaa0a4" d="m81.561 213.87 0.3334 0.666-0.3334-0.666z"/>
 <path id="path6512" fill="#948f93" d="m110.23 213.2 1 1-1-1z"/>
 <path id="path6514" fill="#8f3b3a" d="m119.23 213.2v2h2v-2h-2z"/>
 <path id="path6516" fill="#373e60" d="m201.23 219.2c4.181-1.014 6.639-2.359 9-6-3.332 1.308-6.853 3.107-9 6z"/>
 <path id="path6518" fill="#aaa0a4" d="m111.23 214.2 1 1-1-1z"/>
 <path id="path6520" fill="#8a827b" d="m216.23 214.2 1 1-1-1z"/>
 <path id="path6522" fill="#aaa0a4" d="m62.561 215.87 0.3334 0.666-0.3334-0.666z"/>
 <path id="path6524" fill="#948f93" d="m76.228 215.2 2 3-2-3m6.3333 0.667 0.3334 0.666-0.3334-0.666z"/>
 <path id="path6526" fill="#aaa0a4" d="m112.23 215.2 1 1-1-1z"/>
 <path id="path6528" fill="#8a827b" d="m215.23 215.2 1 1-1-1m-148 1 2 3-2-3z"/>
 <path id="path6530" fill="#673530" d="m122.23 216.2c1.961 2.723 3.699 2.893 7 3l-7-3z"/>
 <path id="path6532" fill="#8a827b" d="m212.23 218.2 3-2-3 2m-128.67-0.333 0.3334 0.666-0.3334-0.666z"/>
 <path id="path6534" fill="#948f93" d="m115.23 217.2 1 1-1-1z"/>
 <path id="path6536" fill="#bdb9b2" d="m63.561 218.87 0.3334 0.666-0.3334-0.666z"/>
 <path id="path6538" fill="#aaa0a4" d="m78.228 218.2 4 6-4-6m38 0 1 1-1-1z"/>
 <path id="path6540" fill="#5a535d" d="m117.23 218.2 3 2-3-2z"/>
 <path id="path6542" fill="#52689b" d="m199.89 218.53 0.666 0.334-0.666-0.334z"/>
 <path id="path6544" fill="#aaa0a4" d="m210.89 218.53 0.666 0.334-0.666-0.334z"/>
 <path id="path6546" fill="#948f93" d="m64.561 219.87 0.3334 0.666-0.3334-0.666z"/>
 <path id="path6548" fill="#8a827b" d="m69.228 219.2 2 3-2-3z"/>
 <path id="path6550" fill="#6f6c6c" d="m84.561 219.87 0.3334 0.666-0.3334-0.666m46.667-0.667v2l2-2h-2z"/>
 <path id="path6552" fill="#52689b" d="m174.23 219.2v7h7l-6-1-1-6z"/>
 <path id="path6554" fill="#373e60" d="m206.23 221.2 3-1c-1.778-0.955-2.021-0.766-3 1z"/>
 <path id="path6556" fill="#bdb9b2" d="m209.89 219.53 0.666 0.334-0.666-0.334m-124.67 0.667 1 1-1-1z"/>
 <path id="path6558" fill="#6f6c6c" d="m119.89 220.53 0.6666 0.334-0.6666-0.334z"/>
 <path id="path6560" fill="#383136" d="m128.23 220.2c0 2.795-1.48 2.265-4 2l-6.0154 9-3.5602 5.83c-2.5791 3.98-3.4409 12.14 3.9961 8.846l21.58-17.676-4-1 4-3c-6.862-2.171-8.979 8.436-14.076 11.118-6.4005 3.369-1.253-7.198 0.372-8.862l4.704-6.256h-3z"/>
 <path id="path6562" fill="#673530" d="m142.23 220.2c-1.02 2.899-1.228 4.308 2 5l-2-5z"/>
 <path id="path6564" fill="#bdb9b2" d="m207.89 220.53 0.666 0.334-0.666-0.334z"/>
 <path id="path6566" fill="#ddccde" d="m64.561 221.87 0.3334 0.666-0.3334-0.666z"/>
 <path id="path6568" fill="#6f6c6c" d="m121.23 221.2 2 3c0.699-1.993-0.006-2.153-2-3z"/>
 <path id="path6570" fill="#aaa0a4" d="m130.23 221.2-3 6 5-6h-2z"/>
 <path id="path6572" fill="#52689b" d="m191.89 221.53 0.666 0.334-0.666-0.334z"/>
 <path id="path6574" fill="#ddccde" d="m204.23 223.2 3-2-3 2z"/>
 <path id="path6576" fill="#948f93" d="m65.228 222.2 1 1-1-1z"/>
 <path id="path6578" fill="#bdb9b2" d="m71.228 222.2c3.7797 5.321 8.6158 9.351 15 11l-15-11m51 0v3-3z"/>
 <path id="path6580" fill="#948f93" d="m200.23 223.2h4-4z"/>
 <path id="path6582" fill="#bdb9b2" d="m66.561 223.87 0.3334 0.666-0.3334-0.666z"/>
 <path id="path6584" fill="#8a827b" d="m87.228 223.2 1 1-1-1z"/>
 <path id="path6586" fill="#5a535d" d="m181.23 226.2 10-2c-3.382-1.32-7.614-0.836-10 2m-109-2c1.7911 4.514 4.3762 6.615 9 8l-9-8m10 0 5 4-5-4m6 0 4 4-4-4z"/>
 <path id="path6588" fill="#8a827b" d="m196.23 224.2 3 1-3-1z"/>
 <path id="path6590" fill="#ddccde" d="m199.89 224.53 0.666 0.334-0.666-0.334z"/>
 <path id="path6592" fill="#948f93" d="m67.228 225.2 1 1-1-1z"/>
 <path id="path6594" fill="#bdb9b2" d="m82.228 225.2 3 4-3-4z"/>
 <path id="path6596" fill="#6f6c6c" d="m121.23 225.2v2l2-2h-2m72 0 3 1-3-1z"/>
 <path id="path6598" fill="#ddccde" d="m196.89 225.53 0.666 0.334-0.666-0.334z"/>
 <path id="path6600" fill="#948f93" d="m68.228 226.2 1 1-1-1m52.333 0.667 0.3334 0.666-0.3334-0.666z"/>
 <path id="path6602" fill="#5a535d" d="m125.23 226.2-2 5 4-5h-2m61 1h5-5z"/>
 <path id="path6604" fill="#8a827b" d="m191.89 226.53 0.666 0.334-0.666-0.334z"/>
 <path id="path6606" fill="#bdb9b2" d="m193.89 226.53 0.666 0.334-0.666-0.334z"/>
 <path id="path6608" fill="#673530" d="m154.23 227.2 15 1-15-1z"/>
 <path id="path6610" fill="#aaa0a4" d="m189.89 227.53 0.666 0.334-0.666-0.334z"/>
 <path id="path6612" fill="#ddccde" d="m191.89 227.53 0.666 0.334-0.666-0.334m-122.67 0.667 3 3-3-3z"/>
 <path id="path6614" fill="#6f6c6c" d="m85.228 228.2 8 7c0.0934-3.793-4.8701-5.7-8-7z"/>
 <path id="path6616" fill="#aaa0a4" d="m93.228 228.2 3 2-3-2m26 0 1 1-1-1z"/>
 <path id="path6618" fill="#6f6c6c" d="m137.23 228.2 8 2-8-2z"/>
 <path id="path6620" fill="#5a535d" d="m182.23 228.2 3 1-3-1z"/>
 <path id="path6622" fill="#948f93" d="m185.23 228.2 3 1-3-1m-61 1v2l2-2h-2z"/>
 <path id="path6624" fill="#bdb9b2" d="m136.23 231.2 6-1c-2.529-1.039-4.176-1.093-6 1z"/>
 <path id="path6626" fill="#8a827b" d="m180.23 229.2 3 1-3-1z"/>
 <path id="path6628" fill="#bdb9b2" d="m183.89 229.53 0.666 0.334-0.666-0.334z"/>
 <path id="path6630" fill="#8a827b" d="m72.228 230.2 1 1-1-1z"/>
 <path id="path6632" fill="#aaa0a4" d="m96.894 230.53 0.6666 0.334-0.6666-0.334z"/>
 <path id="path6634" fill="#6f6c6c" d="m118.23 230.2 1 1-1-1z"/>
 <path id="path6636" fill="#948f93" d="m135.23 230.2 1 1-1-1z"/>
 <path id="path6638" fill="#8a827b" d="m145.89 230.53 0.666 0.334-0.666-0.334z"/>
 <path id="path6640" fill="#6f6c6c" d="m147.23 230.2 6 1-6-1z"/>
 <path id="path6642" fill="#5a535d" d="m153.23 230.2c5.715 2.398 13.831 1 20 1-5.715-2.398-13.831-1-20-1z"/>
 <path id="path6644" fill="#8a827b" d="m173.23 230.2 5 1-5-1z"/>
 <path id="path6646" fill="#bdb9b2" d="m178.89 230.53 0.666 0.334-0.666-0.334z"/>
 <path id="path6648" fill="#ddccde" d="m180.23 230.2 3 1-3-1z"/>
 <path id="path6650" fill="#5a535d" d="m73.894 231.53 0.6666 0.334-0.6666-0.334z"/>
 <path id="path6652" fill="#bdb9b2" d="m88.228 231.2-1 3h4l-3-3z"/>
 <path id="path6654" fill="#aaa0a4" d="m98.894 231.53 0.6666 0.334-0.6666-0.334z"/>
 <path id="path6656" fill="#ddccde" d="m100.23 231.2 5 1-5-1z"/>
 <path id="path6658" fill="#948f93" d="m117.23 231.2 1 1-1-1z"/>
 <path id="path6660" fill="#6f6c6c" d="m122.23 231.2-1 4 3-4h-2z"/>
 <path id="path6662" fill="#948f93" d="m134.23 231.2 1 1-1-1z"/>
 <path id="path6664" fill="#bdb9b2" d="m148.23 231.2 5 1-5-1z"/>
 <path id="path6666" fill="#8a827b" d="m153.23 231.2c4.974 2.087 11.638 1 17 1-4.974-2.087-11.638-1-17-1z"/>
 <path id="path6668" fill="#bdb9b2" d="m170.23 231.2 5 1-5-1z"/>
 <path id="path6670" fill="#948f93" d="m74.228 232.2 1 1-1-1z"/>
 <path id="path6672" fill="#8a827b" d="m82.894 232.53 0.6666 0.334-0.6666-0.334z"/>
 <path id="path6674" fill="#5a535d" d="m99.228 232.2 3 1-3-1z"/>
 <path id="path6676" fill="#948f93" d="m102.23 232.2 3 1-3-1z"/>
 <path id="path6678" fill="#bdb9b2" d="m105.23 232.2 6 1-6-1z"/>
 <path id="path6680" fill="#948f93" d="m116.23 232.2 1 1-1-1z"/>
 <path id="path6682" fill="#6f6c6c" d="m133.23 232.2 1 1-1-1z"/>
 <path id="path6684" fill="#ddccde" d="m153.23 232.2c4.974 2.087 11.638 1 17 1-4.974-2.087-11.638-1-17-1z"/>
 <path id="path6686" fill="#6f6c6c" d="m75.894 233.53 0.6666 0.334-0.6666-0.334m8.3333-0.333 3 1-3-1z"/>
 <path id="path6688" fill="#948f93" d="m89.228 234.2c2.0464 0.751 2.5957 0.656 4-1l-4 1z"/>
 <path id="path6690" fill="#5a535d" d="m105.23 233.2 5 4 1-4h-6z"/>
 <path id="path6692" fill="#948f93" d="m115.23 233.2v3-3z"/>
 <path id="path6694" fill="#aaa0a4" d="m122.56 233.87 0.33338 0.666-0.33338-0.666m10.667-0.667 1 1-1-1z"/>
 <path id="path6696" fill="#bdb9b2" d="m76.228 234.2 1 1-1-1z"/>
 <path id="path6698" fill="#6f6c6c" d="m87.894 234.53 0.6666 0.334-0.6666-0.334z"/>
 <path id="path6700" fill="#aaa0a4" d="m111.23 234.2v3-3z"/>
 <path id="path6702" fill="#948f93" d="m132.23 234.2 1 1-1-1z"/>
 <path id="path6704" fill="#aaa0a4" d="m77.894 235.53 0.6666 0.334-0.6666-0.334z"/>
 <path id="path6706" fill="#5a535d" d="m79.894 235.53 0.6666 0.334-0.6666-0.334m9.3333-0.333 4 1-4-1z"/>
 <path id="path6708" fill="#ddccde" d="m110.23 238.2 3 1 2-4-5 3z"/>
 <path id="path6710" fill="#aaa0a4" d="m123.23 235.2 3 1-3-1z"/>
 <path id="path6712" fill="#8a827b" d="m131.23 235.2 1 1-1-1z"/>
 <path id="path6714" fill="#aaa0a4" d="m80.228 236.2 1 1-1-1z"/>
 <path id="path6716" fill="#8a827b" d="m114.23 236.2 1 1-1-1z"/>
 <path id="path6718" fill="#6f6c6c" d="m130.23 236.2 1 1-1-1z"/>
 <path id="path6720" fill="#aaa0a4" d="m81.894 237.53 0.6666 0.334-0.6666-0.334z"/>
 <path id="path6722" fill="#5a535d" d="m83.894 237.53 0.6666 0.334-0.6666-0.334z"/>
 <path id="path6724" fill="#6f6c6c" d="m101.23 239.2 9-1c-3.0891-1.296-6.6925-1.641-9 1z"/>
 <path id="path6726" fill="#5a535d" d="m113.23 237.2v2l2-2h-2z"/>
 <path id="path6728" fill="#bdb9b2" d="m83.894 238.53 0.6666 0.334-0.6666-0.334z"/>
 <path id="path6730" fill="#8a827b" d="m85.894 238.53 0.6666 0.334-0.6666-0.334z"/>
 <path id="path6732" fill="#bdb9b2" d="m102.23 238.2 8 1-8-1z"/>
 <path id="path6734" fill="#948f93" d="m129.23 238.2 1 1-1-1z"/>
 <path id="path6736" fill="#8a827b" d="m87.228 239.2 5 1-5-1z"/>
 <path id="path6738" fill="#5a535d" d="m92.228 239.2 8 1-8-1z"/>
 <path id="path6740" fill="#ddccde" d="m98.228 240.2h4-4z"/>
 <path id="path6742" fill="#bdb9b2" d="m128.23 239.2v2l2-2h-2z"/>
 <path id="path6744" fill="#ddccde" d="m88.228 240.2 4 1-4-1z"/>
 <path id="path6746" fill="#bdb9b2" d="m92.228 240.2 6 1-6-1z"/>
 <path id="path6748" fill="#948f93" d="m110.23 240.2c0.2206 3.007 0.4547 4.365 3 6l-1-6h-2z"/>
 <path id="path6750" fill="#8a827b" d="m127.23 240.2 1 1-1-1z"/>
 <path id="path6752" fill="#6f6c6c" d="m124.23 243.2 3-1c-1.778-0.955-2.021-0.766-3 1z"/>
 <path id="path6754" fill="#ddccde" d="m125.23 242.2h4-4z"/>
 <path id="path6756" fill="#bdb9b2" d="m123.23 243.2v2l2-2h-2z"/>
 <path id="path6758" fill="#5a535d" d="m114.23 247.2c3.4313 1.324 5.8107-0.647 9-2-3.271-1.07-5.8076 1.14-9 2z"/>
 <path id="path6760" fill="#aaa0a4" d="m120.23 245.2 3 1-3-1z"/>
 <path id="path6762" fill="#948f93" d="m113.23 246.2 1 1-1-1z"/>
 <path id="path6764" fill="#ddccde" d="m119.56 246.87 0.3334 0.666-0.3334-0.666z"/>
 <path id="path6766" fill="#aaa0a4" d="m114.73 248.2 4 1-4-1z"/>
</svg>
